<svg width="33" height="40" viewBox="0 0 33 40" fill="none" xmlns="http://www.w3.org/2000/svg">
<g clip-path="url(#clip0_3924_7913)">
<mask id="mask0_3924_7913" style="mask-type:alpha" maskUnits="userSpaceOnUse" x="-11" y="6" width="21" height="14">
<rect x="-10.2002" y="6" width="19.6" height="14" fill="white"/>
</mask>
<g mask="url(#mask0_3924_7913)">
<path d="M5.56944 17.8903C5.09165 17.8903 4.62566 17.8903 4.13339 17.8903C4.47176 20.0063 4.80691 22.1019 5.14421 24.212C3.6481 24.212 2.16539 24.212 0.658025 24.212C0.460153 23.4532 0.259599 22.6848 0.0590459 21.9158C0.0440312 21.9158 0.0284799 21.9158 0.0134652 21.9158C-0.18548 22.6799 -0.384424 23.4441 -0.585514 24.2152C-2.07787 24.2152 -3.56057 24.2152 -5.07169 24.2152C-4.73547 22.1126 -4.40086 20.0191 -4.06088 17.8951C-4.477 17.8951 -4.87918 17.8951 -5.29102 17.8951C-5.29102 16.5384 -5.29102 15.2107 -5.29102 13.862C-4.76443 13.862 -4.24696 13.862 -3.69356 13.862C-4.33115 12.7086 -4.44322 11.5326 -4.02174 10.3175C-3.71233 9.42572 -3.16697 8.70501 -2.3964 8.15751C-0.946404 7.12686 1.07522 7.14831 2.5472 8.21864C3.43199 8.86159 4.0047 9.72226 4.2385 10.791C4.47176 11.857 4.30284 12.8737 3.76714 13.8567C4.38596 13.8567 4.971 13.8567 5.56891 13.8567C5.56944 15.2021 5.56944 16.5298 5.56944 17.8903ZM-1.83174 11.723C-1.89984 12.7037 -0.98823 13.6019 0.0477845 13.595C1.0779 13.588 1.97986 12.6871 1.90425 11.7273C1.51494 11.7273 1.12402 11.7273 0.73578 11.7273C0.600648 12.1857 0.432805 12.3627 0.105163 12.3825C-0.36083 12.4104 -0.585515 12.1434 -0.660588 11.723C-1.05901 11.723 -1.43867 11.723 -1.83174 11.723ZM-0.847735 16.7894C-0.245538 16.7894 0.332528 16.7894 0.912739 16.7894C0.912739 16.3883 0.912739 15.9995 0.912739 15.6102C0.317513 15.6102 -0.260553 15.6102 -0.847735 15.6102C-0.847735 16.0075 -0.847735 16.392 -0.847735 16.7894ZM-0.847199 19.3547C-0.254655 19.3547 0.328238 19.3547 0.917029 19.3547C0.917029 18.9547 0.917029 18.5659 0.917029 18.1761C0.320195 18.1761 -0.262698 18.1761 -0.847199 18.1761C-0.847199 18.5745 -0.847199 18.9595 -0.847199 19.3547Z" fill="white"/>
<path d="M6.80078 13.8594C7.56653 13.8663 8.15961 14.1752 8.55482 14.8117C8.99883 15.5265 8.96719 16.2633 8.52693 16.9674C8.13709 17.5911 7.5542 17.8914 6.80078 17.8892C6.80078 16.5459 6.80078 15.2198 6.80078 13.8594Z" fill="white"/>
<path d="M6.97279 13.8594H5.33887V17.8876H6.97279V13.8594Z" fill="white"/>
<path d="M1.51362 15.0547H-1.31934V19.8808H1.51362V15.0547Z" fill="white"/>
</g>
<mask id="mask1_3924_7913" style="mask-type:alpha" maskUnits="userSpaceOnUse" x="23" y="6" width="20" height="14">
<rect x="23" y="6" width="19.6" height="14" fill="white"/>
</mask>
<g mask="url(#mask1_3924_7913)">
<path d="M38.7696 17.8903C38.2918 17.8903 37.8259 17.8903 37.3336 17.8903C37.672 20.0063 38.0071 22.1019 38.3444 24.212C36.8483 24.212 35.3656 24.212 33.8582 24.212C33.6603 23.4532 33.4598 22.6848 33.2592 21.9158C33.2442 21.9158 33.2287 21.9158 33.2137 21.9158C33.0147 22.6799 32.8158 23.4441 32.6147 24.2152C31.1223 24.2152 29.6396 24.2152 28.1285 24.2152C28.4647 22.1126 28.7993 20.0191 29.1393 17.8951C28.7232 17.8951 28.321 17.8951 27.9092 17.8951C27.9092 16.5384 27.9092 15.2107 27.9092 13.862C28.4358 13.862 28.9532 13.862 29.5066 13.862C28.869 12.7086 28.757 11.5326 29.1785 10.3175C29.4879 9.42572 30.0332 8.70501 30.8038 8.15751C32.2538 7.12686 34.2754 7.14831 35.7474 8.21864C36.6322 8.86159 37.2049 9.72226 37.4387 10.791C37.672 11.857 37.503 12.8737 36.9673 13.8567C37.5862 13.8567 38.1712 13.8567 38.7691 13.8567C38.7696 15.2021 38.7696 16.5298 38.7696 17.8903ZM31.3685 11.723C31.3004 12.7037 32.212 13.6019 33.248 13.595C34.2781 13.588 35.1801 12.6871 35.1044 11.7273C34.7151 11.7273 34.3242 11.7273 33.936 11.7273C33.8008 12.1857 33.633 12.3627 33.3054 12.3825C32.8394 12.4104 32.6147 12.1434 32.5396 11.723C32.1412 11.723 31.7615 11.723 31.3685 11.723ZM32.3525 16.7894C32.9547 16.7894 33.5327 16.7894 34.1129 16.7894C34.1129 16.3883 34.1129 15.9995 34.1129 15.6102C33.5177 15.6102 32.9396 15.6102 32.3525 15.6102C32.3525 16.0075 32.3525 16.392 32.3525 16.7894ZM32.353 19.3547C32.9455 19.3547 33.5284 19.3547 34.1172 19.3547C34.1172 18.9547 34.1172 18.5659 34.1172 18.1761C33.5204 18.1761 32.9375 18.1761 32.353 18.1761C32.353 18.5745 32.353 18.9595 32.353 19.3547Z" fill="white"/>
<path d="M26.6837 13.8767C26.6837 15.2162 26.6837 16.5428 26.6837 17.8824C25.8622 17.9392 25.1967 17.6663 24.75 16.9799C24.2846 16.2651 24.2889 15.5154 24.7329 14.7888C25.1313 14.1362 25.9566 13.7614 26.6837 13.8767Z" fill="white"/>
<path d="M28.1876 13.8608H26.5537V17.8891H28.1876V13.8608Z" fill="white"/>
<path d="M34.7138 15.0547H31.8809V19.8808H34.7138V15.0547Z" fill="white"/>
</g>
<mask id="mask2_3924_7913" style="mask-type:alpha" maskUnits="userSpaceOnUse" x="6" y="6" width="21" height="14">
<rect x="6.59961" y="6" width="19.6" height="14" fill="white"/>
</mask>
<g mask="url(#mask2_3924_7913)">
<path d="M22.3692 17.8903C21.8915 17.8903 21.4255 17.8903 20.9332 17.8903C21.2716 20.0063 21.6067 22.1019 21.944 24.212C20.4479 24.212 18.9652 24.212 17.4578 24.212C17.26 23.4532 17.0594 22.6848 16.8589 21.9158C16.8438 21.9158 16.8283 21.9158 16.8133 21.9158C16.6143 22.6799 16.4154 23.4441 16.2143 24.2152C14.7219 24.2152 13.2392 24.2152 11.7281 24.2152C12.0643 22.1126 12.3989 20.0191 12.7389 17.8951C12.3228 17.8951 11.9206 17.8951 11.5088 17.8951C11.5088 16.5384 11.5088 15.2107 11.5088 13.862C12.0354 13.862 12.5528 13.862 13.1062 13.862C12.4687 12.7086 12.3566 11.5326 12.7781 10.3175C13.0875 9.42572 13.6328 8.70501 14.4034 8.15751C15.8534 7.12686 17.875 7.14831 19.347 8.21864C20.2318 8.86159 20.8045 9.72226 21.0383 10.791C21.2716 11.857 21.1026 12.8737 20.5669 13.8567C21.1858 13.8567 21.7708 13.8567 22.3687 13.8567C22.3692 15.2021 22.3692 16.5298 22.3692 17.8903ZM14.9681 11.723C14.9 12.7037 15.8116 13.6019 16.8476 13.595C17.8777 13.588 18.7797 12.6871 18.7041 11.7273C18.3147 11.7273 17.9238 11.7273 17.5356 11.7273C17.4005 12.1857 17.2326 12.3627 16.905 12.3825C16.439 12.4104 16.2143 12.1434 16.1392 11.723C15.7408 11.723 15.3611 11.723 14.9681 11.723ZM15.9521 16.7894C16.5543 16.7894 17.1323 16.7894 17.7125 16.7894C17.7125 16.3883 17.7125 15.9995 17.7125 15.6102C17.1173 15.6102 16.5393 15.6102 15.9521 15.6102C15.9521 16.0075 15.9521 16.392 15.9521 16.7894ZM15.9526 19.3547C16.5452 19.3547 17.128 19.3547 17.7168 19.3547C17.7168 18.9547 17.7168 18.5659 17.7168 18.1761C17.12 18.1761 16.5371 18.1761 15.9526 18.1761C15.9526 18.5745 15.9526 18.9595 15.9526 19.3547Z" fill="white"/>
<path d="M10.2833 13.8767C10.2833 15.2162 10.2833 16.5428 10.2833 17.8824C9.46181 17.9392 8.79633 17.6663 8.34965 16.9799C7.88419 16.2651 7.88848 15.5154 8.33249 14.7888C8.73091 14.1362 9.55618 13.7614 10.2833 13.8767Z" fill="white"/>
<path d="M23.6006 13.8594C24.3663 13.8663 24.9594 14.1752 25.3546 14.8117C25.7986 15.5265 25.767 16.2633 25.3267 16.9674C24.9369 17.5911 24.354 17.8914 23.6006 17.8892C23.6006 16.5459 23.6006 15.2198 23.6006 13.8594Z" fill="white"/>
<path d="M11.7872 13.8608H10.1533V17.8891H11.7872V13.8608Z" fill="white"/>
<path d="M23.7726 13.8594H22.1387V17.8876H23.7726V13.8594Z" fill="white"/>
<path d="M18.3134 15.0547H15.4805V19.8808H18.3134V15.0547Z" fill="white"/>
</g>
<rect x="-19.25" y="20.75" width="152.5" height="152.5" rx="6.25" stroke="white" stroke-width="2.5"/>
</g>
<defs>
<clipPath id="clip0_3924_7913">
<rect width="33" height="40" fill="white"/>
</clipPath>
</defs>
</svg>
