<svg width="40" height="40" viewBox="0 0 40 40" fill="none" xmlns="http://www.w3.org/2000/svg">
<g clip-path="url(#clip0_3924_7810)">
<mask id="mask0_3924_7810" style="mask-type:alpha" maskUnits="userSpaceOnUse" x="7" y="10" width="23" height="21">
<path d="M8 29.5H19L20 30L21.5 21.5L29.5 20.5V11H8V29.5Z" fill="white" stroke="white"/>
</mask>
<g mask="url(#mask0_3924_7810)">
<path d="M26.4448 34.5137C26.2 34.6201 25.9626 34.7525 25.7085 34.8278C24.5592 35.168 23.4321 34.6915 22.8409 33.6232C24.1605 32.5351 25.482 31.4454 26.8496 30.3177C27.0662 30.8848 27.3266 31.4143 27.4685 31.9747C27.6621 32.7386 27.4605 33.4465 26.9387 34.0505C26.9148 34.0784 26.903 34.117 26.8857 34.151C26.7383 34.2717 26.5918 34.3925 26.4448 34.5137Z" fill="white"/>
<path d="M32.2781 29.7032C32.0001 29.8123 31.7305 29.9515 31.4433 30.0245C30.8406 30.179 30.2564 30.0705 29.7272 29.7611C29.3128 29.5192 28.929 29.2265 28.5137 28.9434C29.8602 27.833 31.1768 26.7474 32.492 25.6629C33.2965 26.2104 33.6585 27.406 33.2727 28.3818C33.1337 28.7343 32.8822 29.0421 32.6819 29.3703C32.5471 29.4814 32.4129 29.5921 32.2781 29.7032Z" fill="white"/>
<path d="M27.0352 18.5741C26.5986 18.9341 26.1728 19.2852 25.723 19.6561C27.6266 21.3347 29.5118 22.9971 31.4099 24.6711C30.0428 25.7984 28.688 26.9155 27.3106 28.0513C26.5581 27.5071 25.7958 26.956 25.0331 26.4045C25.0194 26.4158 25.0052 26.4275 24.9915 26.4388C25.3855 27.2869 25.7794 28.1351 26.1767 28.9912C24.813 30.1157 23.4582 31.2329 22.0774 32.3715C20.8003 30.1968 19.5287 28.0318 18.239 25.8347C17.8587 26.1482 17.4912 26.4513 17.1149 26.7616C16.0927 25.5219 15.0923 24.3086 14.0761 23.0763C14.5573 22.6795 15.0301 22.2896 15.5358 21.8726C14.0841 21.2991 13.0956 20.3089 12.5652 18.881C12.176 17.833 12.1313 16.7635 12.4229 15.6826C12.9713 13.6483 14.8347 12.1447 16.9863 12.0136C18.2792 11.9345 19.451 12.2894 20.4699 13.0898C21.4863 13.8882 22.098 14.9445 22.3491 16.2463C22.9146 15.78 23.4492 15.3392 23.9955 14.8887C25.0098 16.1177 26.0102 17.3309 27.0352 18.5741ZM15.6253 18.5152C16.3021 19.4627 17.8119 19.5966 18.7533 18.8096C19.6893 18.0271 19.8347 16.5243 19.0424 15.7041C18.6867 15.9975 18.3295 16.292 17.9747 16.5846C18.1967 17.1053 18.1766 17.3935 17.8922 17.6585C17.4874 18.0351 17.0809 17.9604 16.6955 17.6328C16.3314 17.933 15.9845 18.219 15.6253 18.5152ZM20.3419 22.4033C20.8922 21.9495 21.4204 21.514 21.9506 21.0768C21.6483 20.7103 21.3554 20.355 21.0621 19.9993C20.5182 20.4478 19.99 20.8834 19.4534 21.3258C19.7528 21.6889 20.0425 22.0402 20.3419 22.4033ZM22.2753 24.747C22.8168 24.3006 23.3494 23.8614 23.8874 23.4177C23.586 23.0522 23.2931 22.697 22.9993 22.3407C22.454 22.7904 21.9213 23.2296 21.3872 23.67C21.6874 24.0341 21.9776 24.3859 22.2753 24.747Z" fill="white"/>
<path d="M12.9663 24.0133C13.9756 25.2373 14.9752 26.4496 15.9845 27.6736C15.2766 28.3446 14.4629 28.5966 13.5375 28.3059C12.5736 28.0035 12.0127 27.3152 11.8709 26.3167C11.7433 25.4202 12.215 24.4559 12.9663 24.0133Z" fill="white"/>
<path d="M25.1221 13.9634C25.827 13.3928 26.6017 13.2281 27.4424 13.512C28.3868 13.8306 28.913 14.5277 29.0412 15.5028C29.1549 16.3664 28.8485 17.08 28.1585 17.6457C27.1463 16.4183 26.1471 15.2065 25.1221 13.9634Z" fill="white"/>
<path d="M14.329 22.866L12.8359 24.0972L15.8711 27.778L17.3641 26.5469L14.329 22.866Z" fill="white"/>
<path d="M25.2801 13.8333L23.7871 15.0645L26.8223 18.7453L28.3153 17.5142L25.2801 13.8333Z" fill="white"/>
<path d="M21.1922 19.0393L18.6035 21.1738L22.2399 25.5838L24.8286 23.4493L21.1922 19.0393Z" fill="white"/>
<path d="M26.8484 30.3239L26.1641 28.9949L21.9557 32.1769L22.8549 33.6169L26.8484 30.3239Z" fill="white" stroke="white"/>
<path d="M28.5586 28.9547L27.2949 28.0211L27.4487 27.3592L31.3864 24.6474L32.6531 25.7843L28.5586 28.9547Z" fill="white" stroke="white"/>
</g>
<mask id="mask1_3924_7810" style="mask-type:alpha" maskUnits="userSpaceOnUse" x="29" y="6" width="21" height="14">
<rect x="29.7998" y="6" width="19.6" height="14" fill="white"/>
</mask>
<g mask="url(#mask1_3924_7810)">
<path d="M45.5694 17.8903C45.0917 17.8903 44.6257 17.8903 44.1334 17.8903C44.4718 20.0063 44.8069 22.1019 45.1442 24.212C43.6481 24.212 42.1654 24.212 40.658 24.212C40.4602 23.4532 40.2596 22.6848 40.059 21.9158C40.044 21.9158 40.0285 21.9158 40.0135 21.9158C39.8145 22.6799 39.6156 23.4441 39.4145 24.2152C37.9221 24.2152 36.4394 24.2152 34.9283 24.2152C35.2645 22.1126 35.5991 20.0191 35.9391 17.8951C35.523 17.8951 35.1208 17.8951 34.709 17.8951C34.709 16.5384 34.709 15.2107 34.709 13.862C35.2356 13.862 35.753 13.862 36.3064 13.862C35.6689 12.7086 35.5568 11.5326 35.9783 10.3175C36.2877 9.42572 36.833 8.70501 37.6036 8.15751C39.0536 7.12686 41.0752 7.14831 42.5472 8.21864C43.432 8.86159 44.0047 9.72226 44.2385 10.791C44.4718 11.857 44.3028 12.8737 43.7671 13.8567C44.386 13.8567 44.971 13.8567 45.5689 13.8567C45.5694 15.2021 45.5694 16.5298 45.5694 17.8903ZM38.1683 11.723C38.1002 12.7037 39.0118 13.6019 40.0478 13.595C41.0779 13.588 41.9799 12.6871 41.9042 11.7273C41.5149 11.7273 41.124 11.7273 40.7358 11.7273C40.6006 12.1857 40.4328 12.3627 40.1052 12.3825C39.6392 12.4104 39.4145 12.1434 39.3394 11.723C38.941 11.723 38.5613 11.723 38.1683 11.723ZM39.1523 16.7894C39.7545 16.7894 40.3325 16.7894 40.9127 16.7894C40.9127 16.3883 40.9127 15.9995 40.9127 15.6102C40.3175 15.6102 39.7394 15.6102 39.1523 15.6102C39.1523 16.0075 39.1523 16.392 39.1523 16.7894ZM39.1528 19.3547C39.7453 19.3547 40.3282 19.3547 40.917 19.3547C40.917 18.9547 40.917 18.5659 40.917 18.1761C40.3202 18.1761 39.7373 18.1761 39.1528 18.1761C39.1528 18.5745 39.1528 18.9595 39.1528 19.3547Z" fill="white"/>
<path d="M33.4835 13.8767C33.4835 15.2162 33.4835 16.5428 33.4835 17.8824C32.662 17.9392 31.9965 17.6663 31.5498 16.9799C31.0844 16.2651 31.0887 15.5154 31.5327 14.7888C31.9311 14.1362 32.7564 13.7614 33.4835 13.8767Z" fill="white"/>
<path d="M34.9874 13.8608H33.3535V17.8891H34.9874V13.8608Z" fill="white"/>
<path d="M41.5136 15.0547H38.6807V19.8808H41.5136V15.0547Z" fill="white"/>
</g>
<mask id="mask2_3924_7810" style="mask-type:alpha" maskUnits="userSpaceOnUse" x="6" y="30" width="14" height="21">
<rect x="6" y="50.5996" width="19.6" height="14" transform="rotate(-90 6 50.5996)" fill="white"/>
</mask>
<g mask="url(#mask2_3924_7810)">
<path d="M17.8907 34.83C17.8907 35.3078 17.8907 35.7738 17.8907 36.266C20.0067 35.9277 22.1024 35.5925 24.2125 35.2552C24.2125 36.7513 24.2125 38.234 24.2125 39.7414C23.4537 39.9393 22.6853 40.1398 21.9163 40.3404C21.9163 40.3554 21.9163 40.3709 21.9163 40.3859C22.6804 40.5849 23.4446 40.7838 24.2157 40.9849C24.2157 42.4773 24.2157 43.96 24.2157 45.4711C22.1131 45.1349 20.0196 44.8003 17.8956 44.4603C17.8956 44.8764 17.8956 45.2786 17.8956 45.6904C16.5389 45.6904 15.2112 45.6904 13.8625 45.6904C13.8625 45.1638 13.8625 44.6464 13.8625 44.093C12.7091 44.7306 11.5331 44.8426 10.318 44.4212C9.42621 44.1117 8.7055 43.5664 8.158 42.7958C7.12735 41.3458 7.1488 39.3242 8.21913 37.8522C8.86208 36.9674 9.72275 36.3947 10.7915 36.1609C11.8575 35.9277 12.8742 36.0966 13.8572 36.6323C13.8572 36.0135 13.8572 35.4284 13.8572 34.8305C15.2026 34.83 16.5303 34.83 17.8907 34.83ZM11.7235 42.2311C12.7042 42.2993 13.6024 41.3876 13.5955 40.3516C13.5885 39.3215 12.6876 38.4196 11.7277 38.4952C11.7277 38.8845 11.7277 39.2754 11.7277 39.6636C12.1862 39.7988 12.3632 39.9666 12.383 40.2943C12.4109 40.7602 12.1439 40.9849 11.7235 41.06C11.7235 41.4584 11.7235 41.8381 11.7235 42.2311ZM16.7898 41.2471C16.7898 40.645 16.7898 40.0669 16.7898 39.4867C16.3887 39.4867 16 39.4867 15.6107 39.4867C15.6107 40.0819 15.6107 40.66 15.6107 41.2471C16.008 41.2471 16.3925 41.2471 16.7898 41.2471ZM19.3552 41.2466C19.3552 40.6541 19.3552 40.0712 19.3552 39.4824C18.9552 39.4824 18.5664 39.4824 18.1766 39.4824C18.1766 40.0792 18.1766 40.6621 18.1766 41.2466C18.575 41.2466 18.96 41.2466 19.3552 41.2466Z" fill="white"/>
<path d="M13.8604 33.5996C13.8673 32.8339 14.1762 32.2408 14.8127 31.8456C15.5275 31.4016 16.2643 31.4332 16.9684 31.8735C17.592 32.2633 17.8923 32.8462 17.8902 33.5996C16.5469 33.5996 15.2208 33.5996 13.8604 33.5996Z" fill="white"/>
<path d="M13.8604 33.4266V35.0605H17.8886V33.4266H13.8604Z" fill="white"/>
<path d="M15.0557 38.8863V41.7192H19.8818V38.8863H15.0557Z" fill="white"/>
</g>
<rect x="20.75" y="20.75" width="152.5" height="152.5" rx="6.25" stroke="white" stroke-width="2.5"/>
</g>
<defs>
<clipPath id="clip0_3924_7810">
<rect width="40" height="40" fill="white"/>
</clipPath>
</defs>
</svg>
