<svg width="92" height="92" viewBox="0 0 92 92" fill="none" xmlns="http://www.w3.org/2000/svg">
<path fill-rule="evenodd" clip-rule="evenodd" d="M17.3584 0H0V39.058V49.8453V92H37.4168H92V38.9984V0H17.3584ZM17.3584 0C18.0844 0 18.7764 0.184226 19.4266 0.492406C19.8994 0.707832 20.3498 0.962111 20.8029 1.21792C20.9562 1.30448 21.1099 1.39121 21.2648 1.47668C21.2934 1.488 21.3154 1.50899 21.3477 1.53965C21.3721 1.56284 21.4023 1.59156 21.4456 1.62581C21.3921 1.62174 21.3471 1.61934 21.3077 1.61724C21.2509 1.6142 21.2059 1.6118 21.1643 1.60593C21.1041 1.6022 21.0438 1.59428 20.9835 1.58635C20.8831 1.57315 20.7826 1.55995 20.6822 1.56616C20.19 1.59599 19.8786 1.93402 19.8685 2.42118V2.75922C19.8419 2.74491 19.8155 2.73055 19.7892 2.71626C19.4679 2.54185 19.1666 2.37825 18.8138 2.46095C18.4221 2.55043 18.2112 2.8487 18.0504 3.21656C17.9902 3.21656 17.9299 3.21545 17.8696 3.21435C17.7491 3.21214 17.6286 3.20993 17.508 3.21656C17.0661 3.25633 16.5035 3.56453 16.4332 4.19089C16.4035 4.42642 16.3835 4.42946 16.1318 4.46775L16.1218 4.46927C15.4589 4.55875 14.816 4.73771 14.2435 5.10557C14.0627 5.21493 13.8819 5.29447 13.6709 5.2547C13.0984 5.15528 12.566 5.30441 12.0537 5.56291C12.01 5.58022 11.9662 5.60508 11.9092 5.63747C11.9008 5.64228 11.892 5.64725 11.883 5.65238C11.7725 5.56291 11.662 5.4635 11.5515 5.36409L11.5515 5.36406C11.0794 4.94649 10.6475 4.90672 10.1151 5.21493C10.0146 5.27458 9.91418 5.33424 9.81374 5.40383C9.7595 5.37541 9.70628 5.34549 9.65342 5.31577C9.37346 5.15836 9.10387 5.00679 8.74899 5.11551C8.46852 5.19587 8.31279 5.40506 8.1463 5.62869C8.08621 5.70941 8.02472 5.79201 7.95545 5.87111C7.91917 5.80527 7.88652 5.75384 7.85752 5.70814C7.83835 5.67795 7.82077 5.65025 7.80478 5.62256C7.5838 5.22487 7.2021 5.07574 6.77017 5.2547C6.6182 5.31319 6.48043 5.39978 6.34491 5.48495C6.3192 5.50111 6.29357 5.51722 6.26793 5.53308L6.02686 5.69215C6.05061 5.62947 6.06968 5.57605 6.08652 5.52886C6.11244 5.45627 6.13309 5.3984 6.15744 5.34418C6.67977 4.39967 7.26237 3.48499 8.08604 2.76916C8.27258 2.60582 8.48475 2.46785 8.69693 2.32988C8.78179 2.27469 8.86666 2.2195 8.94989 2.16269C9.1106 2.05332 9.24118 2.08315 9.38181 2.2124C9.42915 2.25565 9.47616 2.29923 9.52315 2.34279C9.73534 2.53949 9.9469 2.73561 10.1854 2.89841C11.0292 3.47505 11.893 4.04176 12.7569 4.59852C12.7769 4.60846 12.797 4.60846 12.8372 4.60846C12.8449 4.55887 12.8556 4.50928 12.8664 4.45913C12.8837 4.37857 12.9013 4.29656 12.9075 4.21077C12.9075 4.15534 12.8642 4.09132 12.8258 4.03467C12.8229 4.03036 12.82 4.02609 12.8171 4.02187C12.7999 4.0005 12.7789 3.98097 12.7582 3.9617C12.7307 3.93613 12.7037 3.91102 12.6865 3.88268C12.556 3.69378 12.6564 3.50488 12.8673 3.51482C13.008 3.52476 13.1586 3.56453 13.2993 3.61424C13.5805 3.72361 13.6107 3.71366 13.8015 3.46511C13.8919 3.3458 14.0024 3.24638 14.1229 3.16685C14.3037 3.04754 14.4745 3.14696 14.4645 3.36569C14.4583 3.45657 14.4373 3.54377 14.415 3.63627C14.4007 3.69555 14.3858 3.75701 14.3741 3.82303C14.4135 3.89001 14.4562 3.96327 14.5055 4.04807C14.5441 4.1143 14.5868 4.18758 14.6352 4.27043C14.7007 4.17791 14.767 4.08731 14.8329 3.99744C14.9794 3.79756 15.1232 3.60127 15.248 3.39552C15.8607 2.39136 16.4332 1.37726 16.7948 0.253795C16.8652 0.0450094 16.9154 0.0151829 17.1464 0.00524073C17.2174 0.00172865 17.288 0 17.3584 0ZM92 38.9984C91.9263 38.9938 91.861 38.9913 91.8004 38.9891C91.7287 38.9863 91.6635 38.9839 91.5982 38.9785C91.4407 38.9556 91.2838 38.9332 91.1271 38.9108C90.6043 38.8362 90.0847 38.7621 89.5591 38.6703C89.2879 38.6206 89.1473 38.72 88.9866 38.9089C88.6076 39.329 88.223 39.7377 87.8369 40.148C87.7113 40.2815 87.5855 40.4151 87.4598 40.5493C87.4519 40.5571 87.4319 40.5649 87.3995 40.5774C87.3904 40.5809 87.3804 40.5848 87.3694 40.5891C87.3543 40.5245 87.3367 40.4599 87.3192 40.3952C87.3016 40.3306 87.284 40.266 87.2689 40.2014C87.1484 39.5253 87.0278 38.8393 86.9274 38.1632C86.8973 37.9843 86.8069 37.9147 86.6562 37.8451C85.9932 37.5468 85.3303 37.2486 84.6573 36.9503C84.6157 36.9268 84.5707 36.9033 84.5138 36.8736C84.4744 36.8531 84.4294 36.8296 84.376 36.8012C84.6717 36.6448 84.9592 36.4901 85.2425 36.3376C85.6618 36.112 86.0718 35.8913 86.4854 35.6777C86.7265 35.5584 86.837 35.4093 86.8671 35.1508C86.9073 34.7067 86.9564 34.2626 87.0055 33.8185C87.0301 33.5965 87.0546 33.3744 87.0781 33.1524C87.0833 33.1003 87.0941 33.0482 87.1061 32.9904C87.1169 32.9379 87.1288 32.8806 87.1383 32.8144C87.2297 32.8986 87.3171 32.9779 87.4015 33.0544C87.5862 33.222 87.7564 33.3764 87.9218 33.5401C88.2834 33.8881 88.6451 34.2361 88.9966 34.594C89.109 34.7145 89.2301 34.6881 89.3599 34.6598C89.3693 34.6577 89.3788 34.6557 89.3884 34.6536L89.389 34.6535C90.0517 34.5144 90.7145 34.3752 91.3672 34.2261C91.4514 34.2069 91.5356 34.1918 91.6413 34.1728C91.6996 34.1624 91.7644 34.1508 91.8393 34.1367C91.8184 34.1869 91.8002 34.2318 91.7836 34.2728C91.7442 34.3698 91.7139 34.4446 91.6786 34.5145L91.6785 34.5147C91.3872 35.1211 91.0959 35.7275 90.7846 36.314C90.654 36.5526 90.7042 36.7316 90.8248 36.9304C91.1964 37.5667 91.5681 38.203 91.9297 38.8393C91.9413 38.8566 91.9496 38.8772 91.9623 38.9089C91.9715 38.9319 91.9831 38.9607 92 38.9984ZM37.4168 92C37.4104 91.9657 37.4041 91.9352 37.3985 91.9078C37.386 91.8479 37.3766 91.8023 37.3766 91.7614C37.3766 91.6587 37.3755 91.5559 37.3743 91.4532C37.3721 91.2477 37.3699 91.0422 37.3766 90.8368C37.3866 90.628 37.3263 90.4888 37.1255 90.3695C36.8752 90.2257 36.6379 90.0562 36.3719 89.8661C36.3069 89.8197 36.2402 89.772 36.1712 89.7232C36.2044 89.7081 36.2343 89.6942 36.2618 89.6815C36.3426 89.644 36.4025 89.6162 36.4625 89.594C36.548 89.5686 36.6326 89.5424 36.717 89.5164C36.9299 89.4505 37.1406 89.3854 37.3565 89.3355C37.5473 89.2858 37.6377 89.1864 37.6779 88.9875C37.7393 88.7443 37.8147 88.5057 37.8945 88.253C37.9321 88.1338 37.9708 88.0114 38.0094 87.8839C38.0456 87.9198 38.0778 87.9476 38.1058 87.9718C38.14 88.0014 38.1681 88.0257 38.1902 88.053C38.2249 88.1011 38.2596 88.1489 38.2943 88.1966C38.4599 88.4247 38.6232 88.6496 38.7728 88.8881C38.8531 89.0174 38.9436 89.0571 39.0942 89.0472C39.4257 89.0273 39.7572 89.0173 40.0887 89.0074H40.39C40.3396 89.0823 40.305 89.1415 40.2738 89.1949C40.2553 89.2266 40.2379 89.2562 40.2192 89.2858C40.0384 89.5343 39.8576 89.7829 39.6567 90.0215C39.5462 90.1607 39.5261 90.29 39.5965 90.459C39.6792 90.6748 39.7506 90.8906 39.8235 91.1106C39.8479 91.1845 39.8726 91.2589 39.8978 91.3339C39.9182 91.3809 39.9248 91.4279 39.9331 91.4871C39.9371 91.5156 39.9415 91.5469 39.948 91.5824C39.8816 91.566 39.8304 91.5526 39.7844 91.5405C39.7469 91.5307 39.7129 91.5218 39.6768 91.5128C39.6221 91.496 39.5677 91.4796 39.5136 91.4632C39.2798 91.3924 39.0514 91.3233 38.823 91.2345C38.6523 91.1649 38.5217 91.1847 38.381 91.3041C38.2404 91.4234 38.0909 91.5338 37.9413 91.6443C37.8665 91.6995 37.7918 91.7548 37.7181 91.8111C37.6593 91.8548 37.595 91.8931 37.5136 91.9417C37.4838 91.9595 37.4517 91.9787 37.4168 92ZM0 49.8453C0.0240406 49.8152 0.0472843 49.7861 0.0698516 49.7578C0.226438 49.5617 0.350457 49.4064 0.482149 49.2587C0.65291 49.0797 0.713178 48.9008 0.592641 48.6621C0.529963 48.5458 0.491729 48.4174 0.454107 48.291C0.443494 48.2554 0.43293 48.2199 0.42188 48.1849C0.409509 48.1543 0.408565 48.1162 0.40732 48.0658C0.406544 48.0344 0.40565 47.9983 0.401791 47.9563C0.496148 47.9952 0.587428 48.028 0.675027 48.0595C0.811237 48.1085 0.938549 48.1542 1.0547 48.2148C1.28573 48.3341 1.47658 48.3142 1.66743 48.1452C1.77741 48.0491 1.89571 47.9696 2.02504 47.8826C2.09652 47.8345 2.17136 47.7842 2.25003 47.7276C2.25541 47.7542 2.26079 47.7787 2.26579 47.8015C2.27944 47.8636 2.29021 47.9126 2.29021 47.9563C2.28776 48.0119 2.28473 48.068 2.28168 48.1245C2.27217 48.3004 2.26251 48.4791 2.27012 48.6522C2.27012 48.7317 2.33039 48.8312 2.4007 48.8809C2.49187 48.9582 2.58726 49.023 2.68413 49.0888C2.73668 49.1246 2.78968 49.1606 2.84267 49.199C2.92303 49.2587 3.00338 49.3283 3.13397 49.4476C3.04284 49.4719 2.95905 49.4974 2.87961 49.5215C2.73138 49.5666 2.5983 49.6071 2.46097 49.6265C2.20985 49.6762 2.02904 49.7657 1.97882 50.0441C1.9412 50.1868 1.88402 50.3218 1.82193 50.4684C1.78453 50.5566 1.74536 50.6491 1.70761 50.75C1.64641 50.6548 1.58901 50.5709 1.53542 50.4926C1.46587 50.3909 1.40273 50.2986 1.346 50.2032C1.18528 49.9347 0.974342 49.7856 0.63282 49.8453C0.516739 49.8644 0.396517 49.859 0.256205 49.8526C0.177971 49.8491 0.0934907 49.8453 0 49.8453ZM0 39.058C0.0602686 39.0083 0.120537 38.9586 0.190851 38.9188C0.672999 38.6603 1.15515 38.4018 1.64734 38.1632C1.89846 38.0439 1.98886 37.8749 2.00895 37.5866C2.03971 37.1375 2.09992 36.6884 2.16251 36.2215C2.18167 36.0785 2.20106 35.9339 2.21989 35.7871C2.24604 35.8026 2.27015 35.8161 2.29221 35.8285C2.3549 35.8636 2.40111 35.8895 2.43083 35.9262C2.84267 36.3239 3.26455 36.7316 3.66634 37.1392C3.80697 37.2784 3.93755 37.3082 4.1284 37.2684C4.70095 37.1392 5.28355 37.0298 5.86614 36.9205C5.91637 36.9105 5.96659 36.9105 6.08713 36.9105C6.04236 37.0037 5.99829 37.0958 5.95473 37.1868C5.71484 37.6879 5.48989 38.1578 5.24337 38.6206C5.13287 38.8294 5.14292 38.9785 5.25341 39.1773C5.44763 39.5021 5.63291 39.8269 5.8182 40.1517C5.91082 40.3141 6.00344 40.4765 6.09717 40.6388C6.13162 40.6797 6.14716 40.7253 6.16649 40.782C6.17535 40.808 6.185 40.8363 6.19762 40.8675C6.10413 40.8543 6.01655 40.845 5.93315 40.8361C5.82838 40.825 5.73019 40.8145 5.63511 40.7979C5.53086 40.7844 5.42712 40.7715 5.32377 40.7586C4.96908 40.7143 4.61905 40.6706 4.26903 40.609C4.04804 40.5692 3.91746 40.609 3.78688 40.7681C3.49836 41.0987 3.2041 41.418 2.90844 41.7389C2.81295 41.8425 2.71732 41.9463 2.62168 42.0506C2.5949 42.0838 2.55919 42.1081 2.52348 42.1324C2.50562 42.1445 2.48776 42.1567 2.47101 42.1699C2.3631 42.1013 2.35574 41.9975 2.34908 41.9035C2.34706 41.875 2.3451 41.8474 2.34043 41.8219C2.32102 41.7131 2.30115 41.6038 2.28122 41.4941C2.20829 41.0929 2.13449 40.6869 2.07927 40.2809C2.04913 40.0622 1.92859 39.9528 1.73774 39.8733C1.30818 39.6911 0.884475 39.503 0.457681 39.3137C0.325594 39.255 0.193212 39.1963 0.0602686 39.1376C0.0478526 39.1314 0.0392733 39.1177 0.0274171 39.0987C0.0200895 39.087 0.0115103 39.0732 0 39.058ZM3.11024 78.7948C3.31714 78.7165 3.51685 78.641 3.71656 78.5681C3.99782 79.0454 4.52014 80.4074 4.5101 80.6162C4.46494 80.5894 4.42181 80.5626 4.37432 80.5331C4.31618 80.4969 4.25151 80.4567 4.16858 80.4074C3.99782 81.4017 3.84715 82.3462 3.70652 83.3006C3.57594 84.2451 3.46544 85.1996 3.4554 86.1938C3.49207 86.1836 3.52789 86.1737 3.56294 86.1639C3.76791 86.107 3.9468 86.0573 4.11835 86.0148C4.39961 85.9353 4.4197 85.9452 4.53019 86.2037C4.59782 86.3667 4.66632 86.5297 4.73492 86.6929C4.90065 87.0873 5.06699 87.4831 5.22328 87.8839C5.40408 88.3512 5.58237 88.8185 5.76066 89.2858C5.93896 89.7531 6.11726 90.2203 6.29807 90.6876C6.39852 90.9461 6.41861 90.966 6.69986 90.9362C6.75008 90.9362 6.81035 90.9262 6.86057 90.9163C7.29247 90.8335 7.72547 90.7539 8.15848 90.6744C9.0246 90.5153 9.89071 90.3562 10.7479 90.1706C12.4503 89.7979 14.1526 89.4083 15.855 89.0188C16.4227 88.8888 16.9905 88.7589 17.5583 88.6296C17.7089 88.5998 17.7692 88.5401 17.7792 88.3811C17.8094 88.043 17.842 87.705 17.8747 87.367C17.9073 87.0289 17.94 86.6909 17.9701 86.3529C18.0153 85.8607 18.058 85.3685 18.1007 84.8764C18.1434 84.3843 18.186 83.8922 18.2312 83.4C18.2513 83.1127 18.2613 83.1117 18.5496 83.0822L18.5527 83.0819C18.6732 83.067 18.7937 83.0496 18.9142 83.0322C19.0347 83.0148 19.1553 82.9974 19.2759 82.9825C19.1252 82.2865 16.8551 78.071 16.4634 77.7728C16.4232 77.8324 16.3855 77.8921 16.3478 77.9518C16.3102 78.0114 16.2725 78.0711 16.2323 78.1307C16.2273 78.1307 16.2198 78.1282 16.2122 78.1257C16.2047 78.1232 16.1972 78.1208 16.1922 78.1208V75.2574C16.6442 75.2176 17.0761 75.1878 17.5683 75.158C16.3529 73.2789 14.9968 71.5888 13.5403 69.9682C13.4801 69.8986 13.3997 69.829 13.2892 69.7395C12.566 70.9624 11.893 72.1654 11.2702 73.4082C11.2011 72.9905 11.1215 72.5755 11.0418 72.1602C10.9014 71.4288 10.7609 70.6966 10.6776 69.9483C10.8885 69.9085 11.0492 69.8787 11.22 69.8489C11.3104 69.834 11.4009 69.8166 11.4913 69.7992C11.5817 69.7818 11.6721 69.7644 11.7624 69.7495C11.7851 69.7467 11.808 69.7438 11.8312 69.741C11.9718 69.7238 12.1209 69.7055 12.2847 69.6799C12.2345 69.5904 12.2044 69.5407 12.1743 69.5009C11.96 69.2259 11.748 68.9486 11.5359 68.6714C11.1118 68.1168 10.6877 67.5622 10.2457 67.0253C9.41195 66.0212 8.51796 65.0766 7.55366 64.1918C7.16193 63.8264 6.75325 63.4778 6.34456 63.1293C6.20832 63.0131 6.07207 62.8968 5.93646 62.78C5.9248 62.7699 5.91315 62.759 5.90125 62.7478C5.8311 62.682 5.75243 62.6083 5.61502 62.6508C4.78131 65.703 4.11835 68.795 3.7467 72.0063C4.03862 71.9047 4.31018 71.8087 4.5786 71.714C4.80892 71.6326 5.03693 71.5521 5.2735 71.4694C5.34898 71.6936 5.42591 71.9134 5.50235 72.1318C5.71072 72.7273 5.91541 73.3122 6.07708 73.9451C5.36426 73.4879 4.71164 73.0705 4.05906 72.6532L4.05809 72.6526C3.82706 72.9906 2.7824 77.0768 2.52124 78.767C2.51487 78.8111 2.51658 78.8553 2.51868 78.9096C2.51989 78.9409 2.52124 78.9755 2.52124 79.0155C2.72717 78.9397 2.92169 78.8661 3.11024 78.7948ZM9.91418 73.9351C10.0347 74.5018 10.1352 75.0486 10.2256 75.6352C9.90414 75.7048 9.61284 75.7744 9.32154 75.844C9.24692 75.5145 9.17231 75.198 9.09769 74.8814C9.04173 74.6441 8.98576 74.4066 8.9298 74.1638C9.2188 74.0923 9.49967 74.0288 9.80894 73.9589L9.91418 73.9351ZM8.94624 75.2327C8.99339 75.4523 9.04062 75.6722 9.10056 75.8937C8.98701 75.9237 8.87488 75.9522 8.76203 75.981C8.5754 76.0285 8.38679 76.0766 8.18648 76.1323C8.13627 75.9501 8.08717 75.7701 8.03808 75.59C7.93985 75.2299 7.84163 74.8697 7.73447 74.4919C7.96274 74.4283 8.18088 74.3698 8.40688 74.3092C8.49911 74.2844 8.59265 74.2593 8.68872 74.2334C8.80365 74.5686 8.87486 74.9003 8.94624 75.2327ZM9.83631 73.5771L9.86396 73.7064C9.68334 73.7552 9.50868 73.798 9.33186 73.8414C9.18418 73.8777 9.035 73.9143 8.87957 73.955C8.75911 73.4681 8.63865 72.9912 8.50816 72.4746L8.50792 72.4736C8.72248 72.419 8.92581 72.3718 9.13619 72.323C9.27053 72.2918 9.40774 72.2599 9.55257 72.2251C9.64458 72.6804 9.73659 73.1107 9.83631 73.5771ZM7.30254 72.8315C7.64407 72.7023 7.9655 72.6227 8.31707 72.5432C8.42756 73.0304 8.53805 73.4977 8.65859 74.0047C8.52392 74.0422 8.39278 74.0779 8.26 74.1141C8.07584 74.1643 7.88852 74.2154 7.68425 74.2731C7.61033 73.9805 7.53264 73.6916 7.45349 73.3973C7.40356 73.2116 7.35305 73.0238 7.30254 72.8315ZM10.8549 86.4455C10.9383 86.428 11.023 86.4103 11.1095 86.3926C11.1903 86.8644 11.2581 87.3234 11.3286 87.8006C11.3457 87.9166 11.363 88.0337 11.3807 88.1524C11.2865 88.1686 11.1939 88.1881 11.1017 88.2076C10.9678 88.2359 10.8345 88.264 10.6977 88.2816C10.6475 88.2916 10.547 88.222 10.537 88.1723C10.4365 87.6652 10.3361 87.1482 10.2457 86.6412C10.2457 86.6312 10.2557 86.6014 10.2758 86.5616C10.4665 86.5267 10.6572 86.4868 10.8549 86.4455ZM12.3249 87.0388C12.3576 87.3271 12.3902 87.6155 12.4254 87.9138C12.2847 87.9436 12.1542 87.9734 12.0236 88.0033C11.893 88.0331 11.7624 88.0629 11.6218 88.0927C11.5213 87.5061 11.4309 86.9295 11.3405 86.333C11.5303 86.2941 11.7159 86.2595 11.9082 86.2235C12.0111 86.2043 12.116 86.1847 12.2245 86.164C12.2596 86.4622 12.2923 86.7505 12.3249 87.0388ZM10.2557 84.7721C10.3762 84.603 10.537 84.4837 10.778 84.4241C10.7965 84.5321 10.815 84.6394 10.8335 84.7464C10.9151 85.2204 10.9956 85.6872 11.0693 86.1739C11.0185 86.1853 10.969 86.1964 10.9204 86.2072C10.6718 86.263 10.4492 86.3129 10.2055 86.3628C10.0849 86.0049 9.9845 85.6569 9.99454 85.299C10.0039 85.1325 10.1262 84.9575 10.2321 84.8058C10.2401 84.7944 10.248 84.7832 10.2557 84.7721ZM11.3004 86.1441C11.1999 85.5575 11.0995 85.0007 10.989 84.4042C11.3807 84.3744 11.6519 84.5036 11.903 84.6925C11.9734 84.7323 12.0336 84.8218 12.0437 84.8914C12.0817 85.1045 12.1077 85.3176 12.1343 85.5357C12.1499 85.6635 12.1657 85.7931 12.1843 85.9253C11.9931 85.971 11.8105 86.0167 11.6167 86.0652C11.5153 86.0906 11.4108 86.1167 11.3004 86.1441ZM14.2033 79.1647C14.1732 78.7769 14.1531 78.4091 14.133 78.0412C14.1975 78.0324 14.26 78.0236 14.3209 78.015C14.5354 77.9848 14.731 77.9573 14.9265 77.9418C15.037 78.2699 15.0571 78.6377 14.9968 79.0752C14.7457 79.105 14.4846 79.1349 14.2033 79.1647ZM13.1888 79.3138C13.1386 78.936 13.0984 78.588 13.0582 78.1903C13.1155 78.183 13.171 78.1761 13.2254 78.1692C13.4667 78.1389 13.6843 78.1116 13.922 78.071C13.9286 78.2001 13.9404 78.325 13.952 78.4477C13.9761 78.7031 13.9994 78.9493 13.9723 79.2045C13.8367 79.2243 13.7086 79.2417 13.5805 79.2591C13.4525 79.2765 13.3244 79.2939 13.1888 79.3138ZM14.0928 77.8125V76.7984C14.2598 76.774 14.4268 76.7532 14.6008 76.7317C14.7094 76.7182 14.8208 76.7044 14.9366 76.6891V77.6932C14.8224 77.7106 14.7062 77.7261 14.5856 77.7422C14.4305 77.7629 14.268 77.7846 14.0928 77.8125ZM13.8618 77.1618C13.8752 77.3828 13.8886 77.6037 13.902 77.8424C13.7282 77.8731 13.5583 77.9 13.3827 77.9278C13.2741 77.945 13.1633 77.9626 13.0482 77.9816C13.0319 77.7883 13.0127 77.6067 12.9937 77.4273C12.9776 77.2744 12.9616 77.123 12.9477 76.9675C13.084 76.9457 13.2145 76.9259 13.3434 76.9062C13.5091 76.881 13.6722 76.8562 13.8417 76.8283C13.8484 76.9409 13.8551 77.0514 13.8618 77.1618ZM7.82509 80.7425C7.84816 80.8256 7.87139 80.9092 7.89519 80.994C7.63402 81.0636 7.40299 81.1332 7.14183 81.2227C7.02129 80.8648 6.9108 80.5268 6.79026 80.149C6.84249 80.135 6.89432 80.1211 6.94615 80.1072C7.15348 80.0515 7.3608 79.9958 7.59384 79.9402C7.67816 80.2133 7.75078 80.4748 7.82509 80.7425ZM5.94463 80.9049C5.89519 80.7544 5.84471 80.6008 5.77574 80.4472C5.88632 80.4133 5.98967 80.3821 6.09072 80.3517C6.25586 80.302 6.41488 80.2542 6.58937 80.1987C6.67635 80.4804 6.75712 80.7499 6.84145 81.0313C6.86424 81.1073 6.88729 81.1842 6.9108 81.2625C6.71075 81.3179 6.52982 81.3734 6.33247 81.4338C6.28209 81.4493 6.23064 81.465 6.17753 81.4812C6.07432 81.2996 6.01039 81.105 5.94463 80.9049ZM6.74004 79.9402C6.63959 79.6419 6.53914 79.3436 6.42865 79.0056C6.74004 78.9161 6.99116 78.8465 7.27241 78.7769C7.34514 79.0145 7.40734 79.2364 7.47045 79.4616C7.4945 79.5474 7.51868 79.6337 7.54362 79.7214C7.40299 79.7612 7.27241 79.796 7.14183 79.8308C7.01124 79.8656 6.88066 79.9004 6.74004 79.9402ZM5.96895 79.1353C6.0477 79.1132 6.12727 79.0908 6.20766 79.0653C6.23885 79.1551 6.26844 79.2417 6.29756 79.327C6.37159 79.5437 6.44258 79.7516 6.5291 79.9799C6.38568 80.0236 6.2453 80.0673 6.09963 80.1126C5.98002 80.1498 5.85685 80.1881 5.72552 80.2285C5.67688 80.1016 5.63019 79.9747 5.58287 79.846C5.5227 79.6825 5.46152 79.5162 5.39404 79.3436C5.58055 79.2442 5.77219 79.1905 5.96895 79.1353ZM15.6397 87.1582V86.0248C15.7802 85.9983 15.9119 85.9718 16.0435 85.9453C16.1094 85.932 16.1753 85.9187 16.2424 85.9055V87.009C16.0515 87.0588 15.8607 87.1085 15.6397 87.1582ZM16.9141 85.7828C16.9688 85.775 17.0256 85.7669 17.0861 85.7563C17.0861 85.8203 17.0866 85.8838 17.087 85.9471C17.0886 86.1984 17.0901 86.4446 17.0661 86.6909C17.0661 86.7505 16.9857 86.85 16.9254 86.8699C16.833 86.905 16.7305 86.9253 16.6143 86.9482C16.5664 86.9577 16.5162 86.9676 16.4634 86.9792C16.4634 86.6213 16.4634 86.3031 16.4734 85.9751C16.4835 85.9253 16.5638 85.8558 16.6241 85.8359C16.7213 85.8102 16.8144 85.797 16.9141 85.7828ZM16.26 85.5925C16.2575 85.6269 16.255 85.6616 16.2524 85.6967C16.0515 85.7265 15.8707 85.7663 15.6497 85.816C15.6149 85.6203 15.617 85.4314 15.6191 85.2413C15.6207 85.103 15.6223 84.9642 15.6096 84.8218C15.7433 84.8052 15.8647 84.7856 15.984 84.7663C16.0797 84.7509 16.1741 84.7356 16.2725 84.7223C16.2771 84.7584 16.2837 84.7883 16.2896 84.8148C16.2966 84.8469 16.3027 84.8741 16.3027 84.9013C16.2939 85.1273 16.2774 85.3532 16.26 85.5925ZM7.77635 88.0282C7.85042 88.2654 7.92647 88.5089 7.95545 88.7887C7.78358 88.8042 7.65424 88.8196 7.52489 88.8351C7.48794 88.8395 7.45098 88.8439 7.41304 88.8483C7.35779 88.6793 7.30254 88.5153 7.24729 88.3512C7.19205 88.1872 7.1368 88.0231 7.08156 87.8541C7.28245 87.7646 7.46326 87.705 7.69429 87.7547C7.71947 87.8461 7.74776 87.9367 7.77635 88.0282ZM6.54919 87.9237C6.64713 87.9038 6.74506 87.8839 6.85053 87.8641C6.87941 87.955 6.90759 88.0446 6.93564 88.1337C7.01489 88.3856 7.09297 88.6337 7.18201 88.898C7.0816 88.9179 6.99123 88.9378 6.90087 88.9577C6.81043 88.9776 6.71999 88.9975 6.6195 89.0173C6.55032 88.8176 6.48114 88.6277 6.41006 88.4326C6.35729 88.2878 6.30348 88.1401 6.24784 87.9834C6.35331 87.9635 6.45125 87.9436 6.54919 87.9237ZM16.5035 85.637V84.6627C16.5904 84.6477 16.673 84.6342 16.7535 84.621C16.887 84.5991 17.0148 84.5781 17.1464 84.5533V85.5078C16.9254 85.5475 16.7245 85.5873 16.5035 85.637ZM6.87952 87.2486C6.81845 87.0661 6.75593 86.8792 6.68981 86.671C6.8737 86.6314 7.02577 86.6045 7.19161 86.5751C7.23412 86.5675 7.27754 86.5598 7.32263 86.5517C7.37469 86.7234 7.43007 86.8919 7.48686 87.0646C7.52871 87.1919 7.57132 87.3215 7.61393 87.4564C7.41304 87.5061 7.22219 87.5559 7.0012 87.6155C6.96086 87.4917 6.92051 87.3711 6.87952 87.2486ZM6.0427 87.4674C5.97439 87.2795 5.90729 87.095 5.83601 86.8897C6.07708 86.8301 6.26793 86.7903 6.47887 86.7505C6.5291 86.9096 6.57933 87.0613 6.62956 87.2129C6.67978 87.3645 6.73 87.5161 6.78022 87.6752C6.68646 87.692 6.59813 87.7071 6.51139 87.7219C6.39368 87.742 6.27889 87.7616 6.15744 87.7845C6.11823 87.6751 6.08028 87.5708 6.0427 87.4674ZM78.1885 73.5772C78.1181 73.9749 78.0478 74.3726 78.1483 74.7603C77.5958 75.0089 77.2342 75.0188 76.7219 74.8001C76.6573 74.7727 76.5926 74.7389 76.527 74.7047C76.4499 74.6645 76.3714 74.6235 76.29 74.5913C76.2252 74.5656 76.161 74.538 76.097 74.5104C75.9131 74.4311 75.7304 74.3523 75.5366 74.3228C74.5422 74.1737 73.5679 74.3129 72.7141 74.8498C72.1237 75.2265 71.5635 75.6567 71.0053 76.0853C70.8417 76.2109 70.6782 76.3364 70.5143 76.4604C70.2029 76.699 69.9718 77.0271 69.781 77.3751C69.597 77.7002 69.4398 78.0367 69.2827 78.3729C69.0795 78.8079 68.8764 79.2425 68.6158 79.6518C68.204 80.308 68.0533 81.0537 67.9227 81.7993C67.8423 82.2666 67.772 82.7339 67.8323 83.2211C67.935 83.9837 68.1253 84.7175 68.3161 85.4532C68.3492 85.5806 68.3823 85.7081 68.4149 85.8359C68.656 86.7605 69.0779 87.5658 69.9015 88.1226C69.9774 88.1772 70.0485 88.2364 70.1214 88.2972C70.1547 88.3249 70.1883 88.353 70.223 88.3811C70.4841 88.5898 70.7453 88.7887 71.0165 88.9875C71.8 89.5542 72.694 89.6735 73.6281 89.5443C74.0601 89.4846 74.502 89.415 74.934 89.3454C75.4161 89.2758 75.8782 89.3156 76.3201 89.5244C76.4005 89.5642 76.4909 89.6039 76.5813 89.6437C77.4853 90.0116 78.4094 90.1706 79.3637 89.7928C79.4907 89.7436 79.6238 89.7095 79.7563 89.6755C79.8648 89.6476 79.9729 89.6199 80.0769 89.5841C80.4586 89.4548 80.8101 89.5045 81.1617 89.6835C81.2655 89.7398 81.3704 89.7951 81.4753 89.8503C81.6852 89.9608 81.895 90.0712 82.0959 90.1905C83.0702 90.7672 84.0747 90.8567 85.0993 90.3198C85.3506 90.1895 85.6019 90.0608 85.8526 89.9324C86.2331 89.7374 86.6122 89.5432 86.9877 89.3454C87.4698 89.0969 87.8415 88.7191 88.0524 88.2319C88.4341 87.367 88.7857 86.4821 88.9966 85.5575C89.1473 84.8914 89.2779 84.2253 89.4084 83.5592L89.4085 83.5591C89.4135 83.5326 89.4188 83.5061 89.4241 83.4796C89.4506 83.347 89.4771 83.2144 89.4687 83.0819C89.4654 82.9758 89.4623 82.8698 89.4592 82.7637C89.4439 82.2335 89.4286 81.7032 89.3783 81.173C89.308 80.4671 89.0569 79.8209 88.6651 79.2144C88.4906 78.9495 88.3431 78.6647 88.1952 78.3792C88.0876 78.1716 87.9799 77.9637 87.8616 77.7628L87.8302 77.7085C87.6396 77.3778 87.4457 77.0414 87.1886 76.7587C86.2544 75.7446 85.0993 75.148 83.7332 74.9194C83.4318 74.8597 83.1405 74.8895 82.8492 74.9989C82.6986 75.0586 82.5579 75.1182 82.4073 75.1878C81.6439 75.5259 80.7197 75.3966 80.0467 74.8796C79.8458 74.7305 79.8057 74.7007 79.9162 74.4024C80.0116 74.1439 80.1045 73.8829 80.1974 73.6219C80.2903 73.3609 80.3832 73.1 80.4787 72.8415C80.5188 72.7421 80.559 72.6426 80.5791 72.5432C80.6394 72.2847 80.5791 72.1654 80.3179 72.1356C79.8458 72.0958 79.3737 72.066 78.9016 72.0759C78.5802 72.0859 78.4597 72.2251 78.3894 72.5432C78.3793 72.5931 78.3692 72.6429 78.3591 72.6925C78.2991 72.9884 78.2401 73.2792 78.1885 73.5772ZM74.9923 84.1616C75.0472 84.1823 75.1042 84.2037 75.165 84.2252C75.1348 84.3545 75.1148 84.444 75.1047 84.603C75.34 84.6824 75.5781 84.7393 75.816 84.7961C76.025 84.846 76.234 84.8959 76.4407 84.961C76.4909 84.8218 76.5311 84.7124 76.5813 84.5832C77.7565 84.7919 78.9418 84.8914 80.1371 84.8615C80.142 84.9333 80.1491 84.9958 80.1564 85.0591C80.1642 85.1274 80.1721 85.1966 80.1773 85.2791C80.6394 85.2493 81.0914 85.2195 81.5836 85.1797C81.5811 85.1475 81.5786 85.116 81.5761 85.0844C81.5685 84.9892 81.561 84.894 81.5535 84.782C81.7443 84.7522 81.9352 84.7223 82.116 84.6826C82.357 84.6329 82.5981 84.5782 82.8392 84.5235C83.0803 84.4688 83.3213 84.4141 83.5624 84.3644C83.6215 84.3535 83.6819 84.3438 83.7431 84.3341C83.8486 84.3173 83.9566 84.3001 84.0646 84.2749C84.376 84.2054 84.6874 84.1358 84.9988 84.0562C85.2901 83.9767 85.4207 84.0761 85.3705 84.3644C85.3504 84.5036 85.26 84.6627 85.1595 84.7721C85.0547 84.8819 84.9309 84.9806 84.8067 85.0795C84.7287 85.1417 84.6506 85.2039 84.5769 85.2692C84.5146 85.3213 84.4518 85.3735 84.3887 85.4258C84.1875 85.5928 83.9846 85.7612 83.7934 85.9353C83.2711 86.4225 82.6785 86.8102 82.0456 87.1283C82.0162 87.1429 81.976 87.1521 81.9251 87.1638C81.9064 87.1681 81.8864 87.1727 81.8648 87.1781C81.8347 87.0786 81.8146 86.9892 81.7945 86.8997C81.7644 86.7903 81.7041 86.7307 81.5836 86.7704C81.327 86.8506 81.0659 86.9353 80.8003 87.0215C80.6707 87.0635 80.5401 87.1059 80.4083 87.1482C80.4448 87.3018 80.4813 87.4389 80.5254 87.6043L80.5389 87.6553C78.9418 87.9635 77.405 87.8641 75.8782 87.2874C75.9345 87.1758 75.987 87.0797 76.0428 86.9774C76.0766 86.9156 76.1115 86.8515 76.1494 86.7804C75.9685 86.6702 75.7832 86.5769 75.5967 86.483C75.3794 86.3736 75.1602 86.2633 74.944 86.1242C74.8837 86.2186 74.8285 86.3056 74.7732 86.3926C74.718 86.4796 74.6627 86.5666 74.6025 86.6611C73.9094 86.1242 73.2464 85.5873 72.7643 84.8715L72.7642 84.8713C72.5533 84.5532 72.3424 84.2351 72.1415 83.9071C71.9707 83.6287 71.8402 83.3404 71.81 83.0123C71.8 82.9129 71.8 82.8134 71.8201 82.724C71.8502 82.5748 71.9406 82.5251 72.0812 82.5848C72.1757 82.6207 72.2597 82.6723 72.3445 82.7245C72.377 82.7444 72.4095 82.7644 72.4428 82.7836C72.4931 82.8135 72.5332 82.8433 72.5734 82.883C73.1862 83.5193 73.9797 83.8077 74.7833 84.086C74.8517 84.1086 74.9202 84.1344 74.9923 84.1616ZM76.3101 77.2956C76.4206 77.2757 76.521 77.2657 76.6315 77.2657C76.6617 77.2657 76.6918 77.2657 76.732 77.2757C77.2342 77.3055 77.4251 77.5839 77.2543 78.0512C77.2242 78.1307 77.194 78.2102 77.1438 78.2798C76.8681 78.6501 76.674 79.0671 76.48 79.4837C76.3771 79.7046 76.2743 79.9254 76.1594 80.139C76.069 80.2981 75.9686 80.4671 75.8581 80.6262C75.4663 81.163 74.9239 81.2625 74.3614 80.9046C74.3212 80.8847 74.281 80.8648 74.2509 80.835C73.8776 80.4654 73.4367 80.1776 72.9932 79.8881C72.9236 79.8426 72.8539 79.7971 72.7844 79.7513C72.5935 79.622 72.4228 79.4431 72.2821 79.2641C72.0712 78.9957 72.1114 78.7968 72.3625 78.5681C72.6136 78.3395 72.9049 78.1705 73.2263 78.081C73.8992 77.8921 74.5721 77.7132 75.2449 77.5343L75.2453 77.5342C75.4979 77.4699 75.7505 77.4158 76.0069 77.361C76.1073 77.3395 76.2083 77.3179 76.3101 77.2956ZM83.2253 81.7684C83.1561 81.7872 83.087 81.806 83.02 81.8292C82.6483 81.8093 82.3771 81.6701 82.1863 81.3619C82.0758 81.1829 81.9753 80.994 81.905 80.7952C81.8489 80.6348 81.8044 80.4706 81.7595 80.3049C81.7321 80.2036 81.7045 80.1017 81.674 79.9998L81.6739 79.9995C81.5433 79.5721 81.4128 79.1447 81.2622 78.7272C81.1818 78.4986 81.1215 78.2798 81.1617 78.0412C81.1918 77.8324 81.3224 77.6833 81.5434 77.6932L81.5506 77.6936C81.7696 77.7034 82.0077 77.7141 82.2064 77.8026L82.2066 77.8027C83.1608 78.2203 84.1149 78.6378 85.049 79.0851C85.3403 79.2243 85.5914 79.4629 85.8225 79.6916C86.1037 79.9799 86.0836 80.2285 85.7723 80.487C85.5814 80.656 85.3504 80.7852 85.1193 80.8847C85.0391 80.9205 84.9589 80.9558 84.8789 80.991C84.4476 81.1809 84.0209 81.3688 83.6227 81.6204C83.5021 81.6933 83.3637 81.7309 83.2253 81.7684ZM79.8057 82.5848C79.9463 82.9924 79.7153 83.3106 79.2532 83.3006C79.1728 83.2907 79.0824 83.2807 78.982 83.2708C78.8137 83.2438 78.6433 83.2147 78.4718 83.1855C78.2646 83.1501 78.0558 83.1145 77.8469 83.0819C77.3949 83.0023 77.2442 82.6743 77.5255 82.3163C77.7967 81.9783 78.078 81.6502 78.3693 81.3221C78.6103 81.0537 78.8213 81.0537 79.0322 81.342C79.2126 81.5892 79.3739 81.8507 79.5358 82.1133C79.6083 82.2309 79.6809 82.3486 79.7554 82.4655C79.7755 82.5052 79.7956 82.545 79.8057 82.5848ZM84.9285 17.9608C84.6673 18.2491 84.4162 18.5374 84.2354 18.7462C87.4598 17.7122 90.5435 14.3219 90.5033 9.74855C90.4431 5.08568 87.0781 1.03922 81.9954 0.402927C77.7565 -0.133949 74.1505 2.26211 72.704 4.88684C72.8045 4.83713 72.8949 4.77748 72.9853 4.70788C74.05 3.93239 75.2353 3.43528 76.521 3.1569C77.7264 2.89841 78.9318 2.93818 80.1371 3.17679C81.7644 3.50488 83.1807 4.23066 84.4062 5.34418C85.3303 6.17932 86.0234 7.15365 86.5457 8.26717C86.837 8.90347 87.0379 9.55965 87.1584 10.2457C87.2287 10.6632 87.7611 10.872 88.1227 10.6235C88.2634 10.524 88.404 10.4246 88.5747 10.3153C88.5747 10.3923 88.5772 10.4631 88.5796 10.53C88.5839 10.653 88.5878 10.7625 88.5747 10.872C88.5546 11.0808 88.635 11.21 88.8058 11.3194C88.9 11.3754 88.9863 11.443 89.0845 11.5198C89.1433 11.5659 89.2063 11.6152 89.2779 11.6674C89.1719 11.6947 89.0765 11.7221 88.9878 11.7475C88.8831 11.7776 88.7877 11.8049 88.6953 11.8265C88.5044 11.8662 88.3939 11.9557 88.3538 12.1546C88.3316 12.2787 88.2878 12.4029 88.2342 12.5546C88.2149 12.6095 88.1943 12.6679 88.173 12.7312C88.1266 12.6687 88.0892 12.6167 88.0561 12.5707C88.0102 12.5071 87.9727 12.4551 87.9319 12.4031C87.9017 12.3633 87.8727 12.3214 87.8437 12.2794C87.7857 12.1954 87.7276 12.1115 87.6607 12.0452C87.52 11.906 87.3794 11.9557 87.3493 12.1546C87.3443 12.1844 87.3417 12.2167 87.3392 12.249C87.3367 12.2813 87.3342 12.3136 87.3292 12.3435C87.3089 12.4877 87.292 12.6331 87.275 12.7789C87.2417 13.0651 87.2083 13.3527 87.1484 13.6359C86.8069 15.2764 86.0636 16.718 84.9285 17.9608ZM83.2585 0.88766C83.3033 0.866779 83.3508 0.844604 83.4017 0.820497C83.3936 0.879105 83.387 0.932716 83.3808 0.982478C83.364 1.11843 83.3507 1.22565 83.3213 1.32755C83.2611 1.52639 83.3213 1.67552 83.472 1.80477C83.5399 1.86075 83.6014 1.92304 83.6709 1.99341C83.7248 2.04801 83.7835 2.10747 83.8537 2.17263C83.7944 2.18437 83.7404 2.19697 83.6903 2.20865C83.5707 2.23655 83.4736 2.25918 83.3816 2.25217C83.1204 2.23228 82.9899 2.35159 82.8994 2.58026C82.8601 2.68155 82.8022 2.78284 82.7307 2.90806C82.7109 2.94262 82.6902 2.97901 82.6684 3.01771C82.6322 2.94201 82.5976 2.87748 82.5659 2.81837C82.5184 2.72999 82.4775 2.65372 82.4474 2.57032C82.3671 2.36153 82.2365 2.24223 81.9954 2.25217C81.9073 2.25217 81.8232 2.23657 81.7208 2.21758C81.6597 2.20625 81.5921 2.19372 81.5133 2.18257C81.5858 2.11593 81.6423 2.05721 81.6938 2.0037C81.7421 1.95343 81.7861 1.90776 81.8347 1.86442C82.0155 1.70535 82.126 1.53633 82.0256 1.27784C81.9993 1.19336 81.9945 1.10463 81.9887 0.997774C81.9856 0.941148 81.9823 0.87943 81.9753 0.810555C82.046 0.849027 82.1105 0.882578 82.1704 0.913804C82.281 0.971344 82.3764 1.02099 82.4675 1.07899C82.5981 1.16847 82.7186 1.16847 82.8593 1.08894C82.9767 1.01918 83.1003 0.961509 83.2585 0.88766ZM45.7861 88.0529L45.8041 88.043C45.4827 86.85 45.1713 85.6867 44.87 84.5235C44.818 84.328 44.766 84.1328 44.7141 83.9378C44.465 83.0023 44.217 82.0712 43.976 81.1332C43.9258 80.9543 43.8354 80.8648 43.6746 80.7952C42.6711 80.3979 41.6675 79.9906 40.664 79.5834L40.6612 79.5823C40.5105 79.5226 40.4302 79.5524 40.3498 79.6916C39.7873 80.6461 39.2248 81.5906 38.6523 82.545C38.5719 82.6643 38.5619 82.7737 38.6221 82.9029C38.7002 83.0644 38.7682 83.2309 38.8368 83.3988C38.8653 83.4686 38.894 83.5387 38.9235 83.6088C39.7371 85.4779 40.5607 87.3469 41.3843 89.216L41.3844 89.2162C41.505 89.4946 41.5452 89.5145 41.8465 89.415C41.8666 89.415 41.8867 89.4051 41.9068 89.3952C42.5145 89.1913 43.1248 88.985 43.7351 88.7787C44.3452 88.5724 44.9554 88.3661 45.5631 88.1623C45.638 88.1345 45.7042 88.098 45.7861 88.0529ZM42.7487 84.0047C43.0235 83.9227 43.2911 83.8429 43.5842 83.7579C43.6125 83.8653 43.6408 83.9639 43.6681 84.0589C43.6989 84.1662 43.7284 84.2689 43.755 84.3744C43.5161 84.4471 43.2922 84.5125 43.0627 84.5794C42.9158 84.6223 42.7667 84.6658 42.6099 84.7124C42.7614 85.2801 42.9362 85.8334 43.1124 86.3909C43.2633 86.8684 43.4151 87.3489 43.5541 87.8442C43.4436 87.874 43.3356 87.9013 43.2276 87.9287C43.1197 87.956 43.0117 87.9834 42.9012 88.0132C42.7634 87.57 42.6257 87.1323 42.4879 86.6947C42.3042 86.1111 42.1206 85.5276 41.9369 84.9311C41.603 85.0355 41.2768 85.1322 40.9314 85.2347C40.8819 85.2494 40.8321 85.2642 40.7817 85.2791C40.7466 85.1747 40.7165 85.0778 40.6863 84.9808C40.6562 84.8839 40.6261 84.787 40.5909 84.6826C40.7868 84.618 40.9776 84.5558 41.1685 84.4937C41.3593 84.4315 41.5502 84.3694 41.746 84.3048C41.6041 83.8599 41.4746 83.4334 41.3477 83.0157C41.3129 82.9013 41.2784 82.7876 41.2438 82.6743C41.4548 82.5052 41.5652 82.4754 41.8967 82.4555C41.9925 82.7568 42.0852 83.058 42.18 83.3663C42.2542 83.6074 42.3297 83.8529 42.409 84.1059C42.5248 84.0715 42.6374 84.038 42.7487 84.0047ZM29.2202 83.7778C29.1298 84.4639 29.0495 85.12 28.9691 85.7862C28.4324 85.7342 27.9037 85.6935 27.3786 85.6531C26.5968 85.5929 25.8228 85.5333 25.0416 85.4382C25.0304 85.2773 25.0161 85.1289 25.0021 84.9841C24.991 84.8694 24.9802 84.7571 24.9713 84.6428C24.9512 84.3942 24.9412 84.1457 24.9311 83.8673L24.8516 83.8809C24.5968 83.9244 24.3855 83.9605 24.1577 83.9966C24.1628 84.0767 24.168 84.156 24.1731 84.2345C24.1978 84.6136 24.2214 84.9746 24.238 85.3288C24.0616 85.3937 23.8927 85.3709 23.7263 85.3484C23.5612 85.3262 23.3986 85.3042 23.2335 85.3686V85.8657C23.5952 85.9154 23.9568 85.9651 24.3385 86.0148C24.3345 86.1577 24.3481 86.2958 24.3614 86.431C24.3814 86.6346 24.4008 86.8318 24.3586 87.0289C24.173 87.0248 23.9958 87.0073 23.8223 86.9902C23.5732 86.9656 23.3315 86.9417 23.0829 86.9593V87.4863C23.1407 87.492 23.1918 87.501 23.2402 87.5095C23.2758 87.5158 23.3099 87.5218 23.344 87.526C23.4997 87.5409 23.6554 87.5534 23.8111 87.5658C23.9668 87.5782 24.1225 87.5907 24.2782 87.6056C24.518 87.6253 24.5193 87.6353 24.5489 87.8703L24.5494 87.874C24.5846 88.1874 24.6198 88.4984 24.655 88.8094C24.6901 89.1198 24.7252 89.4302 24.7603 89.7431C24.7678 89.7945 24.7861 89.8459 24.8074 89.9053C24.8149 89.9264 24.8228 89.9484 24.8307 89.9718C25.0316 89.9519 25.2124 89.932 25.4133 89.9022C25.4085 89.8276 25.406 89.7618 25.4037 89.6996C25.401 89.6291 25.3985 89.5632 25.3932 89.4946C25.3681 89.251 25.3404 89.0075 25.3128 88.7639C25.2852 88.5203 25.2576 88.2767 25.2325 88.0331C25.2304 88.0106 25.2266 87.9877 25.2228 87.9646C25.2081 87.8751 25.1928 87.7819 25.2726 87.695C25.8452 87.7547 26.4278 87.8144 27.0003 87.8641C27.2651 87.8912 27.53 87.908 27.7948 87.9249C28.1126 87.9451 28.4303 87.9653 28.7481 88.0033C28.7571 88.2831 28.728 88.5511 28.6993 88.8151C28.6637 89.142 28.6289 89.4628 28.6678 89.7928C28.7104 89.7989 28.7518 89.8065 28.7922 89.814C28.9518 89.8435 29.0961 89.8702 29.2403 89.7829C29.2839 89.5324 29.3029 89.2819 29.322 89.0306C29.3468 88.7034 29.3717 88.3748 29.4513 88.043C30.0339 88.1375 30.614 88.1772 31.194 88.217C31.7741 88.2568 32.3542 88.2966 32.9368 88.391C32.7058 89.0671 32.5049 89.7133 32.3542 90.3993L32.4432 90.4203C32.615 90.4607 32.7649 90.496 32.9368 90.5385C33.1025 90.0017 33.2682 89.4816 33.434 88.9615C33.4892 88.7881 33.5445 88.6147 33.5997 88.4407C33.8923 88.467 34.1764 88.4906 34.4625 88.5143C34.7167 88.5353 34.9724 88.5565 35.237 88.5799C35.2465 88.4771 35.2537 88.3852 35.2608 88.295C35.2688 88.1934 35.2766 88.094 35.2873 87.9834C35.0239 87.9568 34.7691 87.933 34.5123 87.9091C34.2891 87.8883 34.0643 87.8673 33.8308 87.8442C33.9204 87.5855 33.9989 87.3434 34.0786 87.0973C34.1062 87.0123 34.1339 86.9268 34.1622 86.84C34.3274 86.856 34.4892 86.8719 34.6511 86.8879C34.893 86.9117 35.135 86.9355 35.3877 86.9593C35.3978 86.7505 35.4078 86.5716 35.4178 86.4026C35.2536 86.3468 35.0894 86.3388 34.9272 86.3309C34.7422 86.3219 34.5599 86.313 34.3832 86.2336C34.564 85.7663 34.7348 85.3089 34.9156 84.8218C34.7991 84.7814 34.6893 84.7477 34.5824 84.7149C34.505 84.6912 34.429 84.6679 34.3531 84.6428C34.1924 84.5832 34.102 84.6428 34.0618 84.7919C34.0547 84.82 34.0489 84.8493 34.043 84.8789C34.0321 84.9333 34.021 84.989 34.0015 85.0405C33.921 85.2996 33.836 85.5542 33.7495 85.8133C33.7065 85.942 33.6632 86.0717 33.6198 86.2037C33.1682 86.1625 32.7191 86.1271 32.2723 86.092C31.4271 86.0256 30.5906 85.9598 29.7626 85.8558C29.7736 85.4714 29.8292 85.1047 29.8841 84.7428C29.93 84.4402 29.9754 84.1409 29.9937 83.8375C29.818 83.8251 29.6619 83.8127 29.5059 83.8002C29.4121 83.7928 29.3183 83.7853 29.2202 83.7778ZM25.5257 87.1257C25.4121 87.1167 25.2977 87.1076 25.1822 87.0985C25.1672 86.9146 25.1546 86.7431 25.142 86.5716C25.1295 86.4001 25.1169 86.2286 25.1019 86.0446C26.3876 86.164 27.6332 86.2733 28.9189 86.3827C28.9108 86.6544 28.8962 86.9069 28.8804 87.1814C28.8765 87.2483 28.8726 87.3166 28.8687 87.3868C28.4662 87.3931 28.0835 87.3486 27.7057 87.3048C27.4799 87.2786 27.2559 87.2526 27.0305 87.2377C26.5295 87.2052 26.0352 87.166 25.5257 87.1257ZM32.2046 86.6693C32.6009 86.7107 33.0014 86.7525 33.4089 86.7903C33.3185 87.1184 33.2381 87.4067 33.1477 87.6752C33.1039 87.8052 32.9915 87.7916 32.8901 87.7794C32.8752 87.7776 32.8606 87.7759 32.8464 87.7746L32.7224 87.7609C32.3133 87.7159 31.911 87.6715 31.5004 87.6354C30.8977 87.5757 30.3051 87.526 29.7024 87.4763C29.6664 87.4763 29.6305 87.4684 29.5587 87.4525L29.5316 87.4465C29.5616 87.2089 29.5972 86.9658 29.6342 86.7131C29.6468 86.6273 29.6595 86.5404 29.6722 86.4523C30.5161 86.493 31.3507 86.5802 32.2046 86.6693ZM60.2065 84.4231C60.5 84.5144 60.7974 84.607 61.1023 84.7025C61.0891 84.7446 61.0759 84.7863 61.0629 84.8277C60.9374 85.2264 60.8217 85.594 60.7307 85.9452C60.2485 87.4962 59.7664 89.0372 59.2842 90.5783C59.2239 90.7672 59.244 90.8169 59.4449 90.8765C59.7262 90.966 60.0175 91.0555 60.3088 91.135C60.3453 91.1471 60.3854 91.1482 60.4293 91.1494C60.4579 91.1502 60.488 91.151 60.5197 91.1549C60.5874 90.9346 60.6546 90.7142 60.7217 90.4941C60.9635 89.701 61.2045 88.9107 61.4639 88.1325C61.6001 87.7201 61.7192 87.3027 61.8389 86.8836C62.0106 86.2824 62.1832 85.6779 62.4081 85.0803C62.7898 85.1946 63.164 85.3064 63.5382 85.4183C63.9123 85.5301 64.2865 85.642 64.6682 85.7563C64.6909 85.6937 64.7139 85.6314 64.7368 85.5692C64.8559 85.2458 64.9741 84.925 65.0499 84.5832C64.6805 84.4721 64.3219 84.3631 63.9672 84.2554C63.5599 84.1316 63.1576 84.0094 62.7497 83.8872C62.8688 83.4919 62.994 83.1039 63.1185 82.7181C63.351 81.9976 63.581 81.2848 63.7642 80.5466C63.4762 80.4605 63.2061 80.3743 62.9359 80.2881C62.8009 80.245 62.6659 80.202 62.5287 80.1589C62.324 80.6942 62.1667 81.2365 62.0096 81.7778C61.8428 82.3526 61.6763 82.9263 61.4539 83.4895C61.067 83.3752 60.6903 83.2633 60.3135 83.1514C59.9369 83.0396 59.5603 82.9278 59.1737 82.8135C59.0532 83.2111 58.9326 83.5989 58.8121 83.9866C59.276 84.1336 59.7361 84.2767 60.2065 84.4231ZM89.1348 61.7759C89.1249 61.7341 89.1146 61.6911 89.1071 61.6466C89.0268 61.6764 88.9966 61.6864 88.9966 61.6764C88.6429 61.9747 88.2934 62.2772 87.9454 62.5784C87.7598 62.739 87.5746 62.8993 87.3895 63.0584C87.279 63.1578 87.1785 63.1976 87.0379 63.1578C86.3749 62.9789 85.712 62.7999 85.049 62.6309C84.9996 62.6169 84.9453 62.6078 84.879 62.5968C84.8509 62.5921 84.8207 62.5871 84.7879 62.5812C84.7994 62.6191 84.808 62.6498 84.8153 62.6761C84.8271 62.7185 84.8357 62.7493 84.8481 62.78C84.8799 62.8567 84.9117 62.9336 84.9435 63.0106C85.1631 63.5422 85.3847 64.0784 85.6216 64.5994C85.712 64.7983 85.712 64.9474 85.5814 65.1264C85.2666 65.5817 84.9649 66.0434 84.6656 66.5013C84.5924 66.6133 84.5194 66.725 84.4463 66.8364C84.4363 66.8513 84.4313 66.8712 84.425 66.8961C84.4187 66.9209 84.4112 66.9508 84.3961 66.9855C84.4322 66.9855 84.4644 66.9868 84.4941 66.988C84.5471 66.9901 84.5921 66.9919 84.6372 66.9855C84.9687 66.9557 85.3001 66.9284 85.6316 66.901C85.9631 66.8737 86.2946 66.8463 86.6261 66.8165C86.8069 66.8066 86.9174 66.8463 87.0379 66.9955C87.4397 67.5025 87.8616 67.9996 88.2834 68.4967C88.3206 68.5482 88.3687 68.5942 88.4238 68.6469C88.4431 68.6654 88.4634 68.6848 88.4843 68.7055C88.4961 68.6706 88.5079 68.6493 88.5176 68.6316C88.5245 68.6192 88.5304 68.6085 88.5346 68.5962C88.5866 68.3694 88.6411 68.1438 88.6955 67.9186C88.7985 67.4921 88.9011 67.067 88.9866 66.6376C89.0368 66.3791 89.1573 66.2598 89.3984 66.1802C89.7801 66.051 90.1618 65.9118 90.5435 65.7626C90.7104 65.7015 90.8772 65.629 91.0487 65.5546C91.156 65.508 91.2651 65.4606 91.3772 65.4147C91.3542 65.3919 91.3375 65.3711 91.3232 65.3535C91.3064 65.3326 91.2931 65.3161 91.2768 65.3053C91.058 65.1762 90.8422 65.0427 90.6265 64.9092C90.2777 64.6934 89.9292 64.4779 89.5692 64.2813C89.308 64.1321 89.2377 63.9532 89.2277 63.6947C89.2176 63.118 89.1975 62.5513 89.1674 61.9747C89.1674 61.9123 89.1516 61.846 89.1348 61.7759ZM87.1458 65.54C87.2235 65.5222 87.2977 65.4891 87.4196 65.4346C87.423 65.4947 87.4218 65.5537 87.4207 65.6108C87.4185 65.7237 87.4164 65.8293 87.4497 65.9217C87.4858 66.0075 87.5738 66.0727 87.6689 66.1432C87.7061 66.1708 87.7445 66.1992 87.7812 66.2299C87.7097 66.2638 87.6324 66.2833 87.558 66.3022C87.392 66.3442 87.2402 66.3826 87.1986 66.568C86.9174 66.4884 86.6461 66.4089 86.3749 66.3294C86.3749 66.3393 86.5658 65.534 86.5658 65.534C86.8958 65.5582 87.025 65.5677 87.1458 65.54ZM89.2838 65.8899L89.2076 65.9217C89.226 65.7211 89.236 65.5623 89.2452 65.4147L89.2477 65.3749C89.2678 65.3749 89.298 65.365 89.3181 65.355C89.4386 65.4545 89.5591 65.5638 89.7198 65.7129C89.5639 65.7729 89.4379 65.8256 89.2838 65.8899ZM86.842 63.5157C86.8345 63.5282 86.827 63.5406 86.8169 63.5555C86.8137 63.5576 86.8103 63.5599 86.8069 63.5622C86.778 63.5815 86.7412 63.6063 86.6964 63.6151C86.6863 63.6151 86.6361 63.5456 86.6461 63.5257C86.6662 63.4859 86.7064 63.4561 86.7466 63.4461C86.7734 63.4395 86.8002 63.4506 86.827 63.4616C86.8404 63.4671 86.8537 63.4726 86.8671 63.476C86.8571 63.4909 86.8495 63.5033 86.842 63.5157ZM68.0862 5.33081C68.2887 5.29258 68.4944 5.25375 68.7062 5.21493C68.6886 5.1905 68.6759 5.17097 68.6656 5.15505C68.6464 5.12562 68.6353 5.10853 68.6158 5.09562C68.1136 4.64823 67.6113 4.20083 67.099 3.76338C66.9283 3.62419 66.8881 3.47505 66.9182 3.26627C67.0037 2.72081 67.0713 2.16646 67.1378 1.62004L67.1493 1.52639C67.1558 1.45541 67.1538 1.38442 67.1517 1.30528C67.1505 1.26249 67.1493 1.21732 67.1493 1.16847C66.8348 1.34964 66.5335 1.52431 66.2382 1.6955C65.9015 1.89069 65.5725 2.08137 65.2407 2.27205C65.1303 2.3317 65.0298 2.37147 64.8892 2.30188C64.5276 2.12292 64.166 1.95281 63.8044 1.78269C63.6236 1.69763 63.4427 1.61256 63.2619 1.52639C63.1414 1.46674 63.0209 1.40708 62.8702 1.33749C62.8702 1.36787 62.8687 1.39245 62.8675 1.41344C62.8654 1.44741 62.864 1.47199 62.8702 1.49656C62.9192 1.72806 62.9669 1.96095 63.0147 2.19472C63.0941 2.58343 63.1741 2.97456 63.2619 3.36569C63.3122 3.59436 63.2921 3.77332 63.1113 3.94233C62.7859 4.26439 62.4662 4.59772 62.1479 4.92959C62.0437 5.03827 61.9397 5.14678 61.8356 5.2547C61.7998 5.29605 61.7675 5.33741 61.7303 5.38502C61.705 5.41754 61.6773 5.45297 61.6447 5.49331C61.7171 5.50355 61.7762 5.51378 61.8275 5.52266C61.8758 5.53103 61.9171 5.5382 61.9561 5.54302C62.2432 5.5667 62.5325 5.59263 62.823 5.61867C63.1425 5.6473 63.4634 5.67606 63.7843 5.7021C63.9651 5.71204 64.1057 5.76175 64.1961 5.94071C64.5174 6.55689 64.8588 7.17307 65.2002 7.78925L65.2006 7.78995C65.2122 7.80728 65.2273 7.81454 65.2458 7.82344C65.2591 7.82985 65.2741 7.83711 65.291 7.8496L65.291 7.84951C65.3211 7.78991 65.3412 7.75015 65.3713 7.70047C65.4332 7.5639 65.495 7.42788 65.5568 7.29216C65.7556 6.85483 65.9531 6.42055 66.1448 5.98048C66.2352 5.78163 66.3557 5.65239 66.5868 5.62256C66.7097 5.60334 66.8285 5.57588 66.9484 5.54813C67.0147 5.53281 67.0813 5.5174 67.1493 5.50325C67.4615 5.44871 67.77 5.39048 68.0862 5.33081ZM62.388 5.19505C62.4584 5.08568 62.5287 4.98626 62.599 4.88684C62.6191 4.91667 62.6392 4.95643 62.6492 4.9962C62.6506 5.00595 62.6522 5.01609 62.6539 5.02643C62.6639 5.08989 62.6751 5.16085 62.6492 5.19505C62.5889 5.27458 62.4885 5.27458 62.388 5.19505ZM62.9305 4.688C62.8099 4.75759 62.7095 4.81724 62.599 4.88684C62.8903 4.98626 62.9606 4.95643 62.9305 4.688ZM64.2841 2.80973C64.2803 2.7629 64.2765 2.71584 64.2765 2.66974C64.4923 2.75831 64.595 2.80046 64.6988 2.80336C64.7931 2.80599 64.8883 2.77624 65.07 2.71945C65.073 2.72246 65.0779 2.72639 65.0833 2.73067C65.0955 2.74053 65.1102 2.75229 65.1102 2.75922C65.1314 2.98484 65.1414 3.09138 65.1771 3.18847C65.2091 3.27534 65.2617 3.35463 65.3613 3.50488C65.34 3.51191 65.3187 3.52266 65.2978 3.53318C65.2597 3.55245 65.223 3.57096 65.1905 3.56453C64.9595 3.54465 64.8189 3.63413 64.7787 3.8628C64.7717 3.89057 64.7549 3.91349 64.7317 3.94511C64.7217 3.95877 64.7105 3.97405 64.6983 3.99205C64.6808 3.97466 64.6608 3.95971 64.6417 3.94549C64.6063 3.91905 64.5743 3.89513 64.5677 3.8628C64.5075 3.62419 64.3568 3.52476 64.1258 3.52476C64.0909 3.52476 64.056 3.50977 64.0014 3.48628C63.9931 3.48273 63.9844 3.47898 63.9751 3.47505C64.0062 3.43869 64.0389 3.4039 64.0709 3.3698C64.1527 3.2827 64.2303 3.20008 64.2664 3.10719C64.3011 3.0179 64.2927 2.91438 64.2841 2.80973ZM65.6552 6.06416C65.5739 5.95978 65.5 5.86499 65.5722 5.72198C65.8937 5.78163 65.9037 5.8214 65.6827 6.09978C65.6736 6.08773 65.6644 6.07588 65.6552 6.06416ZM12.2426 11.5532C12.3488 11.5555 12.4618 11.558 12.5861 11.558C12.2747 10.6632 11.7524 10.017 11.0091 9.55965C10.3461 9.13214 9.27132 8.85376 8.88962 8.98301C8.9298 9.0526 8.96998 9.11225 9.01015 9.17191C9.16083 9.39063 9.3115 9.60936 9.44208 9.85792C9.73338 10.3848 9.66306 10.8124 9.18092 11.1802C8.89179 11.393 8.57531 11.5733 8.25973 11.7531C8.14773 11.8169 8.03583 11.8807 7.92532 11.9458C7.90314 11.9604 7.87552 11.9589 7.84245 11.9571C7.83059 11.9564 7.81804 11.9557 7.80478 11.9557C7.79043 11.9166 7.77863 11.8776 7.76712 11.8394C7.7464 11.7707 7.72657 11.705 7.69429 11.6475C7.60389 11.4586 7.46326 11.4188 7.31259 11.558C7.19205 11.6674 7.08156 11.7072 6.9108 11.6773C6.66972 11.6376 6.60946 11.7171 6.63959 11.9657L6.63959 11.9657C6.65968 12.0651 6.67977 12.1645 6.69986 12.2838C6.6806 12.2902 6.66238 12.2975 6.64485 12.3046C6.6075 12.3197 6.57332 12.3335 6.53914 12.3335C5.9465 12.3633 5.35386 12.3136 4.78131 12.1645C4.72774 12.1512 4.68309 12.1291 4.63845 12.1071C4.61613 12.096 4.59381 12.085 4.57037 12.075C4.3092 11.9358 4.14849 11.737 4.1284 11.4487C4.10831 11.21 4.10831 10.9615 4.11835 10.7229C4.11835 10.5309 4.13534 10.3389 4.15369 10.1315C4.1553 10.1133 4.15691 10.0951 4.15853 10.0766C2.83262 10.7229 1.69757 12.5423 2.09936 14.0535C2.15976 14.0236 2.21941 13.993 2.27893 13.9624C2.43715 13.8812 2.59443 13.8004 2.76231 13.7354C3.11388 13.5862 3.47549 13.4769 3.85719 13.6359C3.95747 13.6817 4.05775 13.751 4.13983 13.8077C4.16464 13.8248 4.18778 13.8408 4.20876 13.8547C4.27202 13.8019 4.33087 13.7459 4.38859 13.691C4.50501 13.5802 4.61687 13.4737 4.75117 13.4073C4.94508 13.3187 5.09468 13.4384 5.24521 13.5588C5.29743 13.6006 5.34976 13.6424 5.40408 13.6757C5.6552 13.3476 5.93646 13.1985 6.31816 13.447C6.54919 13.0394 6.85053 12.8306 7.33268 12.94C7.41304 12.9599 7.55366 12.9102 7.61393 12.8406C7.78469 12.6318 7.98559 12.6616 8.19653 12.7312C8.26555 12.756 8.33065 12.7886 8.39672 12.8217C8.43643 12.8416 8.47649 12.8617 8.51796 12.8803C8.76908 12.5423 9.06038 12.4826 9.4019 12.6914C9.44475 12.6336 9.48156 12.5773 9.51701 12.523C9.57298 12.4373 9.62556 12.3568 9.6932 12.2838C9.81374 12.1446 9.99454 12.1148 10.1653 12.1744C10.2809 12.2153 10.3898 12.2831 10.4974 12.3501C10.5207 12.3646 10.5439 12.379 10.5671 12.3932C10.8283 11.7867 11.0292 11.6276 11.7022 11.558C11.8775 11.5452 12.0486 11.5489 12.2426 11.5532ZM88.8259 49.2487C88.3939 49.5669 87.9118 49.7061 87.3593 49.716L87.3593 49.7161C87.3292 49.8055 87.3091 49.8652 87.3091 49.9347L86.4051 54.1104C86.371 54.2648 86.3378 54.4183 86.3047 54.5713C86.2206 54.9603 86.1372 55.3457 86.0435 55.731C85.9832 55.9895 86.1439 56.2082 86.4854 56.1088C86.6191 56.0647 86.6421 55.958 86.6666 55.8443C86.6697 55.8298 86.6729 55.8152 86.6763 55.8006L87.9419 50.1038C88.0099 49.8153 88.0122 49.8151 88.2847 49.7884L88.3136 49.7856C89.0368 49.716 89.6596 49.4376 90.1317 48.8809C90.654 48.2645 90.8047 47.5486 90.644 46.7632C90.5033 46.0871 90.1417 45.5503 89.5692 45.1625C88.5747 44.4765 86.8973 44.6455 86.0736 45.8286C85.4609 46.7035 85.3805 48.165 86.4151 49.1195C86.4854 49.1791 86.5859 49.2388 86.6662 49.2388C87.7109 49.2487 88.5346 48.8212 89.0971 47.9463C89.3683 47.5188 89.308 46.9223 88.9866 46.5345C88.625 46.107 88.0524 45.8585 87.52 46.1468C87.2086 46.3158 87.0078 46.5743 86.9877 46.9322C86.9676 47.2702 87.1383 47.5089 87.4196 47.6679C87.7812 47.8867 88.2332 47.658 88.2935 47.2404C88.3337 46.962 88.0424 46.7135 87.7812 46.803C87.5502 46.8825 87.51 47.0714 87.6908 47.2305C87.7049 47.2491 87.7278 47.2633 87.7502 47.2773C87.7757 47.2932 87.8006 47.3087 87.8113 47.3299C87.8415 47.3796 87.8917 47.479 87.8616 47.5188C87.8214 47.5785 87.731 47.6182 87.6607 47.6381C87.6205 47.648 87.5602 47.6182 87.51 47.5884C87.2689 47.4591 87.1383 47.1808 87.1785 46.9123C87.2187 46.6538 87.4799 46.3755 87.7209 46.3357C88.4241 46.2164 88.9665 46.8328 88.7455 47.5089C88.4944 48.2744 87.5502 48.5031 86.9073 47.9463C86.4854 47.5785 86.3247 47.1012 86.4754 46.5644C86.6361 45.9877 87.0379 45.59 87.6205 45.4608C88.7254 45.2023 89.8102 46.0374 89.8906 47.1509C89.9509 48.0656 89.529 48.7218 88.8259 49.2487ZM3.21432 25.3876C2.7824 25.7057 2.30025 25.8449 1.74779 25.8548C1.7277 25.9443 1.70761 26.004 1.68752 26.0537L0.783492 30.2294C0.672999 30.7762 0.552462 31.3131 0.42188 31.85C0.361612 32.1085 0.522328 32.3272 0.86385 32.2278C0.997503 32.1837 1.0205 32.077 1.04503 31.9632C1.04815 31.9488 1.0513 31.9342 1.0547 31.9196L2.32034 26.2227C2.38833 25.9343 2.39058 25.9341 2.66314 25.9074C2.67244 25.9065 2.68206 25.9055 2.692 25.9046C3.41522 25.835 4.038 25.5566 4.5101 24.9998C5.03243 24.3834 5.1831 23.6676 5.02238 22.8821C4.88176 22.2061 4.52014 21.6692 3.95764 21.3013C2.96321 20.6153 1.29577 20.7843 0.462059 21.9675C-0.150671 22.8424 -0.23103 24.3039 0.803581 25.2583C0.873895 25.318 0.974342 25.3776 1.0547 25.3776C2.09936 25.3876 2.92303 24.96 3.48553 24.0851C3.75674 23.6576 3.69647 23.0611 3.37504 22.6734C3.01343 22.2458 2.44088 21.9973 1.90851 22.2856C1.59712 22.4546 1.39622 22.7131 1.37613 23.071C1.35604 23.4091 1.5268 23.6477 1.80806 23.8068C2.16967 24.0255 2.62168 23.7968 2.68195 23.3792C2.72213 23.1009 2.43083 22.8523 2.16967 22.9418C1.93864 23.0213 1.89846 23.2102 2.07927 23.3693C2.09335 23.3879 2.11622 23.4021 2.13863 23.4161C2.16416 23.432 2.18911 23.4475 2.1998 23.4687C2.22994 23.5184 2.28016 23.6179 2.25003 23.6576C2.20985 23.7173 2.11945 23.757 2.04913 23.7769C2.00895 23.7869 1.94868 23.757 1.89846 23.7272C1.65739 23.598 1.5268 23.3196 1.56698 23.0512C1.60716 22.7927 1.86833 22.5143 2.1094 22.4745C2.81253 22.3552 3.35495 22.9716 3.13397 23.6477C2.88285 24.4132 1.93864 24.6419 1.29577 24.0851C0.873895 23.7173 0.713178 23.2401 0.86385 22.7032C1.02457 22.1265 1.42636 21.7288 2.00895 21.5996C3.11388 21.3411 4.19871 22.1762 4.27907 23.2898C4.33934 24.2044 3.91746 24.8606 3.21432 25.3876ZM50.913 83.476C50.4623 83.0596 50.0115 82.6431 49.5207 82.1871C49.384 82.6011 49.2295 82.9992 49.076 83.3947C48.8462 83.987 48.6186 84.5736 48.456 85.1996C48.5551 85.1877 48.6515 85.1758 48.7457 85.1642C48.9667 85.1369 49.1759 85.1111 49.3801 85.0902C49.529 85.0759 49.6757 85.0639 49.8212 85.052C49.9798 85.0391 50.137 85.0262 50.2941 85.0107C50.6558 86.3628 51.9415 86.6611 52.9259 86.0248C53.2283 86.2296 53.4858 86.4926 53.7459 86.7582C53.9783 86.9955 54.2127 87.2348 54.4828 87.4366L54.5018 87.3911C54.907 86.4228 55.3006 85.4822 55.5676 84.4837C55.5287 84.4837 55.4923 84.4825 55.458 84.4813C55.3947 84.4792 55.3385 84.4773 55.2864 84.4837C54.7741 84.5235 54.2618 84.5732 53.7495 84.6229C53.6591 84.6329 53.5587 84.6726 53.4984 84.7323C53.398 84.8417 53.2774 84.8615 53.1469 84.8516C52.7333 84.8319 52.3173 84.8121 51.9013 84.7924C51.4786 84.7724 51.0558 84.7523 50.6357 84.7323C50.5588 84.7323 50.4819 84.7206 50.3869 84.7062C50.3579 84.7018 50.3271 84.6972 50.2941 84.6925C50.3 84.658 50.3054 84.6246 50.3107 84.5921C50.3328 84.4564 50.3521 84.3376 50.3845 84.2252C50.4549 83.9866 50.5051 83.9667 50.7562 83.9866C50.9778 84.0057 51.2087 84.0156 51.4311 84.0252L51.4593 84.0264C51.7307 84.0413 52.0045 84.0587 52.2783 84.0761C52.5519 84.0935 52.8255 84.1109 53.0966 84.1258C53.1388 84.1258 53.181 84.1151 53.2232 84.1043C53.2513 84.0972 53.2794 84.09 53.3076 84.086C53.1469 83.748 52.8254 83.4796 52.4236 83.3106C51.9013 83.0918 51.4192 83.241 50.9169 83.4796L50.913 83.476ZM79.9478 13.6958C79.7539 13.797 79.5568 13.8998 79.3536 14.0038C79.4067 14.03 79.4513 14.0507 79.4934 14.0703C79.5311 14.0878 79.5668 14.1043 79.6048 14.1231C79.8659 14.2374 80.1295 14.3517 80.3932 14.4661C80.6569 14.5804 80.9206 14.6948 81.1818 14.8091C81.2923 14.8588 81.3726 14.9085 81.3927 15.0477C81.4481 15.404 81.513 15.7651 81.5776 16.1243C81.6068 16.2863 81.6358 16.448 81.6639 16.6086C81.684 16.7081 81.7142 16.8075 81.7443 16.9069C81.7644 16.897 81.7795 16.892 81.7908 16.8883C81.8021 16.8845 81.8096 16.882 81.8146 16.8771C81.9162 16.7715 82.0184 16.666 82.1208 16.5603C82.4233 16.2478 82.7273 15.9339 83.02 15.6144C83.1506 15.4752 83.2611 15.3957 83.472 15.4355C83.823 15.501 84.1784 15.5493 84.5324 15.5974C84.7153 15.6222 84.8978 15.647 85.0792 15.6741C85.1339 15.6861 85.1924 15.6872 85.2568 15.6884C85.2987 15.6892 85.3431 15.69 85.3906 15.694C85.3755 15.6641 85.368 15.6418 85.3617 15.6231C85.3554 15.6045 85.3504 15.5896 85.3403 15.5747L84.4664 14.1132C84.366 13.9541 84.3358 13.8149 84.4363 13.6359C84.6172 13.2926 84.7925 12.9438 84.9664 12.5977C85.0242 12.4827 85.0818 12.368 85.1394 12.254L85.1395 12.2538C85.1696 12.1743 85.1997 12.0948 85.26 11.9657C85.2169 11.9736 85.1775 11.9809 85.1409 11.9877C85.0408 12.0061 84.9619 12.0207 84.8883 12.0352L83.3213 12.3633C83.3141 12.3648 83.307 12.3662 83.2998 12.3677C83.2065 12.3868 83.1133 12.4059 83.02 12.3136L83.0193 12.313C82.7383 12.0448 82.4573 11.7765 82.1662 11.5083C81.9753 11.3294 81.7744 11.1504 81.5434 10.9516C81.5351 10.9968 81.5268 11.0352 81.5192 11.0704C81.5084 11.1202 81.4991 11.1634 81.4932 11.21C81.4329 11.7171 81.3726 12.2341 81.3224 12.7411C81.3023 12.94 81.2119 13.0593 81.0211 13.1488C80.6613 13.3236 80.31 13.5069 79.9478 13.6958ZM84.6414 15.1383C84.6598 15.1753 84.6808 15.2173 84.7075 15.2664C84.5483 15.2468 84.4064 15.2271 84.2731 15.2086C84.1373 15.1897 84.0106 15.1721 83.8838 15.1571C83.6829 15.1372 83.4921 15.1173 83.3012 15.0775C83.1405 15.0477 83.0401 15.0875 82.9296 15.2068C82.7845 15.3684 82.6321 15.5263 82.479 15.685C82.3778 15.79 82.2762 15.8953 82.1762 16.0022C82.1499 16.0282 82.1217 16.0542 82.0899 16.0836C82.0489 16.1215 82.0018 16.1649 81.9452 16.2209C81.9404 16.1878 81.9362 16.1575 81.9323 16.1294C81.9198 16.0392 81.9103 15.971 81.895 15.9027C81.8648 15.7288 81.8322 15.5573 81.7995 15.3858C81.7669 15.2142 81.7343 15.0427 81.7041 14.8688C81.684 14.7097 81.6037 14.6103 81.443 14.5506C81.1976 14.4523 80.9556 14.3473 80.7071 14.2394C80.5284 14.1618 80.3463 14.0828 80.1572 14.0038C80.18 13.9877 80.1996 13.9727 80.2174 13.959C80.2546 13.9304 80.284 13.9079 80.3179 13.8944C80.4124 13.8464 80.5062 13.7984 80.5996 13.7506C80.874 13.6102 81.1456 13.4712 81.4229 13.3377C81.5836 13.2581 81.6439 13.1488 81.6539 12.9698C81.6728 12.702 81.7074 12.4341 81.743 12.1589C81.7643 11.9949 81.7858 11.8282 81.8046 11.6574C81.8354 11.6829 81.8636 11.7005 81.8878 11.7156C81.911 11.7301 81.9305 11.7423 81.9452 11.7569C82.2566 12.0452 82.568 12.3335 82.8693 12.6318C82.9597 12.7113 83.03 12.7411 83.1606 12.7113C83.4276 12.6533 83.6989 12.6036 83.9689 12.5542C84.1153 12.5274 84.2614 12.5007 84.4062 12.4727C84.4383 12.4663 84.4745 12.4681 84.5175 12.4702C84.5417 12.4714 84.5681 12.4727 84.597 12.4727C84.5833 12.5045 84.5737 12.5342 84.5645 12.5628C84.5535 12.5968 84.5431 12.6292 84.5267 12.6616C84.3559 12.9996 84.1751 13.3476 83.9943 13.6856C83.914 13.8248 83.924 13.9243 84.0044 14.0535C84.1441 14.2792 84.2785 14.5103 84.4115 14.7388C84.4601 14.8224 84.5084 14.9056 84.5568 14.9881C84.588 15.0312 84.6114 15.0781 84.6414 15.1383ZM91.0974 38.3337C91.1154 38.3699 91.1347 38.4089 91.1562 38.4516C90.7545 38.4018 90.423 38.3521 90.1015 38.3024C90.0039 38.2863 89.9046 38.2735 89.8051 38.2606C89.6587 38.2417 89.5117 38.2226 89.3683 38.1931C89.1674 38.1433 89.0268 38.1931 88.8962 38.3521C88.6609 38.6225 88.42 38.8816 88.1776 39.1421C88.0991 39.2265 88.0205 39.311 87.9419 39.3961C87.8975 39.4526 87.845 39.5012 87.7795 39.5619C87.7413 39.5973 87.6987 39.6368 87.6506 39.6844C87.634 39.5858 87.6235 39.5054 87.6141 39.4331C87.6064 39.374 87.5994 39.3204 87.5904 39.2668C87.5654 39.1281 87.5396 38.9885 87.5136 38.8484C87.4559 38.5368 87.3978 38.2234 87.3493 37.9147C87.3091 37.7059 87.2187 37.5766 87.0078 37.4971C86.6546 37.3586 86.3059 37.2026 85.944 37.0407C85.7603 36.9586 85.5733 36.8749 85.3805 36.7912C85.43 36.7618 85.4673 36.7348 85.4996 36.7114C85.5329 36.6874 85.5609 36.6671 85.5914 36.652C86.0535 36.4035 86.5156 36.1649 86.9877 35.9262C87.1886 35.8268 87.2589 35.6777 87.279 35.449C87.3082 35.0437 87.3588 34.6383 87.4112 34.2176C87.4308 34.0604 87.4507 33.9012 87.4698 33.739C87.5035 33.764 87.5336 33.7837 87.5602 33.8012C87.5971 33.8254 87.6273 33.8451 87.6506 33.8682C87.7478 33.9619 87.8455 34.0556 87.9434 34.1494C88.2404 34.434 88.5388 34.72 88.8259 35.0116C88.9364 35.1209 89.0368 35.1607 89.1975 35.1209C89.6777 35.0112 90.1664 34.9184 90.648 34.8268L90.7746 34.8028C90.8196 34.7964 90.8647 34.7982 90.9177 34.8003C90.9474 34.8015 90.9795 34.8028 91.0156 34.8028C91.011 34.8179 91.0067 34.8326 91.0025 34.8468C90.9789 34.9262 90.9593 34.9923 90.9252 35.0513C90.8261 35.2432 90.7289 35.437 90.6319 35.6302C90.5028 35.8874 90.3741 36.1437 90.2422 36.3935C90.1518 36.5625 90.1618 36.7017 90.2623 36.8708C90.5033 37.2684 90.7344 37.6761 90.9654 38.0837C91.0095 38.1565 91.0483 38.2346 91.0974 38.3337ZM30.4859 5.16522C30.9278 4.32014 30.285 2.6598 29.2805 2.1428C29.2805 2.22684 29.2773 2.29509 29.2745 2.35468C29.2724 2.40083 29.2704 2.44178 29.2704 2.48084C29.2704 2.54049 29.2747 2.60014 29.2789 2.65979C29.286 2.75922 29.293 2.85864 29.2805 2.95806C29.2504 3.28615 29.1097 3.52476 28.7682 3.62419C28.2931 3.76135 27.8277 3.6861 27.3432 3.60777L27.3218 3.6043C27.3394 3.54039 27.3501 3.48666 27.36 3.43717C27.3671 3.40198 27.3737 3.36892 27.382 3.33586C27.4122 3.21656 27.3519 3.12708 27.2414 3.13702C27.0907 3.14696 26.9903 3.08731 26.8798 2.98789C26.7693 2.88847 26.6789 2.91829 26.5985 3.05748C26.5836 3.0834 26.5686 3.11069 26.5526 3.13987C26.5257 3.18907 26.4957 3.24363 26.4579 3.30604C26.3757 3.24878 26.2944 3.19518 26.2149 3.14274C26.0321 3.02216 25.8586 2.90773 25.7046 2.76916C25.1621 2.29194 25.1521 2.04338 25.584 1.46674C25.6524 1.37192 25.7209 1.27249 25.7925 1.16845C25.826 1.11976 25.8602 1.07005 25.8954 1.01934C24.7603 0.850324 23.2938 1.70535 23.103 2.68962C23.1353 2.69248 23.1676 2.6952 23.1999 2.69792C23.73 2.74257 24.2501 2.78638 24.449 3.39552C24.9713 3.21656 25.0416 3.23644 25.2425 3.69378C25.4936 3.63413 25.7548 3.62419 25.8954 3.92245C26.1666 3.83297 26.4278 3.75343 26.6488 4.00199C26.6689 4.03181 26.7291 4.03181 26.7693 4.03181C27.0907 4.02187 27.3419 4.14118 27.4724 4.45933C27.7607 4.31204 27.9371 4.48012 28.1132 4.64789C28.1273 4.66131 28.1413 4.67474 28.1555 4.688C28.1826 4.67189 28.2097 4.65386 28.2369 4.63575C28.361 4.55322 28.4875 4.46906 28.6276 4.55875C28.7174 4.61591 28.7868 4.69741 28.8592 4.78252C28.9001 4.83064 28.942 4.87992 28.9892 4.92661C29.5 4.5474 29.928 4.81593 30.3559 5.08441C30.3992 5.11157 30.4425 5.13873 30.4859 5.16522ZM3.14174 55.7796C3.10525 55.7973 3.06383 55.8174 3.01343 55.8404C3.1932 55.9548 3.36203 56.0655 3.52535 56.1727C3.74531 56.317 3.95529 56.4548 4.16858 56.586C4.32929 56.6855 4.40965 56.7948 4.40965 56.9937C4.39972 57.4064 4.40942 57.8094 4.41935 58.2218L4.4197 58.2364C4.42429 58.2501 4.43099 58.2658 4.43979 58.2865C4.45022 58.311 4.46362 58.3424 4.47997 58.3856C4.52555 58.354 4.56907 58.3265 4.61052 58.3003C4.6604 58.2688 4.70729 58.2392 4.75117 58.2066C5.02238 57.9879 5.29359 57.7592 5.5648 57.5306C5.71547 57.4013 5.84605 57.3715 6.0369 57.4411C6.31423 57.5402 6.59747 57.6218 6.88209 57.7038C6.96858 57.7287 7.05521 57.7536 7.14183 57.7791C7.18483 57.7913 7.22783 57.7923 7.28003 57.7935C7.31318 57.7943 7.35003 57.7951 7.39295 57.799C7.36527 57.7281 7.33811 57.6582 7.31132 57.5893C7.17281 57.2329 7.04383 56.901 6.90075 56.5761C6.8204 56.3773 6.81035 56.2082 6.95098 56.0392C7.03704 55.9308 7.11702 55.8103 7.19564 55.6919C7.21795 55.6582 7.24016 55.6248 7.26237 55.5918C7.38716 55.4065 7.51987 55.2213 7.66751 55.0151C7.68623 54.989 7.7052 54.9625 7.72442 54.9356C7.59625 54.9356 7.47134 54.935 7.34904 54.9344C6.99212 54.9325 6.65738 54.9308 6.3282 54.9456C6.10722 54.9555 5.96659 54.876 5.84605 54.707C5.70543 54.5081 5.55587 54.3181 5.40632 54.1281C5.33154 54.0331 5.25676 53.9381 5.1831 53.842C5.15556 53.8079 5.11858 53.7785 5.0754 53.7442C5.05558 53.7284 5.03446 53.7116 5.01234 53.6929C4.95733 53.9061 4.90231 54.1111 4.84826 54.3125C4.78387 54.5525 4.72084 54.7873 4.66077 55.0251C4.62059 55.1842 4.56032 55.2936 4.38956 55.3433C4.01791 55.4526 3.65629 55.5819 3.29468 55.7111C3.24534 55.7295 3.19978 55.7515 3.14174 55.7796ZM19.4425 80.8184C19.2356 80.9242 19.0239 81.0325 18.8038 81.1432C18.8376 81.1612 18.8667 81.1772 18.8925 81.1914C18.9663 81.232 19.0129 81.2577 19.065 81.2724C19.2157 81.3413 19.3664 81.4109 19.5173 81.4807C19.8895 81.6528 20.2632 81.8256 20.642 81.9883C20.8027 82.0578 20.9032 82.1374 20.9333 82.3263C21.0337 82.893 21.1342 83.4497 21.2447 84.0164C21.2631 84.0892 21.2898 84.162 21.325 84.2576L21.3351 84.2849C21.5024 84.1012 21.6672 83.9228 21.8293 83.7472C22.1147 83.438 22.3919 83.1377 22.661 82.8333C22.7916 82.6941 22.9121 82.6345 23.113 82.6743C23.4847 82.7439 23.8563 82.8035 24.228 82.8532C24.4216 82.8827 24.6208 82.9067 24.8419 82.9334C24.9189 82.9427 24.9987 82.9523 25.0818 82.9626C25.0644 82.9179 25.0507 82.8792 25.0384 82.8447C25.0153 82.7795 24.9976 82.7297 24.9713 82.6842C24.69 82.197 24.4088 81.7099 24.1074 81.2326C24.007 81.0835 23.9969 80.9543 24.0773 80.7952C24.3485 80.2782 24.6097 79.7612 24.8708 79.2343C24.901 79.1746 24.9211 79.105 24.9512 78.9957C24.9189 78.9983 24.8895 79.0003 24.8622 79.0021C24.7876 79.007 24.7288 79.0109 24.6699 79.0255C24.1476 79.1249 23.6353 79.2343 23.1231 79.3436C22.8619 79.4033 22.661 79.3635 22.4601 79.1547C22.2056 78.8962 21.9422 78.6465 21.6788 78.3969C21.5471 78.2721 21.4154 78.1472 21.2849 78.0213C21.2577 77.9944 21.2275 77.9733 21.1945 77.9502C21.1664 77.9306 21.1363 77.9095 21.1041 77.8821L21.0965 77.9094C21.0705 78.0034 21.053 78.0671 21.0438 78.1307C20.9735 78.6974 20.9032 79.274 20.863 79.8408C20.8529 80.0595 20.7625 80.1589 20.5817 80.2484C20.2018 80.4299 19.8304 80.6199 19.4425 80.8184ZM21.3652 78.6993C21.3713 78.6718 21.378 78.6416 21.3853 78.6079C21.8273 79.0454 22.2391 79.4331 22.671 79.8308C22.5817 79.8464 22.5033 79.8566 22.423 79.867C22.3498 79.8765 22.2751 79.8862 22.1889 79.9004C22.2154 79.9342 22.2362 79.9665 22.2551 79.9959C22.2862 80.0443 22.3121 80.0844 22.3496 80.1092C22.5605 80.2583 22.6108 80.4373 22.5204 80.6659C22.505 80.7116 22.5014 80.7574 22.496 80.8254C22.4944 80.8462 22.4926 80.869 22.4902 80.8946C22.5328 80.8755 22.5709 80.8622 22.6051 80.8503C22.6596 80.8313 22.7043 80.8158 22.7413 80.7852C22.9322 80.6361 23.103 80.6361 23.2938 80.7852C23.3249 80.8098 23.3597 80.8268 23.4079 80.8503C23.4377 80.8648 23.4726 80.8818 23.5148 80.9046C23.5062 80.7767 23.4976 80.6927 23.489 80.6087C23.4875 80.5947 23.4861 80.5807 23.4847 80.5665C23.4545 80.4074 23.4545 80.2583 23.6353 80.1589C23.6899 80.1319 23.7305 80.0729 23.7761 80.0067C23.7977 79.9753 23.8204 79.9423 23.8463 79.9103C23.8036 79.9027 23.7625 79.8954 23.7226 79.8883C23.5559 79.8587 23.4115 79.8331 23.2737 79.801C23.2536 79.791 23.2436 79.7711 23.2335 79.7513C23.3842 79.6021 23.8865 79.4828 24.2983 79.4928C24.0574 79.9994 23.8165 80.4961 23.5756 80.9929L23.5751 80.994L23.5756 80.9949C23.8466 81.4719 24.1177 81.9488 24.4188 82.4854C24.2838 82.4692 24.1587 82.4563 24.0396 82.444C23.8663 82.4261 23.7056 82.4095 23.5449 82.3859C23.4177 82.3727 23.2905 82.3506 23.1633 82.3285C23.0997 82.3175 23.036 82.3064 22.9724 82.2965C22.7715 82.2666 22.6208 82.3163 22.4902 82.4754C22.3295 82.6677 22.1598 82.8511 21.9901 83.0345C21.9053 83.1262 21.8205 83.2178 21.7369 83.3106C21.7195 83.3312 21.7033 83.3554 21.6867 83.3803C21.6553 83.4273 21.6222 83.4769 21.5762 83.5094C21.4302 83.2629 21.4163 83.0164 21.4028 82.7762C21.4005 82.7354 21.3983 82.6948 21.3953 82.6544C21.3853 82.5052 21.5259 82.4754 21.6565 82.4953C21.7469 82.5052 21.8474 82.5251 21.998 82.555C21.9713 82.5021 21.9446 82.4534 21.9196 82.4079C21.8506 82.2821 21.7945 82.1799 21.7871 82.0777C21.78 81.9864 21.8281 81.895 21.8817 81.7931C21.904 81.7509 21.9272 81.7068 21.9478 81.6602C21.8848 81.6671 21.8254 81.6788 21.7693 81.69C21.6644 81.7108 21.5708 81.7293 21.4858 81.7099C21.3963 81.6877 21.3179 81.6163 21.23 81.5362C21.1995 81.5084 21.1678 81.4795 21.1342 81.4514C21.1176 81.506 21.098 81.5577 21.077 81.6129C21.0599 81.6582 21.0418 81.7059 21.0237 81.7596C20.6827 81.6096 20.3532 81.4596 20.0049 81.3011C19.8915 81.2494 19.7761 81.1969 19.6576 81.1432C19.7019 81.1153 19.7398 81.089 19.7744 81.0649C19.8261 81.0289 19.8706 80.998 19.9188 80.9742C20.2703 80.7853 20.6219 80.6063 20.9735 80.4273C21.1241 80.3478 21.1945 80.2484 21.2045 80.0794C21.225 79.8157 21.2548 79.5475 21.2843 79.281C21.2983 79.1555 21.3122 79.0303 21.325 78.9062C21.3327 78.8459 21.346 78.7856 21.3652 78.6993ZM4.72646 38.8031C4.88166 38.538 5.0142 38.2598 5.1493 37.9763C5.24353 37.7785 5.339 37.5782 5.44426 37.3778C4.70095 37.4573 4.55028 37.4971 4.35943 37.6363C4.42065 37.7905 4.54354 37.7891 4.67343 37.7876C4.77797 37.7864 4.88705 37.7852 4.97216 37.865C4.94135 37.8924 4.91244 37.9189 4.88454 37.9445C4.82148 38.0023 4.76363 38.0553 4.70095 38.1036C4.61055 38.1732 4.56032 38.2627 4.6005 38.382C4.61652 38.4358 4.63253 38.4877 4.64822 38.5385C4.67591 38.6282 4.70259 38.7147 4.72646 38.8031ZM4.71961 38.8486C4.67406 38.8266 4.62757 38.8053 4.58082 38.784C4.48964 38.7424 4.39744 38.7003 4.3092 38.6504C4.19871 38.5907 4.11835 38.5808 4.00786 38.6504C3.95348 38.6827 3.89322 38.715 3.82707 38.7504C3.77102 38.7805 3.71075 38.8128 3.64625 38.8492C3.64625 38.803 3.64474 38.7657 3.64348 38.7345C3.64148 38.6852 3.6401 38.651 3.64625 38.6206C3.72661 38.382 3.69647 38.1831 3.4554 38.0439C3.42389 38.0252 3.40029 37.9869 3.37219 37.9414C3.3555 37.9143 3.33723 37.8847 3.31477 37.855C3.50562 37.8351 3.64625 37.8252 3.82706 37.8153C3.64254 37.6482 3.4703 37.4796 3.29953 37.3124C3.03339 37.0519 2.77084 36.7949 2.47101 36.5526C2.45951 36.6513 2.448 36.7478 2.43671 36.8426C2.38883 37.2442 2.34472 37.6142 2.32034 37.9843C2.3103 38.1732 2.23998 38.2825 2.07927 38.3621C1.74779 38.5212 1.42636 38.6902 1.10492 38.8592C1.04036 38.894 0.97922 38.9323 0.909486 38.9759C0.859887 39.007 0.805938 39.0407 0.743313 39.0779C1.0086 39.1983 1.26172 39.3096 1.50938 39.4185C1.71182 39.5075 1.91061 39.5949 2.1094 39.6844C2.11672 39.6684 2.12383 39.6529 2.13079 39.6377C2.17156 39.5487 2.20713 39.471 2.25003 39.3861C2.29291 39.4188 2.33255 39.4546 2.37107 39.4895C2.44984 39.5608 2.52394 39.6278 2.61164 39.6546C2.69791 39.6743 2.79294 39.6549 2.89675 39.6338C2.95007 39.6229 3.00571 39.6116 3.06365 39.6048C3.04918 39.643 3.04166 39.6744 3.03553 39.6999C3.02889 39.7275 3.02387 39.7484 3.01343 39.7639C2.8728 39.9528 2.86276 40.1218 3.02347 40.3008C3.04376 40.3276 3.05039 40.3634 3.05869 40.4082C3.06272 40.4299 3.06714 40.4538 3.0737 40.4798C2.93307 40.4599 2.83262 40.4499 2.72213 40.44C2.53128 40.43 2.47101 40.4698 2.4911 40.6488C2.51119 40.8973 2.55137 41.1459 2.60159 41.4541C2.6512 41.4094 2.69271 41.3748 2.72975 41.3439C2.77522 41.306 2.81397 41.2737 2.85271 41.2354C2.93809 41.1459 3.02096 41.0539 3.10383 40.962C3.1867 40.87 3.26957 40.778 3.35495 40.6885C3.39659 40.6446 3.43747 40.5945 3.47885 40.5439C3.58719 40.4112 3.699 40.2744 3.8371 40.2312C3.98425 40.1802 4.16374 40.2146 4.34004 40.2484C4.40442 40.2607 4.46839 40.2729 4.53019 40.2809C4.75051 40.3073 4.96639 40.3382 5.19259 40.3705C5.30671 40.3868 5.42345 40.4034 5.54471 40.4201C5.51079 40.3462 5.48144 40.2905 5.45359 40.2376C5.44021 40.2122 5.42717 40.1874 5.41413 40.1616C5.3187 39.9926 5.22327 39.826 5.12784 39.6595C5.03242 39.493 4.937 39.3265 4.84158 39.1574C4.81471 39.1043 4.79358 39.0454 4.77206 38.9854C4.75571 38.9398 4.73913 38.8935 4.71961 38.8486ZM85.5631 25.7842C85.6278 25.8167 85.6941 25.8501 85.7622 25.8847C85.7535 25.8203 85.7486 25.767 85.7442 25.7193C85.7384 25.6564 85.7334 25.6031 85.722 25.5466C85.7085 25.4717 85.6957 25.396 85.6828 25.3199C85.648 25.1137 85.6127 24.905 85.5613 24.7016C85.5111 24.5127 85.5714 24.3834 85.712 24.2542C85.943 24.0454 86.174 23.8366 86.395 23.6179C86.424 23.5891 86.4531 23.5538 86.4859 23.5137C86.51 23.4844 86.5361 23.4526 86.5658 23.419C86.5289 23.4086 86.5002 23.3981 86.4756 23.3891C86.4533 23.381 86.4342 23.374 86.4151 23.3693C86.3203 23.3546 86.2247 23.3391 86.1284 23.3235C85.8982 23.2861 85.6645 23.2482 85.4307 23.2202C85.2198 23.1903 85.0792 23.1108 84.9988 22.902C84.9385 22.7429 84.8604 22.5927 84.7823 22.4425C84.7432 22.3673 84.7042 22.2922 84.6673 22.216C84.632 22.1461 84.5967 22.0812 84.551 21.997C84.5316 21.9613 84.5104 21.9223 84.4865 21.878C84.4227 21.9983 84.3607 22.1122 84.3009 22.2222C84.1629 22.476 84.0361 22.709 83.924 22.9517C83.8336 23.1208 83.7332 23.2003 83.5323 23.2202C83.2933 23.2394 83.0544 23.2709 82.802 23.3041C82.6619 23.3226 82.5177 23.3416 82.3671 23.3594C82.4041 23.4042 82.4344 23.444 82.4614 23.4794C82.5003 23.5306 82.5324 23.5727 82.568 23.6079C82.7689 23.8266 82.9798 24.0354 83.2008 24.2442C83.3314 24.3735 83.3816 24.5127 83.3314 24.7016C83.251 24.9998 83.2008 25.2981 83.1506 25.6063C83.1438 25.6531 83.1507 25.7044 83.159 25.7662C83.163 25.7963 83.1674 25.829 83.1707 25.8648C83.2803 25.8061 83.3864 25.7501 83.4896 25.6956C83.7361 25.5654 83.9657 25.4441 84.1852 25.318C84.376 25.2086 84.5267 25.2086 84.7175 25.3279C84.9831 25.4922 85.2555 25.6293 85.5631 25.7842ZM51.0052 4.88082C51.0218 5.03707 51.0386 5.19449 51.0575 5.35412C51.0996 5.34024 51.1265 5.33497 51.1452 5.3313C51.1666 5.32709 51.1774 5.32498 51.1881 5.31435C51.2775 5.23099 51.3668 5.14827 51.4559 5.0657C51.7177 4.8233 51.978 4.58222 52.2328 4.33008C52.3835 4.18095 52.5241 4.11135 52.735 4.171C53.187 4.28037 53.639 4.36985 54.0911 4.45933C54.13 4.46575 54.1689 4.46387 54.2132 4.46174C54.2375 4.46057 54.2635 4.45933 54.292 4.45933C54.2891 4.44264 54.2871 4.42673 54.2852 4.41182C54.2803 4.37342 54.2763 4.34162 54.2618 4.32014C54.213 4.21863 54.1642 4.11654 54.1152 4.01414C53.9627 3.69531 53.8088 3.37355 53.6491 3.05748C53.5486 2.85864 53.5486 2.69956 53.6792 2.50072C53.8754 2.19783 54.0532 1.88887 54.2317 1.57859C54.2817 1.49166 54.3318 1.40463 54.3824 1.31761C54.4007 1.29343 54.4079 1.2619 54.4152 1.22972C54.4199 1.20898 54.4247 1.18796 54.4326 1.16847C54.4094 1.16388 54.3905 1.15716 54.3739 1.15127C54.3545 1.1444 54.3383 1.13865 54.3221 1.13865C53.8299 1.1983 53.3377 1.25795 52.8556 1.33749C52.6647 1.36732 52.5241 1.32755 52.4035 1.17841L51.4392 0.104662C51.4163 0.0743552 51.3758 0.0555964 51.3223 0.0307843C51.3056 0.0230383 51.2876 0.0147023 51.2685 0.00524073C51.2477 0.114535 51.2268 0.222545 51.2062 0.329627C51.1272 0.738817 51.0509 1.13445 50.9872 1.53633C50.947 1.765 50.8466 1.89425 50.6256 1.97379C50.2037 2.1428 49.7819 2.3317 49.36 2.52061C49.3288 2.53296 49.3053 2.55681 49.2776 2.58503C49.2607 2.60224 49.2422 2.62108 49.2194 2.63991C49.3822 2.7275 49.54 2.81509 49.6955 2.90137C49.9812 3.05994 50.259 3.2141 50.5453 3.35575C50.7562 3.45517 50.8968 3.56453 50.8868 3.82303C50.8868 3.94233 50.9046 4.06163 50.9225 4.18093C50.9314 4.24059 50.9404 4.30025 50.9471 4.3599C50.9683 4.53306 50.9867 4.70621 51.0052 4.88082ZM51.5773 4.49173C51.4973 4.56744 51.4146 4.64559 51.3288 4.72776C51.3051 4.49404 51.2746 4.28092 51.2453 4.0763C51.2247 3.93275 51.2047 3.79338 51.1881 3.65401C51.1781 3.40546 51.0776 3.26627 50.8566 3.16685C50.6099 3.04866 50.3757 2.91799 50.1192 2.77483C50.052 2.73734 49.9833 2.699 49.9124 2.6598C49.9586 2.63486 49.9995 2.61166 50.0374 2.5902C50.0901 2.56032 50.1369 2.53381 50.1836 2.51066C50.2621 2.47613 50.3406 2.44077 50.4194 2.40529C50.6127 2.3182 50.8075 2.23046 51.0073 2.15275C51.158 2.09309 51.2283 2.01356 51.2484 1.85448C51.2796 1.62591 51.3224 1.40117 51.3673 1.16596C51.3946 1.02264 51.4227 0.87542 51.4493 0.721076C51.4733 0.738072 51.4974 0.752743 51.5202 0.76668C51.5642 0.793506 51.6037 0.817609 51.6301 0.850324C51.6729 0.896769 51.7162 0.943214 51.7595 0.989743C51.9296 1.17229 52.1008 1.35613 52.2529 1.54627C52.3734 1.69541 52.504 1.73518 52.6747 1.70535C52.8154 1.68546 52.9535 1.66807 53.0916 1.65067C53.2297 1.63327 53.3678 1.61587 53.5085 1.59599C53.5259 1.59407 53.5437 1.59216 53.5621 1.59017C53.6394 1.58185 53.7283 1.57227 53.85 1.55622C53.8148 1.62085 53.7872 1.67554 53.7621 1.72525C53.737 1.77496 53.7144 1.81969 53.6893 1.86442C53.6491 1.93402 53.6064 2.00113 53.5637 2.06824C53.521 2.13535 53.4783 2.20246 53.4382 2.27205C53.2749 2.56091 53.1896 2.65448 53.1811 2.7546C53.1723 2.85779 53.245 2.96794 53.398 3.30604C53.4655 3.45986 53.5422 3.61368 53.6249 3.7796C53.6651 3.86034 53.7068 3.94395 53.7495 4.03181C53.7039 4.0277 53.6651 4.02529 53.631 4.02318C53.5826 4.02017 53.5438 4.01776 53.5085 4.01193L52.6346 3.80314C52.4437 3.75343 52.283 3.7932 52.1424 3.94233C51.9628 4.12715 51.7782 4.30181 51.5773 4.49173ZM7.24187 45.14C7.3178 45.0493 7.39707 44.9545 7.48335 44.8543C7.41009 44.8446 7.34871 44.835 7.29458 44.8264C7.23738 44.8174 7.18828 44.8097 7.14183 44.8046C7.09318 44.8022 7.04395 44.7992 6.99441 44.7962C6.83937 44.7868 6.68135 44.7772 6.5291 44.7847C6.33825 44.7947 6.2378 44.7151 6.15744 44.556C6.04695 44.3373 5.91637 44.1285 5.78579 43.9197C5.75637 43.8761 5.72157 43.8431 5.67745 43.8012C5.6613 43.7859 5.64391 43.7694 5.62507 43.7507C5.5899 43.8378 5.55473 43.9222 5.5203 44.0049C5.43675 44.2056 5.35762 44.3958 5.29359 44.5859C5.22328 44.7748 5.12283 44.8841 4.91189 44.914C4.71137 44.9434 4.50536 44.9999 4.27355 45.0636C4.19184 45.086 4.10692 45.1094 4.01791 45.1327C4.08604 45.192 4.15048 45.2499 4.21262 45.3057C4.37952 45.4557 4.52988 45.5907 4.69091 45.6994C4.90185 45.8386 4.97216 45.9977 4.93198 46.2363C4.90755 46.3935 4.89797 46.5506 4.88744 46.7235C4.88066 46.8349 4.87348 46.9528 4.86167 47.0813C4.95132 47.0288 5.03658 46.9827 5.11709 46.9392C5.28013 46.8511 5.42367 46.7736 5.54471 46.6737C5.77574 46.4848 5.99672 46.4848 6.24784 46.624C6.37837 46.6917 6.51658 46.7479 6.66725 46.8092C6.76008 46.847 6.85763 46.8867 6.96102 46.9322C6.95715 46.8824 6.95626 46.8399 6.95548 46.8026C6.95424 46.7431 6.95327 46.6966 6.94093 46.6538C6.89071 46.4351 6.84049 46.2164 6.77017 46.0076C6.7099 45.8386 6.74004 45.6994 6.87062 45.5701C6.99649 45.4331 7.11448 45.2921 7.24187 45.14ZM69.3982 3.3604C69.3685 3.41912 69.339 3.47754 69.3089 3.53471C69.329 3.55459 69.339 3.57447 69.3491 3.59436C69.3845 3.59046 69.42 3.58694 69.4553 3.58343C69.6004 3.56905 69.7441 3.55479 69.8814 3.51482C70.2732 3.38557 70.5544 3.51482 70.7955 3.82303C70.8084 3.83959 70.8213 3.85681 70.8344 3.87436C70.9237 3.9938 71.0247 4.12894 71.2174 4.18095C71.2282 4.09545 71.2429 4.0125 71.2572 3.9312C71.283 3.78559 71.3078 3.64523 71.3078 3.50488C71.3178 3.23644 71.4283 3.07737 71.6794 2.97795C71.8402 2.91166 71.992 2.83654 72.1616 2.75258C72.2464 2.7106 72.3357 2.66642 72.4328 2.62003C72.34 2.57409 72.2548 2.52924 72.1744 2.4869C72.0112 2.40094 71.8677 2.32534 71.7196 2.27205C71.4585 2.18257 71.348 2.01356 71.3379 1.75506C71.3279 1.58604 71.3078 1.41703 71.2877 1.24801C71.2877 1.20127 71.2692 1.14843 71.2419 1.07035C71.2343 1.04878 71.2261 1.02528 71.2174 0.999456C71.1463 1.0732 71.0774 1.14016 71.0117 1.20415C70.8823 1.32996 70.7648 1.44429 70.6649 1.5761C70.5243 1.75506 70.3736 1.80477 70.1627 1.75506C69.9718 1.70535 69.781 1.67552 69.5901 1.6457C69.5389 1.63936 69.4877 1.6411 69.4261 1.6432C69.391 1.64439 69.3526 1.6457 69.3089 1.6457C69.3602 1.73996 69.4074 1.83025 69.4531 1.91755C69.5328 2.06964 69.6076 2.21262 69.6906 2.35159C69.8011 2.53055 69.8111 2.66974 69.6906 2.8487C69.5776 3.00528 69.4872 3.18424 69.3982 3.3604ZM42.5315 3.69858C42.5568 3.74817 42.5829 3.79945 42.6099 3.85285C42.6369 3.80206 42.6639 3.75485 42.6898 3.7097C42.76 3.58694 42.8216 3.47931 42.851 3.35575C42.9615 2.98789 43.2025 2.81887 43.5842 2.83875C43.6847 2.8487 43.7851 2.82881 43.8755 2.80893C43.9128 2.80278 43.95 2.78904 44.0015 2.77006C44.0333 2.75832 44.0706 2.74458 44.1166 2.72939C44.052 2.67259 43.9939 2.61832 43.9389 2.56704C43.84 2.47471 43.7514 2.39207 43.6545 2.32176C43.4135 2.1428 43.3331 1.91413 43.4135 1.62581C43.446 1.5101 43.4658 1.39438 43.4894 1.25717C43.5023 1.18217 43.5163 1.10075 43.534 1.0094C43.4592 1.04792 43.3888 1.0829 43.3223 1.11593C43.1658 1.19374 43.0311 1.26072 42.9112 1.33749C42.7103 1.46674 42.5396 1.47668 42.3286 1.33749C42.1941 1.24871 42.0373 1.17644 41.8541 1.09201C41.7911 1.06298 41.725 1.03252 41.6556 0.999456C41.6625 1.04271 41.6684 1.08231 41.6738 1.11886C41.692 1.24195 41.705 1.33043 41.736 1.40708C41.8867 1.81471 41.8063 2.15275 41.4447 2.43113L41.4365 2.437C41.3279 2.51511 41.2031 2.60478 41.1835 2.78904C41.2839 2.802 41.3805 2.81308 41.4749 2.82392C41.5978 2.83802 41.7171 2.85171 41.8364 2.86858C42.0474 2.88847 42.1981 2.968 42.2784 3.17679C42.3501 3.34244 42.4345 3.50809 42.5315 3.69858ZM76.9425 7.14412C76.7618 7.32294 76.5811 7.5018 76.3402 7.7303C76.4378 7.74695 76.5264 7.76472 76.6094 7.78137C76.774 7.8144 76.9165 7.84299 77.0634 7.8496C77.3447 7.83966 77.4753 7.96891 77.5657 8.19758C77.6159 8.32682 77.6862 8.46601 77.7565 8.59526C77.7849 8.65132 77.822 8.6986 77.8848 8.77836L77.8972 8.79411C78.0177 8.55549 78.1181 8.35665 78.2085 8.15781C78.2889 7.95896 78.4094 7.83966 78.6606 7.83966C78.8 7.83966 78.9435 7.81193 79.1011 7.78148C79.1932 7.76369 79.2901 7.74496 79.3938 7.7303C79.3257 7.6661 79.2639 7.60605 79.2057 7.54948C79.0835 7.43082 78.9771 7.32744 78.8615 7.23319C78.6806 7.08406 78.6405 6.92498 78.6907 6.69631C78.7014 6.64953 78.7145 6.60276 78.7276 6.55549C78.7761 6.38175 78.8263 6.20145 78.771 5.99042C78.7159 6.01771 78.6631 6.04266 78.6119 6.06688C78.5138 6.11324 78.4215 6.1569 78.3291 6.20915C78.0724 6.34864 77.9796 6.42073 77.8852 6.42292C77.7913 6.42509 77.6957 6.35798 77.4351 6.21909C77.2945 6.14949 77.1538 6.0799 76.9429 5.97053C76.9589 6.06244 76.9719 6.14728 76.984 6.22698C77.01 6.39729 77.0324 6.54414 77.0735 6.68637C77.1237 6.87527 77.0835 7.01446 76.9429 7.14371L76.9425 7.14412ZM55.4927 91.1066C55.5748 91.2245 55.6624 91.3503 55.7585 91.493C55.8288 91.2842 55.869 91.1549 55.8991 91.0058C56.09 90.449 56.09 90.449 56.6625 90.2999C56.7328 90.28 56.8007 90.2576 56.876 90.2328C56.9513 90.2079 57.0342 90.1806 57.1346 90.1508C57.0377 90.0788 56.9522 90.0117 56.8728 89.9494C56.7546 89.8567 56.6501 89.7747 56.542 89.7034C56.3411 89.5642 56.2206 89.4349 56.2808 89.1565C56.321 88.9478 56.3511 88.7092 56.2507 88.4705C56.1721 88.5261 56.0964 88.5788 56.0224 88.6304C55.8976 88.7173 55.7778 88.8007 55.658 88.8881C55.4973 89.0074 55.3366 89.0273 55.1458 88.9478C54.9875 88.8732 54.8124 88.8154 54.6245 88.7534C54.5619 88.7327 54.4979 88.7116 54.4326 88.6893C54.4349 88.7148 54.4367 88.7377 54.4384 88.7584C54.4437 88.8265 54.4473 88.8722 54.4627 88.9179C54.4715 88.9483 54.4798 88.9792 54.4881 89.0102C54.518 89.1213 54.5484 89.2345 54.6033 89.3355C54.744 89.6238 54.6837 89.8426 54.4627 90.0513C54.3676 90.1455 54.2862 90.2533 54.1969 90.3717C54.1542 90.4283 54.1097 90.4873 54.0609 90.5484C54.1105 90.5529 54.1521 90.5594 54.1891 90.5652C54.2346 90.5722 54.2733 90.5783 54.312 90.5783C54.5029 90.5882 54.6837 90.5882 54.8645 90.5783C55.0554 90.5683 55.1859 90.6479 55.2864 90.8069C55.3523 90.9048 55.4204 91.0026 55.4927 91.1066ZM55.7135 90.5663C55.6937 90.6261 55.6733 90.6877 55.648 90.7473C55.6039 90.6881 55.5668 90.6299 55.5322 90.5757C55.4564 90.4569 55.393 90.3576 55.2964 90.3098C55.2042 90.2537 55.077 90.257 54.9501 90.2603C54.8972 90.2617 54.8444 90.263 54.7942 90.2601C54.7525 90.1446 54.8215 90.0839 54.8864 90.0268C54.8997 90.0151 54.9128 90.0035 54.9248 89.9917C55.0755 89.8525 55.1056 89.7133 55.0152 89.5343C54.9863 89.4843 54.973 89.424 54.9566 89.3497C54.9502 89.3207 54.9433 89.2895 54.9348 89.256C55.0029 89.272 55.0678 89.2922 55.13 89.3115C55.2604 89.352 55.3784 89.3887 55.4873 89.3753C55.5944 89.3611 55.6965 89.2917 55.8115 89.2134C55.8582 89.1816 55.9071 89.1484 55.9594 89.1168C55.9594 89.1615 55.9644 89.2013 55.969 89.2374C55.9756 89.2896 55.9813 89.3342 55.9694 89.3753C55.8991 89.6039 55.9996 89.7431 56.1804 89.8525C56.2297 89.8874 56.2741 89.9271 56.3239 89.9718C56.3451 89.9908 56.3673 90.0107 56.3913 90.0315C56.3355 90.0518 56.2789 90.0687 56.2237 90.0853C56.0899 90.1253 55.9643 90.1628 55.879 90.2402C55.7965 90.3151 55.7564 90.4366 55.7135 90.5663ZM1.81787 48.424C1.84414 48.4071 1.87395 48.3878 1.90851 48.3639C1.90924 48.3755 1.90997 48.3868 1.91069 48.3979C1.9198 48.539 1.9264 48.641 1.89846 48.7516C1.88842 48.8908 1.91855 48.9902 2.04913 49.0698C2.13667 49.1218 2.21658 49.1813 2.31545 49.255C2.33003 49.2658 2.34503 49.277 2.36052 49.2885C2.2884 49.3157 2.21628 49.3359 2.14777 49.3551C2.0159 49.3921 1.89743 49.4253 1.8181 49.4973C1.74251 49.5653 1.70923 49.6752 1.67002 49.8047C1.65191 49.8645 1.63254 49.9285 1.60716 49.9944C1.57844 49.9553 1.551 49.9226 1.52622 49.893C1.48167 49.8399 1.44572 49.797 1.42636 49.7458C1.35604 49.5569 1.21542 49.4973 1.02457 49.5172C0.966826 49.5235 0.904989 49.5218 0.831203 49.5197C0.789463 49.5185 0.743898 49.5172 0.693089 49.5172C0.721864 49.4806 0.74391 49.4456 0.764046 49.4137C0.793113 49.3676 0.818201 49.3278 0.853805 49.2984C1.03461 49.1394 1.06475 48.9704 0.954253 48.7616C0.932847 48.7263 0.921578 48.6809 0.906045 48.6184C0.899711 48.5929 0.892668 48.5646 0.883939 48.5329C0.928761 48.544 0.970805 48.551 1.00955 48.5574C1.07501 48.5682 1.13107 48.5775 1.17524 48.6025C1.37613 48.7019 1.54689 48.6721 1.69757 48.513C1.73051 48.4804 1.76778 48.4564 1.81787 48.424ZM35.4321 0.3501C35.4363 0.244242 35.4409 0.130865 35.448 0.00524073C35.4087 0.0274768 35.3725 0.0473817 35.3386 0.0660416C35.2512 0.114127 35.1788 0.153945 35.1065 0.204084C35.0434 0.244677 34.9813 0.294097 34.9189 0.343719C34.7827 0.452091 34.6453 0.561427 34.4937 0.581886C34.3436 0.595391 34.1843 0.521755 34.0251 0.448198C33.9499 0.413456 33.8748 0.378732 33.8006 0.353216C33.7342 0.328561 33.6609 0.310699 33.5694 0.288399C33.5502 0.283722 33.5302 0.27885 33.5093 0.273679C33.5477 0.387495 33.5788 0.490587 33.608 0.587502C33.6477 0.719164 33.684 0.839426 33.7303 0.959688C33.8207 1.17841 33.7906 1.35737 33.6198 1.53633C33.5195 1.64182 33.4349 1.75506 33.339 1.8833C33.2813 1.96052 33.2195 2.04318 33.1477 2.13286C33.1888 2.13406 33.2286 2.13525 33.2672 2.13641C33.5496 2.14491 33.7706 2.15155 33.9915 2.1428C34.1823 2.13286 34.2928 2.20246 34.3832 2.35159C34.4723 2.49009 34.5694 2.6246 34.6745 2.77027C34.7354 2.85465 34.7991 2.94278 34.8654 3.0376C34.9019 2.92118 34.9384 2.81448 34.9729 2.71359C35.0239 2.56461 35.0705 2.42827 35.1065 2.29194C35.1567 2.08315 35.2672 1.97379 35.4982 1.93402C35.6742 1.90499 35.8447 1.84949 36.0373 1.78683C36.1086 1.76364 36.1829 1.73946 36.2616 1.71529C36.2044 1.67335 36.1499 1.63318 36.0974 1.5945C35.901 1.44979 35.7328 1.32592 35.5585 1.20824C35.4379 1.1287 35.3877 1.03922 35.3978 0.890092C35.4173 0.715873 35.4242 0.545841 35.4321 0.3501ZM34.0849 0.995106C34.0664 0.936422 34.0471 0.874906 34.0317 0.810555C34.125 0.831549 34.2094 0.86141 34.287 0.888903C34.3933 0.92651 34.487 0.959688 34.5741 0.959688C34.68 0.953133 34.7729 0.890406 34.8814 0.817084C34.9375 0.779186 34.9978 0.738457 35.0663 0.701192C35.0663 0.774696 35.0595 0.844832 35.0531 0.910468C35.0405 1.04014 35.0296 1.15225 35.0763 1.23807C35.1235 1.33142 35.2203 1.39794 35.3305 1.47361C35.3846 1.51078 35.442 1.55015 35.4982 1.59599C35.4582 1.60918 35.4215 1.62346 35.3867 1.63703C35.3166 1.66436 35.2539 1.68876 35.1868 1.69541C35.006 1.71529 34.9056 1.81471 34.8654 1.99367C34.8492 2.0739 34.8199 2.14766 34.7828 2.24106C34.7739 2.2634 34.7646 2.28687 34.7549 2.31182C34.7125 2.25697 34.6754 2.20003 34.6399 2.14541C34.5658 2.03172 34.4983 1.92809 34.4033 1.87437C34.3061 1.81941 34.1802 1.81666 34.042 1.81366C33.9803 1.81231 33.916 1.81091 33.8509 1.80477C33.8876 1.74861 33.9287 1.69683 33.9684 1.6469C34.0482 1.54656 34.122 1.45364 34.1422 1.34743C34.163 1.24426 34.1262 1.12682 34.0849 0.995106ZM15.3425 7.30956C15.3468 7.20372 15.3514 7.09036 15.3584 6.96475C15.3191 6.98699 15.2829 7.0069 15.249 7.02556C15.1616 7.07364 15.0893 7.11346 15.0169 7.16359C14.9538 7.20419 14.8917 7.2536 14.8294 7.30323C14.6932 7.4116 14.5558 7.52094 14.4042 7.54139C14.2541 7.5549 14.0947 7.48126 13.9356 7.40771C13.8604 7.37296 13.7852 7.33824 13.7111 7.31272C13.6447 7.28807 13.5714 7.27021 13.4799 7.2479C13.4607 7.24323 13.4407 7.23836 13.4198 7.23319C13.4581 7.34699 13.4892 7.45008 13.5185 7.54699C13.5582 7.67866 13.5945 7.79893 13.6408 7.9192C13.7312 8.13792 13.7011 8.31688 13.5303 8.49584C13.43 8.60133 13.3453 8.71457 13.2495 8.8428C13.1917 8.92002 13.1299 9.00269 13.0582 9.09237C13.0993 9.09357 13.139 9.09476 13.1776 9.09592C13.4601 9.10442 13.681 9.11106 13.902 9.10231C14.0928 9.09237 14.2033 9.16196 14.2937 9.3111C14.3827 9.4496 14.4798 9.58411 14.585 9.72978C14.6459 9.81416 14.7095 9.90229 14.7759 9.99711C14.8124 9.88068 14.8489 9.77399 14.8834 9.67309C14.9343 9.52411 14.981 9.38778 15.0169 9.25144C15.0671 9.04266 15.1776 8.9333 15.4087 8.89353C15.5846 8.8645 15.7552 8.80899 15.9478 8.74633C16.0191 8.72314 16.0934 8.69897 16.1721 8.6748C16.1149 8.63285 16.0603 8.59267 16.0078 8.55398C15.8114 8.40928 15.6433 8.28542 15.4689 8.16775C15.3484 8.08821 15.2982 7.99873 15.3082 7.8496C15.3278 7.67537 15.3346 7.50532 15.3425 7.30956ZM13.9953 7.95462C13.9769 7.89593 13.9576 7.83441 13.9421 7.77006C14.0333 7.79057 14.1159 7.81953 14.1928 7.84648C14.3023 7.88487 14.4002 7.9192 14.4946 7.9192C14.5922 7.91276 14.6814 7.85206 14.7867 7.78038C14.844 7.74142 14.906 7.69921 14.9767 7.6607C14.9767 7.7342 14.9699 7.80434 14.9636 7.86998C14.951 7.99965 14.9401 8.11176 14.9868 8.19758C15.0339 8.29093 15.1308 8.35745 15.241 8.43313C15.2951 8.47029 15.3524 8.50966 15.4087 8.55549C15.3687 8.56869 15.332 8.58297 15.2972 8.59654C15.2271 8.62387 15.1644 8.64827 15.0973 8.65491C14.9165 8.6748 14.816 8.77422 14.7759 8.95318C14.7596 9.03341 14.7303 9.10717 14.6932 9.20057C14.6844 9.22291 14.6751 9.24638 14.6654 9.27133C14.623 9.21648 14.5859 9.15954 14.5503 9.10492C14.4763 8.99123 14.4088 8.8876 14.3138 8.83387C14.2166 8.77891 14.0907 8.77617 13.9525 8.77317C13.8907 8.77182 13.8265 8.77042 13.7613 8.76428C13.798 8.70811 13.8392 8.65634 13.8789 8.6064C13.9586 8.50607 14.0325 8.41315 14.0526 8.30694C14.0735 8.20377 14.0366 8.08633 13.9953 7.95462ZM7.30674 16.2575C7.31101 16.1517 7.31558 16.0383 7.32263 15.9127C7.28331 15.9349 7.24713 15.9548 7.21322 15.9735C7.12583 16.0216 7.05347 16.0614 6.98111 16.1115C6.91802 16.1521 6.85591 16.2015 6.79356 16.2512C6.65737 16.3595 6.51996 16.4689 6.36838 16.4893C6.21829 16.5028 6.05893 16.4292 5.89974 16.3556C5.82456 16.3209 5.74941 16.2862 5.67529 16.2607C5.60887 16.236 5.53558 16.2181 5.44408 16.1958C5.42489 16.1912 5.40489 16.1863 5.38399 16.1811C5.42232 16.2949 5.45343 16.398 5.48267 16.4949C5.5224 16.6266 5.55869 16.7469 5.60498 16.8671C5.69538 17.0859 5.66525 17.2648 5.49449 17.4438C5.39418 17.5493 5.30952 17.6625 5.21365 17.7907C5.15592 17.868 5.09412 17.9506 5.02238 18.0403C5.06348 18.0415 5.10327 18.0427 5.1419 18.0439C5.42434 18.0524 5.64524 18.059 5.86614 18.0503C6.05699 18.0403 6.16749 18.1099 6.25789 18.259C6.34693 18.3975 6.44403 18.532 6.54919 18.6777C6.6101 18.7621 6.67372 18.8502 6.74004 18.945C6.77654 18.8286 6.81305 18.7219 6.84757 18.621C6.89854 18.4721 6.94518 18.3357 6.98111 18.1994C7.03134 17.9906 7.14183 17.8812 7.37286 17.8415C7.54881 17.8124 7.71941 17.7569 7.912 17.6943C7.98328 17.6711 8.05757 17.6469 8.13626 17.6227C8.07905 17.5808 8.02452 17.5406 7.97202 17.5019C7.77561 17.3572 7.6075 17.2334 7.43313 17.1157C7.31259 17.0362 7.26237 16.9467 7.27241 16.7975C7.29197 16.6233 7.29883 16.4533 7.30674 16.2575ZM5.95951 16.9026C5.9411 16.8439 5.9218 16.7824 5.90632 16.718C5.99747 16.7385 6.08007 16.7675 6.15694 16.7944C6.26646 16.8328 6.36435 16.8671 6.45878 16.8671C6.5564 16.8607 6.64559 16.8 6.75092 16.7283C6.80817 16.6894 6.87019 16.6472 6.94093 16.6086C6.94093 16.6821 6.93413 16.7523 6.92776 16.8179C6.91517 16.9476 6.90429 17.0597 6.95098 17.1455C6.99814 17.2389 7.09499 17.3054 7.20519 17.3811C7.2593 17.4182 7.31662 17.4576 7.37286 17.5034C7.33287 17.5166 7.29621 17.5309 7.26139 17.5445C7.19124 17.5718 7.1286 17.5962 7.06147 17.6029C6.88066 17.6227 6.78022 17.7222 6.74004 17.9011C6.72383 17.9813 6.69453 18.0551 6.65744 18.1485C6.64856 18.1709 6.63924 18.1943 6.62955 18.2193C6.58717 18.1644 6.55008 18.1075 6.51451 18.0529C6.44046 17.9392 6.37297 17.8355 6.27798 17.7818C6.18081 17.7269 6.05486 17.7241 5.9167 17.7211C5.85492 17.7198 5.7907 17.7184 5.72552 17.7122C5.76223 17.6561 5.80339 17.6043 5.84308 17.5543C5.92284 17.454 5.99669 17.3611 6.01681 17.2549C6.03766 17.1517 6.00082 17.0343 5.95951 16.9026ZM59.3281 3.82984C59.3735 3.81766 59.4191 3.80543 59.465 3.7932C59.47 3.78326 59.4776 3.77083 59.4851 3.7584C59.4926 3.74598 59.5002 3.73355 59.5052 3.72361C59.4507 3.68163 59.398 3.63784 59.3457 3.59442C59.2247 3.49389 59.1061 3.39536 58.9728 3.32592C58.6916 3.18673 58.6313 2.98789 58.6514 2.69956C58.675 2.544 58.6801 2.38235 58.686 2.19556C58.6877 2.1436 58.6894 2.0897 58.6916 2.03344C58.5993 2.09664 58.5121 2.15364 58.429 2.20794C58.2768 2.30741 58.1385 2.39782 58.0085 2.50072C57.8478 2.62003 57.7172 2.63991 57.5364 2.56037C57.3788 2.48889 57.217 2.43439 57.0396 2.37467C56.9456 2.34303 56.8472 2.30993 56.7429 2.27205C56.7972 2.41531 56.8453 2.54647 56.891 2.67098C56.9469 2.82299 56.9991 2.96509 57.0543 3.10719C57.1045 3.24638 57.0844 3.3458 56.984 3.45517C56.8433 3.61424 56.7027 3.77332 56.5721 3.94233C56.5391 3.98324 56.5196 4.0376 56.4914 4.11651C56.4853 4.1335 56.4788 4.15163 56.4717 4.171C56.5466 4.171 56.6171 4.17277 56.6844 4.17447C56.8427 4.17844 56.9836 4.18199 57.1246 4.16106C57.436 4.12129 57.5967 4.26048 57.7373 4.50904C57.8205 4.65716 57.9174 4.79167 58.0166 4.92946C58.0373 4.95814 58.0581 4.98697 58.0788 5.01609C58.0939 5.01609 58.1065 5.0136 58.119 5.01112C58.1316 5.00863 58.1441 5.00615 58.1592 5.00615C58.2496 4.75759 58.33 4.50904 58.4103 4.26048C58.4605 4.11135 58.5409 4.03181 58.6916 3.99205C58.9068 3.94288 59.1153 3.88695 59.3281 3.82984ZM58.0829 4.20164C58.0684 4.23231 58.0529 4.26503 58.0387 4.30025C58.0237 4.28543 58.0096 4.27196 57.9965 4.25937C57.9479 4.21282 57.9117 4.17818 57.888 4.13124C57.7875 3.87274 57.5967 3.7932 57.3255 3.84291C57.2905 3.85157 57.2403 3.84515 57.1748 3.83678C57.1651 3.83554 57.155 3.83425 57.1447 3.83297C57.1801 3.7698 57.2206 3.71159 57.2594 3.6557C57.3306 3.55327 57.3964 3.45867 57.4159 3.35575C57.4298 3.25266 57.3957 3.14008 57.3567 3.01143C57.3393 2.95396 57.3209 2.89328 57.3054 2.82881C57.3328 2.83621 57.3596 2.843 57.3857 2.84962C57.4651 2.86972 57.5387 2.88839 57.6067 2.91829C57.7875 3.00777 57.9382 2.98789 58.0788 2.8487C58.1233 2.81094 58.1719 2.78115 58.2321 2.74419C58.267 2.72276 58.3058 2.69893 58.35 2.66974C58.35 2.72707 58.3527 2.77794 58.3551 2.82468C58.3593 2.90764 58.3629 2.97759 58.35 3.04754C58.3199 3.21656 58.3802 3.30604 58.5108 3.39552C58.5643 3.43528 58.6179 3.47947 58.6804 3.53102C58.7117 3.5568 58.7451 3.58442 58.782 3.61424C58.7327 3.63048 58.6936 3.64838 58.6597 3.66387C58.6105 3.68632 58.5724 3.70372 58.5308 3.70372C58.2998 3.71366 58.1893 3.83297 58.1391 4.0517C58.1326 4.09664 58.1094 4.14573 58.0829 4.20164ZM90.5693 28.2579C90.6136 28.2416 90.6583 28.2251 90.7042 28.2111C90.7096 28.1953 90.7121 28.1766 90.7148 28.1567C90.7171 28.1391 90.7196 28.1204 90.7243 28.1018C90.666 28.0633 90.6092 28.0233 90.5528 27.9836C90.4633 27.9207 90.3747 27.8584 90.2823 27.8035C90.1317 27.714 90.0614 27.6047 90.0815 27.4356C90.0849 27.3944 90.0896 27.3544 90.0942 27.3148C90.103 27.2396 90.1116 27.1658 90.1116 27.0877C90.1116 27.026 90.0995 26.9704 90.0848 26.9022C90.0805 26.8824 90.0759 26.8615 90.0714 26.8391C90.0161 26.8787 89.9645 26.9145 89.9158 26.9483C89.8055 27.025 89.71 27.0913 89.6194 27.1672C89.4687 27.2965 89.3181 27.2965 89.1473 27.207C89.042 27.1474 88.9255 27.1046 88.7977 27.0576C88.7548 27.0419 88.7106 27.0256 88.6651 27.0081C88.6213 27.2163 88.6922 27.3791 88.7577 27.5295C88.7673 27.5515 88.7767 27.5732 88.7857 27.5947C88.8459 27.7737 88.8259 27.893 88.7053 28.0322C88.6819 28.0595 88.6567 28.0865 88.6311 28.1139C88.5355 28.216 88.4335 28.3249 88.3939 28.4895C88.4391 28.4942 88.4832 28.4995 88.5264 28.5047C88.6657 28.5213 88.796 28.5369 88.9263 28.5293C89.1172 28.5193 89.2477 28.5889 89.3482 28.758C89.366 28.7874 89.3827 28.818 89.3996 28.849C89.4683 28.975 89.5405 29.1076 89.7098 29.1954C89.7279 29.1284 89.7479 29.0654 89.7673 29.0047C89.791 28.9301 89.8137 28.859 89.8303 28.7878C89.8806 28.5094 90.0413 28.3702 90.3225 28.3304C90.4072 28.3176 90.4876 28.2879 90.5693 28.2579ZM39.341 4.39671C39.3853 4.3804 39.43 4.36395 39.4759 4.34996C39.4809 4.33505 39.4835 4.31765 39.486 4.30025C39.4885 4.28285 39.491 4.26545 39.496 4.25054C39.4377 4.21207 39.3809 4.17211 39.3245 4.13239C39.235 4.06946 39.1464 4.00713 39.0541 3.95228C38.9034 3.8628 38.8331 3.75343 38.8532 3.58442C38.8566 3.54323 38.8613 3.50322 38.8659 3.46359C38.8747 3.38841 38.8833 3.31456 38.8833 3.23644C38.8833 3.1748 38.8712 3.11914 38.8564 3.05094C38.8521 3.03113 38.8476 3.01026 38.8431 2.98789C38.7878 3.02746 38.7362 3.0633 38.6875 3.09712C38.5771 3.17379 38.4817 3.2401 38.3911 3.31598C38.2404 3.44523 38.0898 3.44523 37.919 3.35575C37.8137 3.29621 37.6972 3.25339 37.5694 3.20643C37.5265 3.19065 37.4823 3.17441 37.4368 3.1569C37.393 3.3651 37.4639 3.52788 37.5294 3.67827C37.539 3.70024 37.5484 3.72195 37.5574 3.74349C37.6176 3.92245 37.5976 4.04176 37.477 4.18095C37.4536 4.20832 37.4284 4.23524 37.4028 4.26266C37.3072 4.36474 37.2052 4.47371 37.1656 4.63829C37.2331 4.6418 37.298 4.6478 37.3614 4.65365C37.4772 4.66434 37.5876 4.67454 37.698 4.66811C37.8889 4.65817 38.0194 4.72776 38.1199 4.89678C38.1377 4.92622 38.1544 4.95682 38.1713 4.98782C38.24 5.11386 38.3122 5.24646 38.4815 5.33424C38.4995 5.26724 38.5196 5.20425 38.539 5.14348C38.5627 5.06897 38.5854 4.99779 38.602 4.92661C38.6523 4.64823 38.813 4.50904 39.0942 4.46927C39.1789 4.45638 39.2593 4.42677 39.341 4.39671ZM21.2604 5.39092C21.3047 5.37461 21.3494 5.35817 21.3953 5.34418C21.4004 5.32927 21.4029 5.31187 21.4054 5.29447C21.4079 5.27707 21.4104 5.25967 21.4154 5.24476C21.3571 5.20629 21.3004 5.16633 21.2439 5.12662C21.1544 5.06368 21.0658 5.00135 20.9735 4.94649C20.8228 4.85701 20.7525 4.74765 20.7726 4.57863C20.776 4.53744 20.7807 4.49744 20.7853 4.4578C20.7941 4.38263 20.8027 4.30877 20.8027 4.23066C20.8027 4.16902 20.7906 4.11336 20.7759 4.04516C20.7716 4.02535 20.7671 4.00448 20.7625 3.9821C20.7072 4.02168 20.6556 4.05752 20.6069 4.09135C20.4966 4.16801 20.4011 4.23431 20.3105 4.31019C20.1598 4.43944 20.0092 4.43944 19.8384 4.34996C19.7331 4.29043 19.6166 4.2476 19.4889 4.20064C19.4459 4.18486 19.4017 4.16862 19.3563 4.15112C19.3124 4.35932 19.3833 4.5221 19.4488 4.67249C19.4584 4.69446 19.4678 4.71616 19.4768 4.73771C19.5371 4.91667 19.517 5.03597 19.3964 5.17516C19.373 5.20253 19.3478 5.22945 19.3222 5.25688C19.2266 5.35895 19.1246 5.46793 19.0851 5.6325C19.1525 5.63601 19.2175 5.64201 19.2808 5.64786C19.3966 5.65856 19.507 5.66876 19.6174 5.66233C19.8083 5.65238 19.9389 5.72198 20.0393 5.891C20.0572 5.92044 20.0738 5.95104 20.0907 5.98204C20.1594 6.10807 20.2316 6.24068 20.4009 6.32845C20.419 6.26146 20.439 6.19848 20.4584 6.13771C20.4822 6.0632 20.5049 5.99201 20.5215 5.92082C20.5717 5.64244 20.7324 5.50325 21.0136 5.46348C21.0983 5.45059 21.1787 5.42099 21.2604 5.39092ZM4.94604 8.1427C4.96814 8.13435 4.99024 8.12599 5.01234 8.11804C5.01234 8.10313 5.01485 8.0907 5.01736 8.07827C5.01987 8.06584 5.02238 8.05341 5.02238 8.0385C4.98097 8.01012 4.94056 7.98074 4.90053 7.95163C4.81433 7.88896 4.72985 7.82753 4.64068 7.78001C4.5101 7.71041 4.44983 7.61099 4.45988 7.4718C4.46322 7.43866 4.46769 7.40552 4.47215 7.37238C4.48108 7.3061 4.49001 7.23982 4.49001 7.17353C4.49001 7.13741 4.48264 7.09764 4.4746 7.05423C4.46936 7.02595 4.46384 6.99612 4.45988 6.96475C4.40243 7.00645 4.3479 7.04237 4.29629 7.07636C4.21255 7.13152 4.13649 7.18162 4.06813 7.24313C3.93755 7.36244 3.81701 7.35249 3.66634 7.2829C3.57848 7.23607 3.48606 7.20275 3.38911 7.16778C3.34196 7.15078 3.29375 7.1334 3.24446 7.11388C3.21136 7.28587 3.26688 7.41064 3.32116 7.53264C3.33277 7.55874 3.34433 7.58471 3.35495 7.61099C3.40518 7.76012 3.38509 7.85954 3.28464 7.97885C3.26543 7.99976 3.24512 8.02031 3.22455 8.04112C3.13755 8.12914 3.04593 8.22186 3.01343 8.36659C3.07 8.37009 3.12533 8.37482 3.17985 8.37949C3.28022 8.38807 3.37785 8.39642 3.47549 8.39642C3.64625 8.38648 3.7467 8.44613 3.8371 8.58532C3.85325 8.6113 3.86819 8.63809 3.88321 8.66503C3.94293 8.77211 4.00403 8.88169 4.14849 8.95318C4.15822 8.92188 4.16795 8.89174 4.1774 8.86249C4.20695 8.77096 4.23371 8.68808 4.24894 8.6052C4.29916 8.36659 4.43979 8.24729 4.68086 8.21746C4.76925 8.20951 4.85765 8.1761 4.94604 8.1427ZM6.19327 32.2347C6.23759 32.2184 6.28227 32.202 6.3282 32.188C6.33322 32.1731 6.33574 32.1557 6.33825 32.1383C6.34076 32.1209 6.34327 32.1035 6.34829 32.0886C6.28999 32.0501 6.2332 32.0102 6.17675 31.9704C6.0873 31.9075 5.9987 31.8452 5.90632 31.7903C5.75565 31.7008 5.68534 31.5915 5.70543 31.4225C5.70889 31.3813 5.71356 31.3413 5.71818 31.3016C5.72695 31.2264 5.73556 31.1526 5.73556 31.0745C5.73556 31.0128 5.7235 30.9572 5.70872 30.889C5.70443 30.8692 5.6999 30.8483 5.69538 30.8259C5.64003 30.8655 5.58844 30.9013 5.53975 30.9352C5.42941 31.0118 5.33397 31.0781 5.24337 31.154C5.0927 31.2833 4.94202 31.2833 4.77126 31.1938C4.666 31.1342 4.54948 31.0914 4.4217 31.0445C4.37878 31.0287 4.33458 31.0124 4.28911 30.9949C4.24529 31.2031 4.31618 31.3659 4.38167 31.5163C4.39124 31.5383 4.40069 31.56 4.40965 31.5815C4.46992 31.7605 4.44983 31.8798 4.32929 32.019C4.3059 32.0463 4.2807 32.0733 4.25503 32.1007C4.15949 32.2028 4.05749 32.3117 4.01791 32.4763C4.08536 32.4798 4.15031 32.4858 4.21364 32.4917C4.32947 32.5024 4.43988 32.5126 4.55028 32.5061C4.74113 32.4962 4.87171 32.5658 4.97216 32.7348C4.99001 32.7643 5.00668 32.7949 5.02357 32.8259C5.09223 32.9519 5.16447 33.0845 5.33377 33.1723C5.35182 33.1053 5.37189 33.0423 5.39126 32.9815C5.41501 32.907 5.43771 32.8358 5.45431 32.7646C5.50453 32.4863 5.66525 32.3471 5.9465 32.3073C6.03115 32.2944 6.11158 32.2648 6.19327 32.2347Z" fill="white"/>
</svg>
