<svg width="253" height="253" viewBox="0 0 253 253" fill="none" xmlns="http://www.w3.org/2000/svg">
<path d="M102.287 0C118.1 0 133.912 0 149.725 0C150.362 0.143301 150.99 0.375547 151.632 0.42002C156.712 0.775801 161.801 1.0377 166.876 1.43795C179.304 2.41635 191.499 4.57574 203.314 8.69193C222.235 15.2838 235.433 27.7954 242.766 46.4937C248.513 61.1351 250.781 76.4683 252.041 92.0139C252.358 95.9325 252.679 99.851 252.995 103.77C252.995 118.925 252.995 134.075 252.995 149.23C252.526 154.701 252.071 160.176 251.582 165.646C250.426 178.548 248.261 191.247 243.908 203.512C236.777 223.618 223.391 237.425 203.082 244.402C189.503 249.067 175.469 251.083 161.228 252.076C157.715 252.323 154.216 252.689 150.708 253C134.238 253 117.764 253 101.294 253C96.1499 252.531 91.0059 252.056 85.8668 251.582C73.8641 250.475 62.0542 248.444 50.6395 244.451C41.7747 241.348 33.6707 236.975 26.6688 230.591C16.6575 221.459 10.8217 209.916 7.05139 197.172C3.46887 185.046 1.77396 172.589 0.919102 159.998C0.691797 156.568 0.311309 153.149 0 149.725C0 134.243 0 118.757 0 103.275C0.474375 97.9683 0.953691 92.6563 1.41818 87.3492C2.53988 74.5115 4.69928 61.8862 9.03289 49.7056C16.2226 29.5101 29.8313 15.7581 50.1553 8.70182C63.6404 4.01736 77.5949 1.91727 91.7619 0.933926C95.2753 0.686855 98.7787 0.31625 102.287 0Z" fill="url(#paint0_linear_1830_9736)"/>
<defs>
<linearGradient id="paint0_linear_1830_9736" x1="0" y1="0" x2="253" y2="252.995" gradientUnits="userSpaceOnUse">
<stop stop-color="#EC4887"/>
<stop offset="1" stop-color="#FFB422"/>
</linearGradient>
</defs>
</svg>
