<svg width="35" height="56" viewBox="0 0 35 56" fill="none" xmlns="http://www.w3.org/2000/svg">
<g clip-path="url(#clip0_21_1129)">
<path d="M19.4223 11.4033C18.9409 11.9579 18.3131 12.3241 17.633 12.502C17.047 12.6589 16.4087 12.6589 15.8123 12.502C15.3101 12.3869 14.8287 12.1567 14.3997 11.8218L13.5836 11.1836C13.1545 10.8487 12.6942 10.5558 12.2024 10.3465C11.4281 10.0116 10.5805 9.83376 9.67017 9.84423C9.53414 9.84423 9.39811 9.85469 9.25162 9.86515L8.47732 9.25827C8.17387 9.0176 9.35626 6.9772 11.1351 4.69613C12.9139 2.42553 14.609 0.782739 14.9229 1.0234L15.6867 1.63029C15.7181 1.76632 15.7495 1.90235 15.7809 2.03837C15.9902 2.92778 16.3669 3.71255 16.8796 4.38222C17.204 4.81123 17.6016 5.18792 18.0201 5.51229L18.92 6.21335C20.5314 7.46899 20.7721 9.83376 19.4223 11.4033Z" fill="white"/>
<path d="M13.6986 12.502H11.7629C11.878 12.0625 12.0035 11.8114 12.1186 11.8114L12.9139 11.8532C12.9976 11.9369 13.0813 12.0206 13.165 12.0939C13.3324 12.2404 13.5103 12.3869 13.6986 12.502Z" fill="white"/>
<path d="M20.793 10.9848C20.6779 11.6544 21.3476 12.1776 21.9649 11.9056C23.0531 11.4242 24.0053 10.6709 24.7378 9.72913L24.8633 9.57218C25.2609 9.05946 25.1668 8.31654 24.6541 7.91893L23.9844 7.39575C23.4717 6.99813 22.7287 7.0923 22.3311 7.60502L22.2056 7.76197C21.494 8.7037 21.0023 9.81284 20.793 10.9848Z" fill="white"/>
<path d="M21.9544 12.502H19.4118C19.506 12.3869 19.642 12.3241 19.7989 12.3241L21.6301 12.366C21.7556 12.366 21.8603 12.4183 21.9544 12.502Z" fill="white"/>
<path d="M21.0127 8.45259C21.0127 8.45259 22.666 6.71563 21.3266 3.5033C21.2638 3.34635 21.0546 3.32542 20.9604 3.46145L20.1338 4.68569L18.9618 4.56012C18.7735 4.5392 18.6479 4.7694 18.784 4.91589C19.3908 5.56463 20.5105 6.89351 21.0127 8.45259Z" fill="white"/>
<path d="M41.4063 12.2822C41.3958 12.3345 41.3435 12.3764 41.2912 12.3659C40.7994 12.2822 40.3076 12.2194 39.8158 12.1567C39.638 12.1357 39.4601 12.1148 39.2717 12.0939C39.1252 12.073 38.9788 12.0625 38.8218 12.052C38.6962 12.0311 38.5707 12.0206 38.4346 12.0102H38.4242C36.3419 11.8428 34.2492 11.8532 32.1669 12.0625C32.0832 12.0625 31.9995 12.073 31.9263 12.0834C31.1101 12.1671 30.3044 12.2822 29.4987 12.4287C29.3627 12.4496 29.2267 12.4706 29.0906 12.502C28.9546 12.5229 28.8291 12.5438 28.693 12.5752C28.6407 12.5857 28.5989 12.5543 28.5884 12.502L28.5779 12.4915C28.5675 12.4496 28.6093 12.3973 28.6616 12.3869C28.9337 12.3345 29.2057 12.2822 29.4778 12.2404C30.9218 11.9788 32.3762 11.8114 33.8307 11.7381H33.8411C33.9039 11.7381 33.9562 11.7381 34.0085 11.7277H34.2178C35.306 11.6858 36.3942 11.6963 37.4825 11.759C37.7127 11.759 37.9324 11.78 38.1626 11.8009C39.2194 11.8741 40.2762 12.0102 41.3226 12.1776C41.3749 12.1881 41.4168 12.2299 41.4063 12.2822Z" fill="white"/>
<path d="M32.1879 11.9788C32.1774 12.0102 32.1669 12.0311 32.1669 12.0625C32.1146 12.209 32.0937 12.3555 32.0728 12.502H31.2671C31.3926 12.4078 31.5182 12.3032 31.6542 12.2195C31.6856 12.1985 31.8007 12.1357 31.9263 12.0834C31.9472 12.073 31.9577 12.073 31.9786 12.0625C32.0832 12.0206 32.1669 11.9788 32.1879 11.9788Z" fill="white"/>
<path d="M37.9847 11.8846C37.6499 11.8637 36.9907 11.5707 36.8965 11.5289C36.5512 11.3824 36.1222 11.2463 35.8292 11.0266C35.2537 10.5976 34.6259 9.77098 35.1177 9.05945C35.2537 8.87111 35.4107 8.76647 35.5781 8.73508C35.7141 8.69323 35.8815 8.69322 36.0803 8.72462C36.6558 8.82925 37.1162 9.31058 37.3674 9.84422C37.6394 10.4406 37.6394 11.0475 38.0789 11.5707C38.1312 11.6335 38.1835 11.6963 38.1835 11.78C38.1731 11.8637 38.0998 11.8951 37.9847 11.8846Z" fill="white"/>
<path d="M29.4987 12.4287C29.5092 12.4601 29.4987 12.481 29.4987 12.502H29.0906C28.9546 12.5229 28.8291 12.5438 28.693 12.5752C28.6407 12.5857 28.5989 12.5543 28.5884 12.502H27.3014C27.27 11.8742 27.7199 11.194 28.5779 11.3614C29.1011 11.4556 29.4045 11.8323 29.4778 12.2404C29.4883 12.3032 29.4987 12.3659 29.4987 12.4287Z" fill="white"/>
<path d="M34.1236 11.7695C34.1236 11.78 34.1132 11.8009 34.1027 11.8114C34.0713 11.8532 34.0085 11.8532 33.9667 11.8219C32.9203 10.9534 31.6752 10.3151 30.3672 9.9698C30.3149 9.95934 30.2835 9.90702 30.294 9.8547C30.3044 9.80238 30.3567 9.77099 30.4091 9.78145C31.7484 10.1372 33.0145 10.7964 34.0818 11.6754C34.1132 11.7068 34.1236 11.7382 34.1236 11.7695Z" fill="white"/>
<path d="M34.2806 11.487C34.2597 11.6021 34.2283 11.7172 34.176 11.8218C34.155 11.8742 34.1027 11.8951 34.0504 11.8742C33.9981 11.8532 33.9772 11.8009 33.9981 11.7486C34.1864 11.3091 34.155 10.7546 33.9039 10.2418C33.6633 9.73958 33.2656 9.3315 32.9099 8.9862C32.868 8.95481 32.868 8.89203 32.9099 8.85018C32.9413 8.80832 33.004 8.80832 33.0459 8.85018C33.4121 9.20594 33.8307 9.63495 34.0818 10.1581C34.2911 10.6081 34.3643 11.0789 34.2806 11.487Z" fill="white"/>
<path d="M30.273 8.69322C31.0997 8.85017 31.3717 9.69772 31.0683 10.2732C30.8694 10.6395 30.3672 10.8906 29.8754 10.7964C28.5465 10.5348 28.85 8.42116 30.273 8.69322Z" fill="white"/>
<path d="M32.9308 7.87706C33.6109 8.00262 33.8411 8.70368 33.59 9.17454C33.433 9.47799 33.0145 9.6768 32.6064 9.60355C31.5077 9.39428 31.7589 7.65732 32.9308 7.87706Z" fill="white"/>
<path d="M6.37416 12.2509C6.3637 12.3032 6.31138 12.3346 6.25906 12.3241C5.76727 12.2509 5.27549 12.1776 4.7837 12.1253C4.60582 12.1044 4.41747 12.0835 4.23959 12.073C4.0931 12.0521 3.94661 12.0311 3.80012 12.0207C3.66409 12.0102 3.52806 11.9998 3.39204 11.9788H3.33972C1.26792 11.8219 -0.803873 11.8533 -2.8652 12.0625C-2.93845 12.073 -3.02215 12.0835 -3.0954 12.0939C-3.91156 12.1776 -4.72772 12.3032 -5.53342 12.4392C-5.63806 12.4602 -5.74269 12.4811 -5.84733 12.502C-6.01475 12.5334 -6.1717 12.5648 -6.33912 12.5962C-6.39144 12.6171 -6.43329 12.5753 -6.44376 12.5229C-6.44376 12.5125 -6.44376 12.5125 -6.44376 12.502C-6.44376 12.4602 -6.41237 12.4288 -6.37051 12.4183C-6.09846 12.366 -5.8264 12.3137 -5.55435 12.2613C-4.09991 11.9998 -2.64547 11.8323 -1.18056 11.7486C-1.12824 11.7486 -1.07592 11.7382 -1.02361 11.7382H-0.918972C-0.887581 11.7382 -0.856184 11.7277 -0.81433 11.7277C0.242495 11.6858 1.33071 11.6858 2.398 11.7382C2.40846 11.7382 2.41892 11.7382 2.41892 11.7382C2.65958 11.7486 2.90025 11.7591 3.14091 11.78C4.19774 11.8533 5.24409 11.9684 6.29045 12.1358C6.34277 12.1462 6.38463 12.1986 6.37416 12.2509Z" fill="white"/>
<path d="M3.82105 11.9265C3.82105 11.9369 3.83151 11.9579 3.82105 11.9683C3.82105 11.9893 3.81058 12.0102 3.80012 12.0207C3.78965 12.0311 3.77919 12.0416 3.76873 12.0416C3.39204 12.1671 3.02581 12.3241 2.65959 12.502H2.24104C2.61773 12.3032 2.9421 12.1253 3.33971 11.9788H3.39204C3.49667 11.9369 3.60131 11.9056 3.70595 11.8637C3.7478 11.8532 3.80012 11.8742 3.82105 11.9265Z" fill="white"/>
<path d="M4.78369 12.1253C4.78369 12.1776 4.76277 12.2404 4.71045 12.3241C4.6686 12.3764 4.6372 12.4392 4.62674 12.502H3.68502C3.8629 12.3555 4.05124 12.209 4.23959 12.0729C4.26051 12.052 4.28145 12.0311 4.30237 12.0206C4.34423 11.9997 4.38608 11.9788 4.42793 11.9578C4.60581 11.9055 4.78369 11.9683 4.78369 12.1253Z" fill="white"/>
<path d="M2.95255 11.8742C2.61771 11.8533 1.9585 11.5603 1.85387 11.5184C1.50857 11.3719 1.07956 11.2464 0.776114 11.0162C0.200614 10.5976 -0.427206 9.771 0.0541207 9.05948C0.179684 8.87113 0.347105 8.7665 0.514523 8.73511C0.65055 8.69325 0.817972 8.68279 1.01678 8.72464C1.60274 8.82928 2.06314 9.30014 2.31427 9.83379C2.58632 10.4302 2.58633 11.0371 3.03626 11.5603C3.08858 11.6231 3.15136 11.6858 3.1409 11.7696C3.1409 11.8533 3.06765 11.8742 2.95255 11.8742Z" fill="white"/>
</g>
<defs>
<clipPath id="clip0_21_1129">
<rect width="35" height="56" fill="white"/>
</clipPath>
</defs>
</svg>
