<svg width="56" height="56" viewBox="0 0 56 56" fill="none" xmlns="http://www.w3.org/2000/svg">
<g clip-path="url(#clip0_21_572)">
<path d="M13.4978 15.6515V15.662C13.4978 15.6934 13.5083 15.7143 13.5292 15.7352V15.7457C13.5606 15.7666 13.592 15.7666 13.6234 15.7562H13.6339C13.6443 15.7457 13.6653 15.7352 13.6757 15.7248C14.0106 15.3376 14.3559 14.9505 14.7221 14.5738C14.8372 14.4482 14.9523 14.3226 15.0883 14.1971C15.0988 14.1762 15.1092 14.1761 15.1197 14.1657C15.2139 14.0506 15.3185 13.946 15.4336 13.8309H15.4441C15.5383 13.7262 15.6534 13.6111 15.758 13.5065C17.3171 11.9788 19.0017 10.6081 20.8015 9.39428C20.8642 9.34196 20.9166 9.30011 20.9898 9.25825L21.0003 9.24779C21.7013 8.77693 22.4338 8.32699 23.1767 7.91891C23.4174 7.76196 23.6685 7.62593 23.9196 7.4899C23.9615 7.45851 23.9824 7.39573 23.951 7.35388C23.9301 7.30156 23.8673 7.28063 23.815 7.31202C23.5638 7.44805 23.3127 7.59454 23.0616 7.74103C21.7327 8.49441 20.4457 9.34196 19.2319 10.2628C19.1901 10.2942 19.1482 10.3255 19.1063 10.3569C19.075 10.3779 19.0436 10.3988 19.0226 10.4302C18.9912 10.4406 18.9599 10.472 18.9285 10.5034C18.0286 11.1836 17.181 11.9055 16.3544 12.6694C16.3544 12.6694 16.3544 12.6694 16.344 12.6799C16.1556 12.8473 15.9777 13.0147 15.7998 13.1926C15.1511 13.8099 14.5337 14.4587 13.9478 15.1283C13.8013 15.2748 13.6757 15.4213 13.5502 15.5678L13.5188 15.5992C13.5083 15.6201 13.4978 15.6306 13.4978 15.6515Z" fill="white"/>
<path d="M15.3499 13.7681C15.3604 13.7785 15.3708 13.7995 15.3813 13.8099C15.3918 13.8204 15.4127 13.8309 15.4336 13.8309H15.4441C15.4545 13.8309 15.465 13.8204 15.4755 13.8204C15.5592 13.789 15.6429 13.7576 15.7266 13.7367C15.9777 13.5588 16.2498 13.4018 16.5323 13.2867C16.2707 13.3495 16.0091 13.4228 15.758 13.5065C15.6429 13.5588 15.5173 13.6007 15.4022 13.6425C15.3604 13.6634 15.329 13.7158 15.3499 13.7681Z" fill="white"/>
<path d="M20.9375 9.26872C21.084 9.22686 21.2618 9.18501 21.3037 9.17455C21.5653 9.14316 21.8373 9.14315 22.0989 9.14315C22.4965 9.14315 22.9674 9.09084 23.3546 9.18501C24.0766 9.35243 25.0287 9.88607 24.8509 10.765C24.809 11.0057 24.6939 11.1626 24.5474 11.2673C24.4323 11.3614 24.2754 11.4347 24.0661 11.487C23.386 11.644 22.8523 11.2987 22.3291 10.922C21.7118 10.4825 21.356 9.73958 20.7177 9.34196C20.7073 9.34196 20.8119 9.30011 20.9375 9.26872Z" fill="white"/>
<path d="M14.6907 14.5424C14.7012 14.5529 14.7116 14.5738 14.7221 14.5738C14.8372 14.4482 14.9523 14.3227 15.0883 14.1971C15.0988 14.1762 15.1092 14.1762 15.1197 14.1657H15.036C14.9837 14.1762 14.9418 14.1866 14.8895 14.2076C14.7326 14.2703 14.6279 14.4168 14.6907 14.5424Z" fill="white"/>
<path d="M16.0091 13.1403C16.2602 12.8996 16.5951 12.2195 16.6474 12.1253C16.8253 11.78 17.0764 11.3928 17.1706 11.0057C17.3484 10.2837 17.2961 9.19547 16.4276 8.95481C16.1974 8.89203 15.9986 8.91295 15.8417 8.99666C15.7056 9.05944 15.5696 9.16408 15.4336 9.32103C15.036 9.7919 14.9837 10.4825 15.1511 11.0789C15.329 11.7381 15.737 12.2195 15.737 12.9414C15.737 13.0252 15.737 13.1193 15.7894 13.1821C15.8417 13.2449 15.9254 13.2135 16.0091 13.1403Z" fill="white"/>
<path d="M23.1976 6.43311C22.6326 7.1237 22.9779 7.99218 23.6162 8.25377C24.0242 8.42119 24.5997 8.2747 24.945 7.86662C25.8554 6.75748 24.1707 5.24025 23.1976 6.43311Z" fill="white"/>
<path d="M19.0959 12.5438C19.347 12.5125 19.6086 12.502 19.8702 12.502H21.0212C20.6654 11.9265 19.8074 11.6335 19.2214 12.3555C19.1691 12.4183 19.1273 12.4811 19.0959 12.5438Z" fill="white"/>
<path d="M19.0331 10.4616C19.0436 10.472 19.0645 10.4825 19.075 10.4825C19.1273 10.493 19.1796 10.4616 19.1901 10.3988C19.4516 9.00713 20.0271 7.65733 20.8433 6.50633C20.8747 6.46448 20.8642 6.40169 20.8224 6.3703C20.7805 6.33891 20.7177 6.34938 20.6864 6.39123C19.8493 7.57362 19.2738 8.94435 19.0017 10.3674C18.9912 10.4093 19.0017 10.4406 19.0331 10.4616Z" fill="white"/>
<path d="M18.7087 10.3465C18.8029 10.4302 18.9075 10.493 19.0122 10.5453C19.0645 10.5662 19.1168 10.5558 19.1482 10.5034C19.1691 10.4511 19.1587 10.3988 19.1063 10.3674C18.6669 10.1372 18.3216 9.67682 18.1751 9.09085C18.039 8.52582 18.0809 7.92939 18.1332 7.42714C18.1437 7.37482 18.1018 7.3225 18.0495 7.31204C17.9972 7.30158 17.9449 7.34343 17.9344 7.39575C17.8716 7.92939 17.8298 8.54675 17.9763 9.13271C18.1123 9.64542 18.3739 10.064 18.7087 10.3465Z" fill="white"/>
<path d="M20.0585 5.42858C19.504 6.10871 19.8493 6.96673 20.4771 7.22832C20.8747 7.39574 21.4502 7.24925 21.785 6.85163C22.6744 5.75295 21.0212 4.25665 20.0585 5.42858Z" fill="white"/>
<path d="M17.3799 6.54818C16.9195 7.11321 17.202 7.81427 17.7252 8.02355C18.0495 8.15957 18.5309 8.04447 18.8029 7.70964C19.5458 6.82023 18.1751 5.58553 17.3799 6.54818Z" fill="white"/>
<path d="M9.41707 27.0255C9.40661 27.0778 9.438 27.1301 9.49032 27.1406C9.54264 27.151 9.59496 27.1092 9.60542 27.0569C9.64727 26.7848 9.69959 26.5232 9.76237 26.2616C9.90886 25.4559 10.0972 24.6502 10.3065 23.8655C10.3274 23.7922 10.3483 23.719 10.3797 23.6457C10.9343 21.6367 11.6668 19.68 12.5771 17.807C12.6085 17.7338 12.6399 17.6605 12.6922 17.5873C12.6922 17.5664 12.7026 17.535 12.7236 17.5141C12.734 17.4827 12.7445 17.4513 12.7654 17.4303C12.8282 17.2943 12.891 17.1583 12.9747 17.0223C13.0479 16.8548 13.1317 16.6979 13.2258 16.5409C13.3619 16.2584 13.5083 15.9864 13.6758 15.7248C13.6862 15.6829 13.7072 15.6411 13.7385 15.6097C13.8013 15.4841 13.8746 15.3585 13.9478 15.233C13.9687 15.2016 13.9687 15.1597 13.9478 15.1283C13.9374 15.1179 13.9269 15.1074 13.9164 15.1074V15.097C13.8746 15.076 13.8118 15.0865 13.7909 15.1388C13.7072 15.2853 13.6234 15.4213 13.5502 15.5678C13.5293 15.5887 13.5083 15.6201 13.4979 15.6515V15.662C13.0584 16.4049 12.6608 17.1688 12.2946 17.9431V17.9535C12.1899 18.1628 12.0958 18.3721 12.0121 18.5813C11.5517 19.5754 11.154 20.5799 10.8087 21.6158C10.7878 21.6472 10.7773 21.6681 10.7773 21.6995C10.7564 21.7309 10.746 21.7727 10.746 21.8041C10.7146 21.846 10.7041 21.8983 10.6936 21.9402V21.9506C10.2228 23.3423 9.85655 24.7549 9.57403 26.2093C9.51125 26.4814 9.45893 26.7534 9.41707 27.0255Z" fill="white"/>
<path d="M12.5771 17.8071V17.8908C12.6085 17.7861 12.6399 17.6815 12.6922 17.5873C12.6922 17.5664 12.7026 17.535 12.7236 17.5141C12.734 17.4827 12.7445 17.4513 12.7654 17.4304C12.7654 17.4199 12.7654 17.4094 12.755 17.399C12.7445 17.3885 12.734 17.378 12.7236 17.378C12.7131 17.3676 12.7026 17.3571 12.6817 17.3571C12.6294 17.3571 12.5875 17.399 12.5875 17.4513C12.5771 17.5664 12.5771 17.692 12.5771 17.8071Z" fill="white"/>
<path d="M10.3065 23.5934C10.3065 23.5934 10.3065 23.698 10.3065 23.8131V23.8655C10.3169 23.991 10.3274 24.1271 10.3379 24.1689C10.3902 24.42 10.4739 24.6607 10.5471 24.9014C10.6727 25.2676 10.7669 25.7071 10.9657 26.0314C11.2377 26.4709 11.7191 26.9627 12.2422 27.0359V24.5875C12.2422 24.577 12.2318 24.577 12.2318 24.577C11.6667 24.1689 10.9238 24.0747 10.3797 23.6457C10.3483 23.6353 10.3274 23.6143 10.3065 23.5934Z" fill="white"/>
<path d="M12.9433 16.813C12.9328 16.8548 12.9433 16.8862 12.9537 16.9385V16.949C12.9642 16.9699 12.9642 17.0013 12.9747 17.0222C13.0479 16.8548 13.1316 16.6979 13.2258 16.5409C13.2049 16.52 13.1735 16.52 13.1526 16.52C13.0375 16.52 12.9537 16.6456 12.9433 16.813Z" fill="white"/>
<path d="M12.305 18.1524C12.169 18.4558 11.6458 18.9581 11.5726 19.0418C11.311 19.3138 11.0389 19.6591 10.7146 19.8579C10.1077 20.2346 9.11362 20.5276 8.6323 19.8161C8.50674 19.6277 8.46488 19.4394 8.49627 19.272C8.50674 19.1359 8.55905 18.9685 8.67415 18.8011C8.98806 18.2989 9.59495 18.0373 10.1809 18.0059C10.8297 17.964 11.3947 18.1838 12.0539 17.964C12.1271 17.9431 12.2109 17.9117 12.2841 17.9431C12.3573 17.964 12.3573 18.0477 12.305 18.1524Z" fill="white"/>
<path d="M8.42303 26.7325C8.87296 26.0105 9.77283 26.0628 10.2018 26.5546C10.4739 26.8685 10.5262 27.444 10.2542 27.873C9.53217 29.045 7.63826 27.9881 8.42303 26.7325Z" fill="white"/>
<path d="M10.8087 21.7204C10.8192 21.7309 10.8296 21.7414 10.8401 21.7518C10.861 21.7937 10.8506 21.8565 10.7982 21.8774C9.61586 22.5366 8.5695 23.4679 7.7638 24.5665C7.73241 24.6084 7.66963 24.6189 7.62777 24.5875C7.58592 24.5561 7.57545 24.4933 7.60684 24.4514C8.42301 23.3318 9.49029 22.3796 10.6936 21.71C10.7459 21.6995 10.7773 21.6995 10.8087 21.7204Z" fill="white"/>
<path d="M10.6099 21.4589C10.7145 21.5216 10.8087 21.5949 10.8924 21.6786C10.9343 21.7204 10.9343 21.7728 10.8924 21.8146C10.8506 21.8565 10.7982 21.8565 10.7564 21.8146C10.4111 21.4798 9.88791 21.3124 9.31242 21.3647C8.75784 21.4065 8.23466 21.6263 7.78473 21.846C7.73241 21.8669 7.68009 21.846 7.65917 21.8042C7.63824 21.7518 7.65917 21.6995 7.70102 21.6786C8.16142 21.4589 8.71599 21.2287 9.29149 21.1868C9.78328 21.1345 10.2437 21.2391 10.6099 21.4589Z" fill="white"/>
<path d="M6.55003 24.1898C6.99997 23.4783 7.87891 23.5202 8.30792 24.0119C8.57997 24.3259 8.63229 24.8909 8.36024 25.3199C7.63825 26.4709 5.77573 25.4245 6.55003 24.1898Z" fill="white"/>
<path d="M6.74884 21.417C7.11506 20.831 7.84752 20.8729 8.19281 21.2705C8.41255 21.5321 8.4544 21.9925 8.23467 22.3482C7.64871 23.3004 6.12102 22.432 6.74884 21.417Z" fill="white"/>
<path d="M4.69795 44.9078C6.96855 46.6866 9.00895 47.869 9.26008 47.5551L9.85651 46.7912C9.84604 46.6447 9.84604 46.5087 9.84604 46.3727C9.83558 45.4623 10.0135 44.6148 10.3378 43.8405C10.5471 43.3487 10.8505 42.8883 11.1854 42.4593L11.8237 41.6431C12.1794 41.1932 12.4201 40.67 12.5247 40.1364C12.6503 39.5922 12.6503 39.0272 12.5247 38.4936C12.3573 37.782 11.9806 37.1228 11.3947 36.6206C9.82512 35.2708 7.4708 35.5114 6.20471 37.1228L5.51411 38.0122C5.17927 38.4412 4.81305 38.8389 4.38404 39.1632C3.7039 39.676 2.91913 40.0526 2.02973 40.2619C1.8937 40.2933 1.75767 40.3247 1.62164 40.3456L1.02522 41.1199C0.774092 41.4338 2.42734 43.1289 4.69795 44.9078Z" fill="white"/>
<path d="M11.8132 43.9242C11.8028 44.0498 12.0643 44.1754 12.5247 44.2905V42.3024C12.3992 42.5012 12.2527 42.6895 12.0853 42.8779C12.012 42.9616 11.9283 43.0453 11.8551 43.129L11.8132 43.9242Z" fill="white"/>
<path d="M10.9866 35.2499C11.6563 35.365 12.1794 34.6953 11.9074 34.078C11.4261 32.9897 10.6727 32.0375 9.73095 31.3051L9.57399 31.1795C9.06128 30.7819 8.31836 30.8761 7.92074 31.3888L7.39756 32.0585C6.99995 32.5712 7.09412 33.3141 7.60683 33.7117L7.76379 33.8373C8.70551 34.5488 9.81466 35.0406 10.9866 35.2499Z" fill="white"/>
<path d="M12.3259 36.2439C12.3155 36.4113 12.3992 36.5578 12.5247 36.6416V34.057C12.4306 34.1512 12.3678 34.2768 12.3678 34.4128L12.3259 36.2439Z" fill="white"/>
<path d="M8.45439 35.0301C8.45439 35.0301 6.71743 33.3769 3.5051 34.7162C3.34815 34.779 3.32722 34.9883 3.46325 35.0825L4.68749 35.9091L4.56193 37.0915C4.541 37.2798 4.7712 37.4054 4.91769 37.2694C5.56643 36.6625 6.89531 35.5324 8.45439 35.0301Z" fill="white"/>
<path d="M11.7295 56.8573V56.8677C11.719 56.8991 11.7295 56.9305 11.7295 56.9619V57.0665C11.7295 57.1188 11.7399 57.1607 11.7399 57.213C11.8027 58.6779 11.9701 60.1428 12.2317 61.5973C12.2736 61.8693 12.3259 62.1414 12.3782 62.4134C12.3887 62.4657 12.441 62.4971 12.4933 62.4867C12.5038 62.4867 12.5142 62.4762 12.5247 62.4658C12.5561 62.4553 12.577 62.4239 12.5666 62.382C12.5561 62.3088 12.5352 62.2251 12.5247 62.1518C12.4828 61.9635 12.4515 61.7647 12.4201 61.5763C12.2736 60.7811 12.1689 59.9754 12.0852 59.1697L12.0748 59.1593V59.1383C12.0643 59.0546 12.0643 58.9814 12.0538 58.9081C11.855 56.8259 11.8341 54.7331 12.0015 52.6404V52.63C12.012 52.5044 12.0224 52.3788 12.0434 52.2533C12.0538 52.1068 12.0643 51.9498 12.0852 51.7929C12.1062 51.615 12.1271 51.4371 12.1375 51.2592H12.148C12.2003 50.757 12.2736 50.2652 12.3573 49.7734C12.3677 49.7315 12.3364 49.6792 12.284 49.6688C12.2317 49.6583 12.1794 49.6897 12.1689 49.742C12.0015 50.7988 11.876 51.8452 11.7922 52.902C11.7818 53.1427 11.7609 53.3624 11.7609 53.5926C11.7609 53.5926 11.7609 53.5926 11.7609 53.6031C11.6876 54.6913 11.6771 55.769 11.7295 56.8573Z" fill="white"/>
<path d="M11.8864 52.337C11.9178 52.4311 11.9597 52.5358 12.0015 52.6299V52.6404C12.148 53.0485 12.3259 53.4461 12.5247 53.8228V53.3938C12.3468 53.0276 12.1899 52.6509 12.0643 52.2742C12.0538 52.2637 12.0538 52.2533 12.0434 52.2533C12.0329 52.2323 12.012 52.2219 11.9911 52.2114C11.9701 52.2114 11.9597 52.2114 11.9492 52.2219C11.8969 52.2323 11.876 52.2846 11.8864 52.337Z" fill="white"/>
<path d="M11.9806 51.615C12.0015 51.6568 12.0224 51.6987 12.0434 51.7405C12.0538 51.7615 12.0643 51.7719 12.0852 51.7929C12.2317 51.9917 12.3677 52.18 12.5247 52.3684V51.4266C12.4619 51.4057 12.3991 51.3743 12.3468 51.3325C12.2631 51.2801 12.2003 51.2592 12.148 51.2592H12.1375C11.9806 51.2592 11.9283 51.4371 11.9806 51.615Z" fill="white"/>
<path d="M11.8864 53.0903C11.8655 53.4252 11.5725 54.0844 11.5307 54.1786C11.3842 54.5239 11.2481 54.9529 11.0284 55.2459C10.5994 55.8214 9.77278 56.4492 9.06125 55.9574C8.87291 55.8214 8.76827 55.6644 8.73688 55.497C8.69503 55.361 8.69503 55.1935 8.72642 54.9947C8.83105 54.4192 9.31238 53.9588 9.84602 53.7077C10.4424 53.4356 11.0493 53.4356 11.5725 52.9962C11.6353 52.9439 11.6981 52.8915 11.7818 52.8915C11.8655 52.902 11.8969 52.9752 11.8864 53.0903Z" fill="white"/>
<path d="M39.751 11.4033C39.2697 11.9579 38.6419 12.3241 37.9618 12.502C37.3758 12.6589 36.7375 12.6589 36.1411 12.502C35.6388 12.3869 35.1575 12.1567 34.7285 11.8218L33.9124 11.1836C33.4833 10.8487 33.0229 10.5558 32.5207 10.3465C31.7464 10.0116 30.8988 9.83376 29.999 9.84423C29.8525 9.84423 29.7164 9.85469 29.5804 9.86515L28.8061 9.25827C28.4922 9.0176 29.6851 6.9772 31.4639 4.69613C33.2427 2.42553 34.9273 0.782739 35.2412 1.0234L36.0155 1.63029C36.0365 1.76632 36.0679 1.90235 36.0992 2.03837C36.3085 2.92778 36.6957 3.71255 37.1979 4.38222C37.5328 4.81123 37.9199 5.18792 38.3489 5.51229L39.2383 6.21335C40.8497 7.46899 41.1009 9.83376 39.751 11.4033Z" fill="white"/>
<path d="M34.0274 12.502H32.0917C32.1963 12.0625 32.3219 11.8114 32.437 11.8114L33.2427 11.8532C33.3264 11.9369 33.4101 12.0206 33.4938 12.0939C33.6612 12.2404 33.8391 12.3869 34.0274 12.502Z" fill="white"/>
<path d="M41.1218 10.9848C41.0067 11.6544 41.6763 12.1776 42.2937 11.9056C43.3819 11.4242 44.3341 10.6709 45.0666 9.72913L45.1921 9.57218C45.5897 9.05946 45.4956 8.31654 44.9828 7.91893L44.3132 7.39575C43.8005 6.99813 43.0575 7.0923 42.6599 7.60502L42.5344 7.76197C41.8228 8.7037 41.331 9.81284 41.1218 10.9848Z" fill="white"/>
<path d="M42.2728 12.502H39.7406C39.8243 12.3869 39.9603 12.3241 40.1173 12.3241L41.9484 12.366C42.074 12.366 42.1891 12.4183 42.2728 12.502Z" fill="white"/>
<path d="M41.3415 8.45259C41.3415 8.45259 42.9948 6.71563 41.6554 3.5033C41.5926 3.34635 41.3834 3.32542 41.2892 3.46145L40.4626 4.68569L39.2906 4.56012C39.1023 4.5392 38.9767 4.7694 39.1128 4.91589C39.7092 5.56463 40.8288 6.89351 41.3415 8.45259Z" fill="white"/>
<path d="M62.342 12.4078C62.3315 12.4602 62.2792 12.4915 62.2269 12.4811C58.0414 11.7172 53.8037 11.7172 49.6287 12.4706C49.5764 12.4811 49.524 12.4497 49.5136 12.3974C49.5031 12.3451 49.5345 12.2927 49.5868 12.2823C53.7932 11.5184 58.0519 11.5184 62.2583 12.2927C62.321 12.3032 62.3524 12.3555 62.342 12.4078Z" fill="white"/>
<path d="M53.1235 11.9474C53.1131 11.9788 53.1026 11.9998 53.1026 12.0312C53.0503 12.1881 53.0189 12.3451 53.0084 12.502H52.14C52.2864 12.3869 52.4329 12.2718 52.5899 12.1672C52.6213 12.1463 52.7155 12.0939 52.8306 12.0521L52.841 12.0416H52.8619C52.8829 12.0416 52.9038 12.0312 52.9247 12.0207C53.0189 11.9788 53.1026 11.9474 53.1235 11.9474Z" fill="white"/>
<path d="M58.9309 11.9474C58.596 11.9265 57.9473 11.6126 57.8426 11.5707C57.4973 11.4138 57.0788 11.2777 56.7753 11.0475C56.2103 10.6081 55.593 9.77097 56.0952 9.06991C56.2312 8.88156 56.3882 8.78739 56.5556 8.756C56.6916 8.71415 56.8591 8.71415 57.0579 8.756C57.6334 8.8711 58.0833 9.35243 58.324 9.89653C58.5855 10.493 58.5751 11.0998 59.0041 11.644C59.0564 11.7067 59.1087 11.7695 59.1087 11.8532C59.1192 11.9369 59.046 11.9579 58.9309 11.9474Z" fill="white"/>
<path d="M50.4344 12.345C50.4344 12.3974 50.4344 12.4497 50.4135 12.502H48.2475C48.1533 11.8323 48.6347 11.0685 49.5241 11.2568C50.0368 11.3615 50.3402 11.7382 50.4135 12.1462V12.1567C50.4239 12.2195 50.4344 12.2823 50.4344 12.345Z" fill="white"/>
<path d="M55.0698 11.7696C55.0698 11.78 55.0593 11.8009 55.0488 11.8114C55.0175 11.8533 54.9547 11.8533 54.9128 11.8219C53.8769 10.9429 52.6422 10.2733 51.3447 9.90703C51.2924 9.89657 51.261 9.83379 51.2819 9.79193C51.2924 9.73961 51.3447 9.70822 51.397 9.72915C52.7259 10.1058 53.992 10.786 55.0384 11.6858C55.0593 11.6963 55.0698 11.7382 55.0698 11.7696Z" fill="white"/>
<path d="M55.2372 11.487C55.2163 11.6021 55.1744 11.7172 55.1326 11.8219C55.1116 11.8742 55.0488 11.8951 55.007 11.8742C54.9547 11.8533 54.9337 11.7905 54.9547 11.7486C55.1535 11.3091 55.1221 10.765 54.8814 10.2314C54.6512 9.72914 54.2641 9.3106 53.9083 8.9653C53.8665 8.92345 53.8665 8.87113 53.9083 8.82927C53.9502 8.78742 54.0025 8.78742 54.0443 8.82927C54.4106 9.18504 54.8186 9.62451 55.0593 10.1582C55.2581 10.6081 55.3209 11.0789 55.2372 11.487Z" fill="white"/>
<path d="M51.2715 8.61999C52.0981 8.78741 52.3597 9.64542 52.0353 10.2105C51.8365 10.5767 51.3238 10.8173 50.832 10.7127C49.5136 10.4302 49.8589 8.32701 51.2715 8.61999Z" fill="white"/>
<path d="M53.9502 7.85617C54.6303 8.00266 54.8396 8.70372 54.5885 9.16412C54.421 9.4571 54.0025 9.65591 53.5944 9.5722C52.4957 9.35246 52.7783 7.6155 53.9502 7.85617Z" fill="white"/>
</g>
<defs>
<clipPath id="clip0_21_572">
<rect width="56" height="56" fill="white"/>
</clipPath>
</defs>
</svg>
